<svg width="20" height="20" viewBox="0 0 20 20" fill="none" xmlns="http://www.w3.org/2000/svg">
<path d="M18.5281 14.8864L14.8849 12.4564C14.6619 12.3087 14.3914 12.2506 14.1274 12.2935C13.8634 12.3364 13.6253 12.4773 13.4605 12.688L12.3985 14.0524C12.3322 14.139 12.2368 14.1989 12.1299 14.2209C12.023 14.243 11.9117 14.2257 11.8165 14.1724L11.6149 14.0584C10.425 13.4097 9.35154 12.5674 8.43852 11.566C7.43574 10.6516 6.59185 9.57697 5.94133 8.38598L5.83093 8.18438C5.77723 8.08905 5.75979 7.97751 5.78185 7.87034C5.8039 7.76316 5.86395 7.66757 5.95093 7.60118L7.31052 6.53919C7.52098 6.37425 7.66165 6.13615 7.70457 5.87223C7.74748 5.60831 7.68949 5.3379 7.54212 5.11479L5.11333 1.4728C4.9626 1.24588 4.73018 1.08581 4.46442 1.02591C4.19866 0.966004 3.92004 1.01088 3.68654 1.1512L2.16254 2.0668C1.68365 2.34818 1.3323 2.80404 1.18215 3.3388C0.638548 5.33799 1.04775 8.78798 6.12973 13.87C10.1725 17.9127 13.1821 18.9999 15.2497 18.9999C15.7258 19.0022 16.2 18.9404 16.6597 18.8163C17.1946 18.6664 17.6505 18.315 17.9317 17.8359L18.8473 16.3132C18.9878 16.0799 19.0331 15.8015 18.9736 15.5358C18.9142 15.2701 18.7546 15.0375 18.5281 14.8864ZM18.3325 16.0048L17.4181 17.5287C17.2162 17.8743 16.8886 18.1284 16.5037 18.2379C14.6581 18.7443 11.4337 18.3255 6.55453 13.4464C1.67534 8.56718 1.25535 5.34279 1.76174 3.4984C1.87152 3.11296 2.12606 2.78489 2.47214 2.5828L3.99854 1.6672C4.09977 1.60604 4.22073 1.58638 4.33612 1.61232C4.45151 1.63826 4.55242 1.7078 4.61773 1.8064L5.93773 3.7876L7.04533 5.44959C7.10931 5.5463 7.13459 5.66354 7.11614 5.77803C7.09769 5.89251 7.03686 5.99588 6.94573 6.06759L5.58133 7.12838C5.38049 7.28187 5.24175 7.50267 5.19061 7.75022C5.13947 7.99777 5.17935 8.25547 5.30293 8.47598L5.41093 8.67278C6.08715 9.91571 6.96601 11.0371 8.01132 11.9908C8.96523 13.0358 10.0866 13.9146 11.3293 14.5912L11.5261 14.6992C11.7466 14.8227 12.0043 14.8626 12.2519 14.8115C12.4994 14.7603 12.7202 14.6216 12.8737 14.4208L13.9345 13.0564C14.0062 12.9652 14.1096 12.9044 14.2241 12.8859C14.3385 12.8675 14.4558 12.8928 14.5525 12.9568L18.1957 15.3868C18.2934 15.4526 18.362 15.5535 18.3872 15.6686C18.4124 15.7837 18.3936 15.9041 18.3325 16.0048Z" fill="#01825C" stroke="#01825C" stroke-width="0.3"/>
<path d="M11.1984 4.00137C12.5506 4.00264 13.8471 4.54037 14.8033 5.49653C15.7594 6.45268 16.2971 7.74914 16.2984 9.10135C16.2984 9.18091 16.33 9.25722 16.3863 9.31348C16.4426 9.36974 16.5189 9.40135 16.5984 9.40135C16.678 9.40135 16.7543 9.36974 16.8106 9.31348C16.8668 9.25722 16.8984 9.18091 16.8984 9.10135C16.8968 7.59011 16.2958 6.14122 15.2272 5.07261C14.1586 4.004 12.7097 3.40296 11.1984 3.40137C11.1189 3.40137 11.0426 3.43298 10.9863 3.48924C10.9301 3.5455 10.8984 3.6218 10.8984 3.70137C10.8984 3.78093 10.9301 3.85724 10.9863 3.9135C11.0426 3.96976 11.1189 4.00137 11.1984 4.00137Z" fill="#01825C" stroke="#01825C" stroke-width="0.3"/>
<path d="M11.1984 5.80117C12.0734 5.80212 12.9122 6.1501 13.5308 6.76876C14.1495 7.38742 14.4975 8.22624 14.4984 9.10116C14.4984 9.18072 14.5301 9.25702 14.5863 9.31328C14.6426 9.36955 14.7189 9.40116 14.7984 9.40116C14.878 9.40116 14.9543 9.36955 15.0106 9.31328C15.0668 9.25702 15.0984 9.18072 15.0984 9.10116C15.0972 8.06721 14.6859 7.07597 13.9547 6.34485C13.2236 5.61374 12.2324 5.20244 11.1984 5.20117C11.1189 5.20117 11.0426 5.23277 10.9863 5.28903C10.9301 5.3453 10.8984 5.42161 10.8984 5.50117C10.8984 5.58074 10.9301 5.65704 10.9863 5.7133C11.0426 5.76956 11.1189 5.80117 11.1984 5.80117Z" fill="#01825C" stroke="#01825C" stroke-width="0.3"/>
<path d="M11.1984 7.60097C11.5962 7.60129 11.9775 7.75943 12.2588 8.04066C12.54 8.3219 12.6981 8.70324 12.6984 9.10097C12.6984 9.18053 12.7301 9.25684 12.7863 9.3131C12.8426 9.36936 12.9189 9.40097 12.9984 9.40097C13.078 9.40097 13.1543 9.36936 13.2106 9.3131C13.2668 9.25684 13.2984 9.18053 13.2984 9.10097C13.2978 8.54421 13.0763 8.01045 12.6826 7.61676C12.289 7.22307 11.7552 7.00161 11.1984 7.00098C11.1189 7.00098 11.0426 7.03259 10.9863 7.08885C10.9301 7.14511 10.8984 7.22141 10.8984 7.30098C10.8984 7.38054 10.9301 7.45684 10.9863 7.5131C11.0426 7.56936 11.1189 7.60097 11.1984 7.60097Z" fill="#01825C" stroke="#01825C" stroke-width="0.3"/>
</svg>
