<svg width="18" height="20" viewBox="0 0 18 20" fill="none" xmlns="http://www.w3.org/2000/svg">
<path d="M12.0104 3.63286L9.56279 1.23093C9.39847 1.0823 9.1848 1 8.96323 1C8.74166 1 8.52799 1.0823 8.36368 1.23093L5.91602 3.63286" stroke="#01825C" stroke-width="0.8" stroke-miterlimit="10" stroke-linecap="round" stroke-linejoin="round"/>
<path d="M16.6587 8.19336L15.5078 9.34055" stroke="#01825C" stroke-width="0.8" stroke-miterlimit="10" stroke-linecap="round" stroke-linejoin="round"/>
<path d="M10.3496 14.4902L16.9286 18.1061" stroke="#01825C" stroke-width="0.8" stroke-miterlimit="10" stroke-linecap="round" stroke-linejoin="round"/>
<path d="M2.42186 9.33567L1.27344 8.18848" stroke="#01825C" stroke-width="0.8" stroke-miterlimit="10" stroke-linecap="round" stroke-linejoin="round"/>
<path d="M7.57902 14.4902L1 18.1061" stroke="#01825C" stroke-width="0.8" stroke-miterlimit="10" stroke-linecap="round" stroke-linejoin="round"/>
<path d="M13.1055 18.9997H16.0365C16.2735 18.9997 16.5009 18.9056 16.6685 18.738C16.8361 18.5703 16.9303 18.343 16.9303 18.106V8.83452C16.9304 8.71417 16.9065 8.59499 16.86 8.48397C16.8135 8.37296 16.7454 8.27233 16.6595 8.18798L15.5111 7.06055" stroke="#01825C" stroke-width="0.8" stroke-miterlimit="10" stroke-linecap="round" stroke-linejoin="round"/>
<path d="M1 13.123V18.1061C1 18.3432 1.09416 18.5705 1.26178 18.7381C1.42939 18.9058 1.65673 18.9999 1.89377 18.9999H11.9218" stroke="#01825C" stroke-width="0.8" stroke-miterlimit="10" stroke-linecap="round" stroke-linejoin="round"/>
<path d="M2.42111 7.06543L1.27268 8.19284C1.18688 8.27723 1.11876 8.37786 1.07227 8.48887C1.02579 8.59987 1.00188 8.71902 1.00195 8.83937V11.9385" stroke="#01825C" stroke-width="0.8" stroke-miterlimit="10" stroke-linecap="round" stroke-linejoin="round"/>
<path d="M15.5095 5.18079V4.53673C15.5095 4.29674 15.4142 4.06657 15.2445 3.89687C15.0747 3.72717 14.8446 3.63184 14.6046 3.63184H3.32676C3.08677 3.63184 2.85664 3.72717 2.68694 3.89687C2.51723 4.06657 2.42188 4.29674 2.42188 4.53673V9.33811L7.58176 14.4881L8.53611 13.964C8.66851 13.8906 8.81741 13.8521 8.96879 13.8521C9.12016 13.8521 9.26902 13.8906 9.40142 13.964L10.3558 14.4881L15.5157 9.33811V6.33663" stroke="#01825C" stroke-width="0.8" stroke-miterlimit="10" stroke-linecap="round" stroke-linejoin="round"/>
<path d="M9.81824 8.15985C9.85444 8.45764 9.77205 8.75771 9.58885 8.99526C9.40566 9.23281 9.13637 9.38876 8.83916 9.42942C8.53988 9.3922 8.26709 9.23924 8.07923 9.00332C7.89137 8.76739 7.80339 8.46728 7.83414 8.16727C7.82164 8.01987 7.8385 7.87145 7.88374 7.73061C7.92898 7.58976 8.00169 7.45929 8.09769 7.34674C8.19369 7.23419 8.31105 7.14179 8.44299 7.0749C8.57494 7.00801 8.71883 6.96794 8.86636 6.95703C9.40411 6.95827 9.81824 7.4342 9.81824 8.15985Z" stroke="#01825C" stroke-width="0.8" stroke-miterlimit="10" stroke-linecap="round" stroke-linejoin="round"/>
<path d="M8.90943 10.661C8.37643 10.6451 7.86287 10.4572 7.44538 10.1255C7.02788 9.79376 6.72881 9.33594 6.5928 8.82033C6.43439 8.20933 6.51567 7.56088 6.81999 7.00788C7.1243 6.45487 7.6286 6.0392 8.22953 5.84606C8.54106 5.74669 8.86926 5.7103 9.19499 5.73901C9.52072 5.76772 9.83748 5.86095 10.1268 6.01328C10.4162 6.1656 10.6723 6.37398 10.8804 6.62626C11.0884 6.87855 11.2441 7.1697 11.3386 7.48277C11.4632 7.96696 11.4196 8.47913 11.2149 8.9353C11.151 9.1131 11.0347 9.26734 10.8813 9.37769C10.7279 9.48803 10.5447 9.5493 10.3558 9.5534C10.2043 9.54168 10.0633 9.47157 9.96249 9.35786C9.8617 9.24416 9.80902 9.09576 9.81557 8.94396L9.82669 6.78062" stroke="#01825C" stroke-width="0.8" stroke-miterlimit="10" stroke-linecap="round" stroke-linejoin="round"/>
<path d="M11.3385 7.48242C11.4631 7.96661 11.4195 8.47878 11.2148 8.93495" stroke="#01825C" stroke-width="0.8" stroke-miterlimit="10" stroke-linecap="round" stroke-linejoin="round"/>
</svg>
