<svg width="15" height="16" viewBox="0 0 15 16" fill="none" xmlns="http://www.w3.org/2000/svg">
<g clip-path="url(#clip0_35_10595)">
<path d="M0.77523 15.5C0.577643 15.5 0.380056 15.4249 0.229935 15.2736C-0.0714367 14.9723 -0.0714367 14.4837 0.229935 14.1823L13.6862 0.726029C13.9876 0.424657 14.4762 0.424657 14.7775 0.726029C15.0789 1.0274 15.0789 1.516 14.7775 1.81756L1.32147 15.2736C1.17022 15.4239 0.972629 15.5 0.77523 15.5Z" fill="white"/>
<path d="M14.2324 15.5C14.0348 15.5 13.8374 15.4249 13.6871 15.2736L0.229935 1.81756C-0.0714367 1.516 -0.0714367 1.0274 0.229935 0.726029C0.531307 0.424657 1.01991 0.424657 1.32147 0.726029L14.7775 14.1823C15.0789 14.4837 15.0789 14.9723 14.7775 15.2736C14.6263 15.4239 14.4289 15.5 14.2324 15.5Z" fill="white"/>
</g>
<defs>
<clipPath id="clip0_35_10595">
<rect width="15" height="15" fill="white" transform="translate(0 0.5)"/>
</clipPath>
</defs>
</svg>
