<svg width="18" height="18" viewBox="0 0 18 18" fill="none" xmlns="http://www.w3.org/2000/svg">
<g clip-path="url(#clip0_1061_7144)">
<path d="M10.5176 6.04688H3.41602" stroke="#01825C" stroke-width="0.7" stroke-miterlimit="10" stroke-linecap="round" stroke-linejoin="round"/>
<path d="M5.75978 8.01562H3.41602" stroke="#01825C" stroke-width="0.7" stroke-miterlimit="10" stroke-linecap="round" stroke-linejoin="round"/>
<path d="M10.5186 8.01562H7.9082" stroke="#01825C" stroke-width="0.7" stroke-miterlimit="10" stroke-linecap="round" stroke-linejoin="round"/>
<path d="M10.5176 4.07812H3.41602" stroke="#01825C" stroke-width="0.7" stroke-miterlimit="10" stroke-linecap="round" stroke-linejoin="round"/>
<path d="M10.5176 9.98438H3.41602" stroke="#01825C" stroke-width="0.7" stroke-miterlimit="10" stroke-linecap="round" stroke-linejoin="round"/>
<path d="M5.22656 11.9531H3.41602" stroke="#01825C" stroke-width="0.7" stroke-miterlimit="10" stroke-linecap="round" stroke-linejoin="round"/>
<path d="M9.00586 11.9531H6.80859" stroke="#01825C" stroke-width="0.7" stroke-miterlimit="10" stroke-linecap="round" stroke-linejoin="round"/>
<path d="M6.50977 13.9219H3.41602" stroke="#01825C" stroke-width="0.7" stroke-miterlimit="10" stroke-linecap="round" stroke-linejoin="round"/>
<mask id="mask0_1061_7144" style="mask-type:luminance" maskUnits="userSpaceOnUse" x="0" y="0" width="18" height="18">
<path d="M0 1.90735e-06H18V18H0V1.90735e-06Z" fill="white"/>
</mask>
<g mask="url(#mask0_1061_7144)">
<path d="M13.5762 1.75781V0.351562H0.357422V17.6484H13.5762V12.6562" stroke="#01825C" stroke-width="0.7" stroke-miterlimit="10" stroke-linecap="round" stroke-linejoin="round"/>
</g>
<path d="M13.5762 8.01562V4.92188" stroke="#01825C" stroke-width="0.7" stroke-miterlimit="10" stroke-linecap="round" stroke-linejoin="round"/>
<mask id="mask1_1061_7144" style="mask-type:luminance" maskUnits="userSpaceOnUse" x="0" y="0" width="18" height="18">
<path d="M0 1.90735e-06H18V18H0V1.90735e-06Z" fill="white"/>
</mask>
<g mask="url(#mask1_1061_7144)">
<path d="M17.1146 6.48535L15.166 5.36035L15.543 4.70739C15.8537 4.16933 16.5417 3.98497 17.0798 4.29564C17.6178 4.60629 17.8022 5.29433 17.4916 5.83239L17.1146 6.48535Z" stroke="#01825C" stroke-width="0.7" stroke-miterlimit="10" stroke-linecap="round" stroke-linejoin="round"/>
<path d="M15.1663 5.36084L9.66908 14.8823L9.37109 17.6484L11.6176 16.0073L17.1149 6.48584L15.1663 5.36084Z" stroke="#01825C" stroke-width="0.7" stroke-miterlimit="10" stroke-linecap="round" stroke-linejoin="round"/>
<path d="M9.81445 14.9658L11.4738 15.9238" stroke="#01825C" stroke-width="0.7" stroke-miterlimit="10" stroke-linecap="round" stroke-linejoin="round"/>
</g>
</g>
<defs>
<clipPath id="clip0_1061_7144">
<rect width="18" height="18" fill="white"/>
</clipPath>
</defs>
</svg>
