<svg width="15" height="15" viewBox="0 0 15 15" fill="none" xmlns="http://www.w3.org/2000/svg">
<path d="M12.0056 1.11109V1.16109H12.0556H12.8707C13.9785 1.16109 14.8759 2.03191 14.8759 3.09999V13.0111C14.8759 14.0792 13.9785 14.95 12.8707 14.95H2.05519C0.947453 14.95 0.05 14.0792 0.05 13.0111V3.09999C0.05 2.03191 0.947453 1.16109 2.05519 1.16109H2.87037H2.92037V1.11109V0.555545C2.92037 0.279133 3.15474 0.05 3.44443 0.05C3.73412 0.05 3.96854 0.279138 3.96854 0.555545V1.11109V1.16109H4.01854H10.9074H10.9574V1.11109V0.555545C10.9574 0.279133 11.1918 0.05 11.4815 0.05C11.7712 0.05 12.0056 0.279138 12.0056 0.555545V1.11109ZM2.92037 2.22223V2.17223H2.87037H2.05519C1.52971 2.17223 1.09817 2.58752 1.09817 3.09999V4.72223V4.77223H1.14817H13.7777H13.8277V4.72223V3.09999C13.8277 2.58752 13.3962 2.17223 12.8707 2.17223H12.0555H12.0055V2.22223V2.77777C12.0055 3.05418 11.7711 3.28332 11.4815 3.28332C11.1918 3.28332 10.9574 3.05418 10.9574 2.77777V2.22223V2.17223H10.9074H4.01849H3.96849V2.22223V2.77777C3.96849 3.05418 3.73412 3.28332 3.44443 3.28332C3.15474 3.28332 2.92037 3.05418 2.92037 2.77777V2.22223ZM1.14817 5.78332H1.09817V5.83332V13.0111C1.09817 13.5236 1.52971 13.9389 2.05519 13.9389H12.8708C13.3963 13.9389 13.8278 13.5236 13.8278 13.0111V5.83332V5.78332H13.7778H1.14817Z" fill="#828385" stroke="white" stroke-width="0.1"/>
</svg>
