<svg width="18" height="18" viewBox="0 0 18 18" fill="none" xmlns="http://www.w3.org/2000/svg">
<path d="M11.4821 6.52148C11.2493 6.52148 11.0605 6.71019 11.0605 6.94303V14.9102C11.0605 15.1429 11.2493 15.3318 11.4821 15.3318C11.7149 15.3318 11.9036 15.1429 11.9036 14.9102V6.94303C11.9036 6.71019 11.7149 6.52148 11.4821 6.52148Z" fill="#C11426"/>
<path d="M6.50748 6.52148C6.27464 6.52148 6.08594 6.71019 6.08594 6.94303V14.9102C6.08594 15.1429 6.27464 15.3318 6.50748 15.3318C6.74032 15.3318 6.92903 15.1429 6.92903 14.9102V6.94303C6.92903 6.71019 6.74032 6.52148 6.50748 6.52148Z" fill="#C11426"/>
<path d="M2.8828 5.35877V15.7447C2.8828 16.3586 3.1079 16.9351 3.50112 17.3487C3.89253 17.7635 4.43725 17.999 5.00732 18H12.9831C13.5533 17.999 14.098 17.7635 14.4893 17.3487C14.8825 16.9351 15.1076 16.3586 15.1076 15.7447V5.35877C15.8893 5.15129 16.3958 4.39614 16.2912 3.59405C16.1865 2.79213 15.5033 2.19225 14.6944 2.19209H12.5362V1.66516C12.5386 1.22204 12.3634 0.796544 12.0497 0.483514C11.7361 0.170649 11.3099 -0.00356726 10.8668 5.53875e-05H7.1236C6.68049 -0.00356726 6.25433 0.170649 5.94065 0.483514C5.62696 0.796544 5.45175 1.22204 5.45422 1.66516V2.19209H3.29595C2.48711 2.19225 1.80391 2.79213 1.69918 3.59405C1.59462 4.39614 2.10113 5.15129 2.8828 5.35877ZM12.9831 17.1569H5.00732C4.28658 17.1569 3.72589 16.5378 3.72589 15.7447V5.39582H14.2645V15.7447C14.2645 16.5378 13.7038 17.1569 12.9831 17.1569ZM6.29731 1.66516C6.29451 1.44566 6.3808 1.23439 6.53657 1.07944C6.69218 0.924489 6.90394 0.839357 7.1236 0.843144H10.8668C11.0865 0.839357 11.2982 0.924489 11.4538 1.07944C11.6096 1.23423 11.6959 1.44566 11.6931 1.66516V2.19209H6.29731V1.66516ZM3.29595 3.03517H14.6944C15.1135 3.03517 15.4532 3.37488 15.4532 3.79395C15.4532 4.21303 15.1135 4.55273 14.6944 4.55273H3.29595C2.87687 4.55273 2.53717 4.21303 2.53717 3.79395C2.53717 3.37488 2.87687 3.03517 3.29595 3.03517Z" fill="#C11426"/>
<path d="M8.99576 6.52148C8.76293 6.52148 8.57422 6.71019 8.57422 6.94303V14.9102C8.57422 15.1429 8.76293 15.3318 8.99576 15.3318C9.2286 15.3318 9.41731 15.1429 9.41731 14.9102V6.94303C9.41731 6.71019 9.2286 6.52148 8.99576 6.52148Z" fill="#C11426"/>
</svg>
