<svg width="18" height="20" viewBox="0 0 18 20" fill="none" xmlns="http://www.w3.org/2000/svg">
<path d="M12.0104 3.29008L9.56279 0.888155C9.39847 0.739524 9.1848 0.657227 8.96323 0.657227C8.74166 0.657227 8.52799 0.739524 8.36368 0.888155L5.91602 3.29008" stroke="#01825C" stroke-width="0.8" stroke-miterlimit="10" stroke-linecap="round" stroke-linejoin="round"/>
<path d="M16.6587 7.85059L15.5078 8.99777" stroke="#01825C" stroke-width="0.8" stroke-miterlimit="10" stroke-linecap="round" stroke-linejoin="round"/>
<path d="M10.3496 14.1475L16.9286 17.7633" stroke="#01825C" stroke-width="0.8" stroke-miterlimit="10" stroke-linecap="round" stroke-linejoin="round"/>
<path d="M2.42186 8.99289L1.27344 7.8457" stroke="#01825C" stroke-width="0.8" stroke-miterlimit="10" stroke-linecap="round" stroke-linejoin="round"/>
<path d="M7.57902 14.1475L1 17.7633" stroke="#01825C" stroke-width="0.8" stroke-miterlimit="10" stroke-linecap="round" stroke-linejoin="round"/>
<path d="M13.1055 18.657H16.0365C16.2735 18.657 16.5009 18.5628 16.6685 18.3952C16.8361 18.2276 16.9303 18.0002 16.9303 17.7632V8.49175C16.9304 8.37139 16.9065 8.25222 16.86 8.1412C16.8135 8.03019 16.7454 7.92955 16.6595 7.8452L15.5111 6.71777" stroke="#01825C" stroke-width="0.8" stroke-miterlimit="10" stroke-linecap="round" stroke-linejoin="round"/>
<path d="M1 12.7803V17.7634C1 18.0004 1.09416 18.2277 1.26178 18.3954C1.42939 18.563 1.65673 18.6571 1.89377 18.6571H11.9218" stroke="#01825C" stroke-width="0.8" stroke-miterlimit="10" stroke-linecap="round" stroke-linejoin="round"/>
<path d="M2.42111 6.72266L1.27268 7.85007C1.18688 7.93445 1.11876 8.03509 1.07227 8.14609C1.02579 8.2571 1.00188 8.37625 1.00195 8.4966V11.5957" stroke="#01825C" stroke-width="0.8" stroke-miterlimit="10" stroke-linecap="round" stroke-linejoin="round"/>
<path d="M15.5095 4.83802V4.19396C15.5095 3.95397 15.4142 3.7238 15.2445 3.5541C15.0747 3.3844 14.8446 3.28906 14.6046 3.28906H3.32676C3.08677 3.28906 2.85664 3.3844 2.68694 3.5541C2.51723 3.7238 2.42188 3.95397 2.42188 4.19396V8.99534L7.58176 14.1453L8.53611 13.6212C8.66851 13.5478 8.81741 13.5093 8.96879 13.5093C9.12016 13.5093 9.26902 13.5478 9.40142 13.6212L10.3558 14.1453L15.5157 8.99534V5.99386" stroke="#01825C" stroke-width="0.8" stroke-miterlimit="10" stroke-linecap="round" stroke-linejoin="round"/>
<path d="M9.81824 7.81707C9.85444 8.11486 9.77205 8.41494 9.58885 8.65249C9.40566 8.89003 9.13637 9.04599 8.83916 9.08665C8.53988 9.04943 8.26709 8.89647 8.07923 8.66055C7.89137 8.42462 7.80339 8.1245 7.83414 7.82449C7.82164 7.67709 7.8385 7.52867 7.88374 7.38783C7.92898 7.24699 8.00169 7.11652 8.09769 7.00396C8.19369 6.89141 8.31105 6.79902 8.44299 6.73213C8.57494 6.66523 8.71883 6.62517 8.86636 6.61426C9.40411 6.61549 9.81824 7.09143 9.81824 7.81707Z" stroke="#01825C" stroke-width="0.8" stroke-miterlimit="10" stroke-linecap="round" stroke-linejoin="round"/>
<path d="M8.90943 10.3183C8.37643 10.3023 7.86287 10.1144 7.44538 9.78271C7.02788 9.45099 6.72881 8.99316 6.5928 8.47756C6.43439 7.86655 6.51567 7.21811 6.81999 6.6651C7.1243 6.1121 7.6286 5.69643 8.22953 5.50328C8.54106 5.40392 8.86926 5.36753 9.19499 5.39624C9.52072 5.42495 9.83748 5.51818 10.1268 5.6705C10.4162 5.82283 10.6723 6.0312 10.8804 6.28349C11.0884 6.53577 11.2441 6.82692 11.3386 7.13999C11.4632 7.62418 11.4196 8.13636 11.2149 8.59253C11.151 8.77033 11.0347 8.92457 10.8813 9.03492C10.7279 9.14526 10.5447 9.20652 10.3558 9.21062C10.2043 9.1989 10.0633 9.12879 9.96249 9.01509C9.8617 8.90139 9.80902 8.75299 9.81557 8.60118L9.82669 6.43784" stroke="#01825C" stroke-width="0.8" stroke-miterlimit="10" stroke-linecap="round" stroke-linejoin="round"/>
<path d="M11.3385 7.13965C11.4631 7.62384 11.4195 8.13601 11.2148 8.59218" stroke="#01825C" stroke-width="0.8" stroke-miterlimit="10" stroke-linecap="round" stroke-linejoin="round"/>
</svg>
