<svg width="24" height="24" viewBox="0 0 24 24" fill="none" xmlns="http://www.w3.org/2000/svg">
<g clip-path="url(#clip0_35_5790)">
<g clip-path="url(#clip1_35_5790)">
<path d="M3.59375 6.34987H12.6338C12.9062 7.59003 14.0137 8.52106 15.3345 8.52106C16.6553 8.52106 17.7628 7.59006 18.0353 6.34987H21.4062C21.7341 6.34987 22 6.08402 22 5.75612C22 5.42822 21.7341 5.16237 21.4062 5.16237H18.035C17.762 3.92284 16.653 2.99121 15.3345 2.99121C14.0154 2.99121 12.9069 3.92269 12.634 5.16237H3.59375C3.26585 5.16237 3 5.42822 3 5.75612C3 6.08402 3.26585 6.34987 3.59375 6.34987ZM13.7572 5.75768C13.7572 5.75556 13.7572 5.75341 13.7572 5.75129C13.7598 4.88416 14.4674 4.17875 15.3345 4.17875C16.2005 4.17875 16.9081 4.8832 16.9118 5.74992L16.9119 5.75864C16.9106 6.62726 16.2035 7.3336 15.3345 7.3336C14.4659 7.3336 13.7591 6.62797 13.7571 5.75987L13.7572 5.75768ZM21.4062 18.6509H18.035C17.762 17.4114 16.653 16.4798 15.3345 16.4798C14.0154 16.4798 12.9069 17.4113 12.634 18.6509H3.59375C3.26585 18.6509 3 18.9167 3 19.2447C3 19.5726 3.26585 19.8384 3.59375 19.8384H12.6338C12.9062 21.0786 14.0137 22.0096 15.3345 22.0096C16.6553 22.0096 17.7628 21.0786 18.0353 19.8384H21.4062C21.7341 19.8384 22 19.5726 22 19.2447C22 18.9167 21.7341 18.6509 21.4062 18.6509ZM15.3345 20.8221C14.4659 20.8221 13.7591 20.1165 13.7571 19.2484L13.7572 19.2462C13.7572 19.2441 13.7572 19.242 13.7572 19.2398C13.7598 18.3727 14.4674 17.6673 15.3345 17.6673C16.2005 17.6673 16.9081 18.3717 16.9118 19.2384L16.9119 19.2471C16.9107 20.1159 16.2036 20.8221 15.3345 20.8221ZM21.4062 11.9067H12.3662C12.0938 10.6665 10.9863 9.73551 9.66547 9.73551C8.34468 9.73551 7.23719 10.6665 6.96473 11.9067H3.59375C3.26585 11.9067 3 12.1725 3 12.5004C3 12.8283 3.26585 13.0942 3.59375 13.0942H6.96503C7.23804 14.3337 8.34702 15.2653 9.66547 15.2653C10.9846 15.2653 12.0931 14.3338 12.366 13.0942H21.4062C21.7341 13.0942 22 12.8283 22 12.5004C22 12.1725 21.7341 11.9067 21.4062 11.9067ZM11.2428 12.4989C11.2428 12.501 11.2428 12.5031 11.2428 12.5052C11.2402 13.3724 10.5326 14.0778 9.66547 14.0778C8.79953 14.0778 8.09193 13.3733 8.08818 12.5066L8.08807 12.498C8.08937 11.6292 8.79648 10.923 9.66547 10.923C10.5341 10.923 11.2409 11.6286 11.2429 12.4967L11.2428 12.4989Z" fill="#49AC43"/>
</g>
</g>
<defs>
<clipPath id="clip0_35_5790">
<rect width="24" height="24" fill="white"/>
</clipPath>
<clipPath id="clip1_35_5790">
<rect width="19" height="19" fill="white" transform="translate(3 3)"/>
</clipPath>
</defs>
</svg>
