<svg width="18" height="19" viewBox="0 0 23 25" fill="none" xmlns="http://www.w3.org/2000/svg">
<path fill-rule="evenodd" clip-rule="evenodd" d="M18.0556 12.7596C18.0371 12.7919 18.0075 12.844 15.6644 16.5052C18.2023 16.894 22.4924 18.0486 22.4924 20.5966C22.4924 23.5067 16.774 24.9968 11.4928 24.9968C8.94889 25.0393 6.41532 24.6622 3.99408 23.8805C1.10571 22.8493 0.5 21.526 0.5 20.5983C0.5 18.0503 4.79502 16.894 7.3213 16.5052L4.95187 12.7975C4.2051 11.7665 3.713 10.5733 3.51579 9.31557C3.31858 8.05786 3.42188 6.77133 3.81723 5.5612C4.21258 4.35106 4.88875 3.25169 5.79046 2.35299C6.69216 1.45429 7.79378 0.781791 9.00523 0.390483C10.2167 -0.000824541 11.5035 -0.0998245 12.7606 0.10158C14.0176 0.302984 15.2092 0.799073 16.2377 1.54927C17.2663 2.29948 18.1026 3.28248 18.6784 4.41791C19.2542 5.55333 19.5531 6.80892 19.5506 8.082C19.5536 9.75026 19.0356 11.3778 18.0689 12.7374C18.0605 12.7509 18.0581 12.755 18.0556 12.7596ZM6.15327 11.9532L6.17663 11.9899L11.4945 20.333C16.8112 11.9918 16.8413 11.9391 16.8791 11.8925C16.8818 11.8892 16.8845 11.886 16.8891 11.8798C17.5879 10.8884 17.9999 9.72367 18.0799 8.51346C18.16 7.30325 17.905 6.09439 17.3429 5.01963C16.7809 3.94487 15.9335 3.04578 14.8939 2.42111C13.8543 1.79644 12.6627 1.47035 11.4498 1.47864C10.237 1.48694 9.04992 1.8293 8.01895 2.46813C6.98797 3.10696 6.15299 4.01755 5.60569 5.0999C5.05839 6.18224 4.81995 7.39448 4.91655 8.60348C5.01315 9.81248 5.44105 10.9715 6.15327 11.9532ZM1.96004 20.5966C1.96004 21.8347 5.72444 23.53 11.4928 23.53C17.2946 23.53 21.0256 21.8264 21.024 20.5966C21.024 19.764 19.09 18.3957 14.8034 17.8634L12.1102 22.09C12.0438 22.1937 11.9524 22.279 11.8443 22.3381C11.7363 22.3972 11.6151 22.4282 11.492 22.4282C11.3689 22.4282 11.2477 22.3972 11.1397 22.3381C11.0316 22.279 10.9402 22.1937 10.8738 22.09L8.18064 17.8634C3.89396 18.3974 1.96004 19.7623 1.96004 20.5966ZM9.45375 5.03468C10.0574 4.63131 10.7672 4.41602 11.4932 4.41602C12.4668 4.41602 13.4005 4.80278 14.089 5.49121C14.7774 6.17965 15.1642 7.11337 15.1642 8.08697C15.1642 8.81302 14.9489 9.52276 14.5455 10.1264C14.1421 10.7301 13.5688 11.2006 12.898 11.4785C12.2273 11.7563 11.4892 11.829 10.7771 11.6874C10.065 11.5457 9.41086 11.1961 8.89746 10.6827C8.38407 10.1693 8.03445 9.51523 7.8928 8.80314C7.75116 8.09104 7.82386 7.35294 8.1017 6.68216C8.37955 6.01138 8.85006 5.43805 9.45375 5.03468ZM10.2716 9.91235C10.6332 10.1539 11.0583 10.2829 11.4932 10.2829C12.0765 10.282 12.6356 10.0498 13.0479 9.63716C13.4602 9.22456 13.692 8.66526 13.6925 8.08197C13.6921 7.64707 13.5629 7.22203 13.321 6.86059C13.0792 6.49915 12.7356 6.21753 12.3337 6.05133C11.9318 5.88513 11.4897 5.84181 11.0632 5.92686C10.6367 6.01191 10.2449 6.22149 9.93754 6.52913C9.63014 6.83676 9.42085 7.22863 9.33612 7.6552C9.2514 8.08176 9.29505 8.52387 9.46155 8.92563C9.62806 9.32739 9.90994 9.67077 10.2716 9.91235Z" fill="#01825C"/>
</svg>
