<svg width="16" height="18" viewBox="0 0 16 18" fill="none" xmlns="http://www.w3.org/2000/svg">
<path d="M13.7164 5.81904C13.7186 7.02018 13.3456 8.19202 12.6496 9.17096C12.6435 9.18066 12.6419 9.18363 12.64 9.18688C12.6268 9.21006 12.6057 9.24722 10.9478 11.8377C10.9405 11.8365 10.9332 11.8354 10.9259 11.8343L10.9184 11.8837L10.9605 11.9107C10.9644 11.9045 10.9684 11.8983 10.9724 11.8921C12.8058 12.18 15.8345 13.013 15.8345 14.8296C15.8345 16.9248 11.7173 17.9977 7.91485 17.9977C6.0832 18.0283 4.25903 17.7568 2.51574 17.1939L13.7164 5.81904ZM13.7164 5.81904C13.7182 4.90243 13.503 3.9984 13.0885 3.18089C12.6739 2.36339 12.0717 1.65562 11.3312 1.11548C10.5906 0.575332 9.7327 0.218149 8.82762 0.0731375C7.92255 -0.0718736 6.99601 -0.000593658 6.12376 0.281148C5.25152 0.56289 4.45835 1.04709 3.80913 1.69415C3.1599 2.34122 2.67305 3.13276 2.3884 4.00406C2.10375 4.87536 2.02938 5.80166 2.17137 6.70721C2.31336 7.61276 2.66767 8.47185 3.20534 9.21421L13.7164 5.81904ZM5.55524 12.8081L5.57223 12.8348L7.51123 15.8779L5.55524 12.8081ZM5.55524 12.8081L5.52388 12.812L5.55524 12.8081ZM10.2732 12.8082L10.3046 12.812C11.8516 13.0041 12.9773 13.3474 13.7177 13.7199C14.0878 13.906 14.3634 14.1003 14.5472 14.2881C14.73 14.4749 14.8272 14.6608 14.8273 14.8295C14.8273 14.8295 14.8273 14.8295 14.8273 14.8296H14.7773L10.2732 12.8082ZM10.2732 12.8082L10.2563 12.8348M10.2732 12.8082L10.2563 12.8348M10.2563 12.8348L8.31726 15.8779L10.2563 12.8348ZM10.8762 11.8568L10.8348 11.9215L10.9108 11.9331C11.8223 12.0728 13.046 12.3497 14.0403 12.8189C15.0387 13.29 15.7845 13.9441 15.7845 14.8296C15.7845 15.3351 15.5367 15.7823 15.0986 16.1711C14.6599 16.5604 14.033 16.8883 13.284 17.1522C11.7862 17.6799 9.81227 17.9477 7.91485 17.9477L7.91401 17.9477C6.08812 17.9782 4.26968 17.7076 2.53184 17.1466C1.49728 16.7771 0.876853 16.3572 0.515354 15.9512C0.154691 15.546 0.05 15.1528 0.05 14.8308C0.05 13.9453 0.796705 13.2909 1.79492 12.8195C2.78914 12.35 4.0116 12.0728 4.91894 11.9331L4.9948 11.9215L4.95347 11.8568L3.24748 9.18728L3.24755 9.18724L3.24584 9.18488C2.7128 8.44891 2.36153 7.59722 2.22076 6.69947C2.08 5.80171 2.15373 4.88338 2.43593 4.01959C2.71813 3.15579 3.20079 2.37106 3.84442 1.72957C4.48806 1.08808 5.2744 0.608043 6.13913 0.328727C7.00387 0.0494115 7.92243 -0.0212548 8.81971 0.122508C9.717 0.26627 10.5675 0.620379 11.3017 1.15587C12.0359 1.69137 12.6329 2.39304 13.0439 3.20351C13.4549 4.01398 13.6682 4.91022 13.6664 5.81894V5.81913C13.6686 7.00986 13.2988 8.17154 12.6088 9.14198L12.6087 9.14193L12.6071 9.14457C12.6011 9.15423 12.5994 9.15716 12.5976 9.16037C12.5845 9.18338 12.5635 9.22047 10.8762 11.8568ZM4.04499 8.65957L4.04501 8.6596L7.87388 14.6666L7.91605 14.7328L7.95821 14.6666C9.09751 12.8792 9.89964 11.6204 10.4651 10.733C10.9169 10.024 11.2176 9.55205 11.4185 9.23704C11.8181 8.61051 11.8224 8.6053 11.8341 8.59114C11.8357 8.58924 11.8374 8.58718 11.8402 8.58343L11.8402 8.58345L11.8411 8.58224C12.3494 7.86095 12.6492 7.01351 12.7074 6.13299C12.7657 5.25247 12.5802 4.37293 12.1712 3.59096C11.7623 2.80899 11.1458 2.15484 10.3894 1.70034C9.63297 1.24585 8.76596 1.00859 7.88353 1.01462C7.00111 1.02066 6.13742 1.26975 5.38731 1.73455C4.63719 2.19935 4.02968 2.86187 3.63148 3.64936C3.23327 4.43685 3.05979 5.31885 3.13007 6.19849C3.20032 7.07762 3.51133 7.92042 4.02899 8.63443L4.04499 8.65957ZM7.68456 16.0396C7.61417 16.0011 7.55459 15.9455 7.51129 15.878H8.3172C8.2739 15.9455 8.21432 16.0011 8.14393 16.0396C8.0735 16.0781 7.99452 16.0983 7.91424 16.0983C7.83397 16.0983 7.75499 16.0781 7.68456 16.0396Z" fill="#01825C" stroke="white" stroke-width="0.1"/>
<path d="M7.91457 7.45382L7.91465 7.45382C8.34786 7.45317 8.76312 7.2807 9.06933 6.97425C9.37554 6.66781 9.5477 6.25242 9.54802 5.81921V5.81913C9.54778 5.49612 9.45177 5.18043 9.27213 4.91197C9.0925 4.64352 8.8373 4.43435 8.53881 4.31091C8.24031 4.18746 7.91192 4.15529 7.59514 4.21846C7.27837 4.28163 6.98743 4.4373 6.75911 4.66579C6.53079 4.89428 6.37535 5.18533 6.31242 5.50216C6.24949 5.81898 6.28191 6.14735 6.40558 6.44575C6.52925 6.74415 6.73861 6.99919 7.00721 7.17862C7.2758 7.35805 7.59156 7.45382 7.91457 7.45382ZM6.47393 3.6667C6.90036 3.38177 7.40171 3.22969 7.91457 3.22969C8.6023 3.22969 9.26186 3.50289 9.74816 3.98919C10.2345 4.47548 10.5077 5.13505 10.5077 5.82278C10.5077 6.33564 10.3556 6.83699 10.0706 7.26342C9.78571 7.68985 9.38073 8.02221 8.9069 8.21848C8.43308 8.41474 7.9117 8.46609 7.40869 8.36604C6.90568 8.26598 6.44363 8.01901 6.08098 7.65636C5.71833 7.29372 5.47137 6.83167 5.37131 6.32866C5.27126 5.82565 5.32261 5.30427 5.51887 4.83044C5.71514 4.35662 6.0475 3.95163 6.47393 3.6667Z" fill="#01825C" stroke="white" stroke-width="0.1"/>
</svg>
