<svg width="22" height="21" viewBox="0 0 22 21" fill="none" xmlns="http://www.w3.org/2000/svg">
<path d="M8.917 6.917H2.25C1.91864 6.91647 1.60101 6.78461 1.3667 6.5503C1.13239 6.31599 1.00053 5.99836 1 5.667V1.5C1.00053 1.16864 1.13239 0.851007 1.3667 0.616701C1.60101 0.382395 1.91864 0.250529 2.25 0.25H8.917C9.24836 0.250529 9.56599 0.382395 9.8003 0.616701C10.0346 0.851007 10.1665 1.16864 10.167 1.5V5.667C10.1665 5.99836 10.0346 6.31599 9.8003 6.5503C9.56599 6.78461 9.24836 6.91647 8.917 6.917ZM2.25 1.083C2.1394 1.083 2.03334 1.12693 1.95514 1.20514C1.87693 1.28334 1.833 1.3894 1.833 1.5V5.667C1.833 5.7776 1.87693 5.88366 1.95514 5.96186C2.03334 6.04007 2.1394 6.084 2.25 6.084H8.917C9.0276 6.084 9.13366 6.04007 9.21186 5.96186C9.29007 5.88366 9.334 5.7776 9.334 5.667V1.5C9.334 1.3894 9.29007 1.28334 9.21186 1.20514C9.13366 1.12693 9.0276 1.083 8.917 1.083H2.25Z" fill="#9B9EA9" stroke="#9B9EA9" stroke-width="0.5"/>
<path d="M8.917 20.25H2.25C1.91864 20.2495 1.60101 20.1176 1.3667 19.8833C1.13239 19.649 1.00053 19.3314 1 19V9.83301C1.00053 9.50165 1.13239 9.18401 1.3667 8.94971C1.60101 8.7154 1.91864 8.58354 2.25 8.58301H8.917C9.24836 8.58354 9.56599 8.7154 9.8003 8.94971C10.0346 9.18401 10.1665 9.50165 10.167 9.83301V19C10.1665 19.3314 10.0346 19.649 9.8003 19.8833C9.56599 20.1176 9.24836 20.2495 8.917 20.25ZM2.25 9.41601C2.1394 9.41601 2.03334 9.45994 1.95514 9.53814C1.87693 9.61635 1.833 9.72241 1.833 9.83301V19C1.833 19.0548 1.84379 19.109 1.86474 19.1596C1.8857 19.2102 1.91641 19.2562 1.95514 19.2949C1.99386 19.3336 2.03983 19.3643 2.09042 19.3853C2.14101 19.4062 2.19524 19.417 2.25 19.417H8.917C8.97176 19.417 9.02599 19.4062 9.07658 19.3853C9.12717 19.3643 9.17314 19.3336 9.21186 19.2949C9.25059 19.2562 9.2813 19.2102 9.30226 19.1596C9.32321 19.109 9.334 19.0548 9.334 19V9.83301C9.334 9.72241 9.29007 9.61635 9.21186 9.53814C9.13366 9.45994 9.0276 9.41601 8.917 9.41601H2.25Z" fill="#9B9EA9" stroke="#9B9EA9" stroke-width="0.5"/>
<path d="M19.75 20.25H13.083C12.7516 20.2495 12.434 20.1176 12.1997 19.8833C11.9654 19.649 11.8335 19.3314 11.833 19V14.833C11.8335 14.5016 11.9654 14.184 12.1997 13.9497C12.434 13.7154 12.7516 13.5835 13.083 13.583H19.75C20.0814 13.5835 20.399 13.7154 20.6333 13.9497C20.8676 14.184 20.9995 14.5016 21 14.833V19C20.9995 19.3314 20.8676 19.649 20.6333 19.8833C20.399 20.1176 20.0814 20.2495 19.75 20.25ZM13.083 14.416C13.0282 14.416 12.974 14.4268 12.9234 14.4478C12.8728 14.4687 12.8269 14.4994 12.7881 14.5381C12.7494 14.5769 12.7187 14.6228 12.6978 14.6734C12.6768 14.724 12.666 14.7782 12.666 14.833V19C12.666 19.1106 12.7099 19.2167 12.7881 19.2949C12.8663 19.3731 12.9724 19.417 13.083 19.417H19.75C19.8606 19.417 19.9667 19.3731 20.0449 19.2949C20.1231 19.2167 20.167 19.1106 20.167 19V14.833C20.167 14.7782 20.1562 14.724 20.1353 14.6734C20.1143 14.6228 20.0836 14.5769 20.0449 14.5381C20.0062 14.4994 19.9602 14.4687 19.9096 14.4478C19.859 14.4268 19.8048 14.416 19.75 14.416H13.083Z" fill="#9B9EA9" stroke="#9B9EA9" stroke-width="0.5"/>
<path d="M19.75 11.917H13.083C12.7516 11.9165 12.434 11.7846 12.1997 11.5503C11.9654 11.316 11.8335 10.9984 11.833 10.667V1.5C11.8335 1.16864 11.9654 0.851007 12.1997 0.616701C12.434 0.382395 12.7516 0.250529 13.083 0.25L19.75 0.25C20.0814 0.250529 20.399 0.382395 20.6333 0.616701C20.8676 0.851007 20.9995 1.16864 21 1.5V10.667C20.9995 10.9984 20.8676 11.316 20.6333 11.5503C20.399 11.7846 20.0814 11.9165 19.75 11.917ZM13.083 1.083C12.9724 1.083 12.8663 1.12693 12.7881 1.20514C12.7099 1.28334 12.666 1.3894 12.666 1.5V10.667C12.666 10.7776 12.7099 10.8837 12.7881 10.9619C12.8663 11.0401 12.9724 11.084 13.083 11.084H19.75C19.8606 11.084 19.9667 11.0401 20.0449 10.9619C20.1231 10.8837 20.167 10.7776 20.167 10.667V1.5C20.167 1.3894 20.1231 1.28334 20.0449 1.20514C19.9667 1.12693 19.8606 1.083 19.75 1.083H13.083Z" fill="#9B9EA9" stroke="#9B9EA9" stroke-width="0.5"/>
</svg>
