<svg width="20" height="21" viewBox="0 0 20 21" fill="none" xmlns="http://www.w3.org/2000/svg">
<path d="M7.75001 8.58303C6.92585 8.58303 6.12021 8.33864 5.43495 7.88076C4.74969 7.42288 4.21559 6.77209 3.9002 6.01067C3.58481 5.24925 3.50229 4.4114 3.66308 3.60308C3.82386 2.79476 4.22073 2.05228 4.8035 1.46951C5.38626 0.886746 6.12875 0.489878 6.93707 0.329093C7.74539 0.168308 8.58323 0.250829 9.34465 0.566219C10.1061 0.88161 10.7569 1.4157 11.2147 2.10096C11.6726 2.78622 11.917 3.59187 11.917 4.41603C11.916 5.52086 11.4766 6.58013 10.6954 7.36137C9.91412 8.1426 8.85484 8.58197 7.75001 8.58303ZM7.75001 1.08303C7.09085 1.08303 6.44649 1.27848 5.8984 1.64467C5.35031 2.01086 4.92311 2.53134 4.67081 3.14031C4.41852 3.74928 4.35246 4.41938 4.48098 5.06589C4.6095 5.71241 4.92684 6.30629 5.39287 6.77246C5.8589 7.23863 6.45269 7.55614 7.09916 7.68486C7.74563 7.81358 8.41576 7.74772 9.0248 7.4956C9.63384 7.24349 10.1545 6.81645 10.5208 6.26847C10.8872 5.72049 11.0828 5.07619 11.083 4.41703C11.0822 3.53321 10.7308 2.68581 10.106 2.06076C9.48112 1.43572 8.63382 1.08408 7.75001 1.08303Z" fill="#C11426" stroke="#C11426" stroke-width="0.5"/>
<path d="M7.333 17.75H0.667C0.556405 17.75 0.450339 17.7061 0.372136 17.6279C0.293934 17.5497 0.25 17.4436 0.25 17.333V14C0.251323 13.0058 0.646836 12.0528 1.34981 11.3498C2.05279 10.6468 3.00584 10.2513 4 10.25H9C9.10693 10.2552 9.20775 10.3014 9.28158 10.3789C9.35541 10.4565 9.39659 10.5594 9.39659 10.6665C9.39659 10.7736 9.35541 10.8765 9.28158 10.9541C9.20775 11.0316 9.10693 11.0778 9 11.083H4C3.22661 11.0838 2.48512 11.3914 1.93825 11.9382C1.39138 12.4851 1.08379 13.2266 1.083 14V16.917H7.333C7.38941 16.9142 7.4458 16.923 7.49874 16.9426C7.55168 16.9623 7.60007 16.9926 7.64097 17.0315C7.68187 17.0705 7.71444 17.1173 7.73669 17.1692C7.75894 17.2211 7.77041 17.277 7.77041 17.3335C7.77041 17.39 7.75894 17.4459 7.73669 17.4978C7.71444 17.5497 7.68187 17.5965 7.64097 17.6355C7.60007 17.6744 7.55168 17.7047 7.49874 17.7244C7.4458 17.744 7.38941 17.7528 7.333 17.75Z" fill="#C11426" stroke="#C11426" stroke-width="0.5"/>
<path d="M14.417 16.917C14.005 16.917 13.6023 16.7948 13.2597 16.5659C12.9172 16.337 12.6502 16.0117 12.4925 15.6311C12.3349 15.2505 12.2936 14.8317 12.374 14.4276C12.4544 14.0235 12.6528 13.6524 12.9441 13.3611C13.2354 13.0698 13.6065 12.8714 14.0106 12.791C14.4147 12.7106 14.8335 12.7519 15.2141 12.9095C15.5947 13.0672 15.9201 13.3342 16.1489 13.6767C16.3778 14.0193 16.5 14.422 16.5 14.834C16.4992 15.3862 16.2795 15.9155 15.889 16.306C15.4985 16.6965 14.9692 16.9162 14.417 16.917ZM14.417 13.584C14.1698 13.584 13.9281 13.6573 13.7225 13.7946C13.517 13.932 13.3567 14.1272 13.2621 14.3556C13.1675 14.584 13.1428 14.8354 13.191 15.0778C13.2392 15.3203 13.3583 15.543 13.5331 15.7179C13.7079 15.8927 13.9306 16.0117 14.1731 16.06C14.4156 16.1082 14.6669 16.0834 14.8953 15.9888C15.1237 15.8942 15.319 15.734 15.4563 15.5284C15.5937 15.3229 15.667 15.0812 15.667 14.834C15.6667 14.5024 15.535 14.1846 15.3006 13.95C15.0663 13.7155 14.7485 13.5845 14.417 13.584Z" fill="#C11426" stroke="#C11426" stroke-width="0.5"/>
<path d="M15.0806 20.249H13.7516C13.5446 20.2497 13.3449 20.1731 13.1916 20.0341C13.0382 19.8952 12.9423 19.704 12.9226 19.498L12.8166 18.439C12.562 18.3254 12.3203 18.1849 12.0956 18.02L11.1226 18.459C10.9344 18.5449 10.7209 18.5573 10.5241 18.4938C10.3272 18.4304 10.1612 18.2956 10.0586 18.116L9.39457 16.965C9.29078 16.7862 9.25734 16.5752 9.30079 16.3731C9.34425 16.171 9.46147 15.9923 9.62957 15.872L10.4876 15.255C10.4498 14.9746 10.4498 14.6904 10.4876 14.41L9.62957 13.793C9.46147 13.6727 9.34425 13.494 9.30079 13.2919C9.25734 13.0898 9.29078 12.8788 9.39457 12.7L10.0586 11.549C10.1613 11.3696 10.3274 11.2349 10.5242 11.1715C10.721 11.1081 10.9344 11.1204 11.1226 11.206L12.0956 11.645C12.3203 11.48 12.562 11.3396 12.8166 11.226L12.9226 10.167C12.9425 9.96119 13.0385 9.77022 13.1919 9.6315C13.3452 9.49278 13.5448 9.41628 13.7516 9.417H15.0806C15.2875 9.41631 15.4872 9.49294 15.6406 9.63187C15.7939 9.7708 15.8899 9.962 15.9096 10.168L16.0156 11.227C16.2702 11.3405 16.5119 11.481 16.7366 11.646L17.7096 11.207C17.8979 11.1218 18.1111 11.1098 18.3078 11.1732C18.5044 11.2366 18.6705 11.3709 18.7736 11.55L19.4376 12.701C19.5414 12.8798 19.5748 13.0908 19.5314 13.2929C19.4879 13.495 19.3707 13.6737 19.2026 13.794L18.3436 14.416C18.3814 14.6964 18.3814 14.9806 18.3436 15.261L19.2006 15.878C19.3687 15.9983 19.4859 16.177 19.5294 16.3791C19.5728 16.5812 19.5394 16.7922 19.4356 16.971L18.7726 18.121C18.6698 18.3004 18.5038 18.435 18.307 18.4985C18.1102 18.5619 17.8968 18.5496 17.7086 18.464L16.7356 18.025C16.5109 18.1899 16.2691 18.3304 16.0146 18.444L15.9076 19.504C15.8876 19.7098 15.7916 19.9008 15.6383 20.0395C15.4849 20.1782 15.2853 20.2547 15.0786 20.254L15.0806 20.249ZM12.1546 17.116C12.2526 17.1169 12.3471 17.1523 12.4216 17.216C12.6969 17.4481 13.0106 17.6305 13.3486 17.755C13.4222 17.7819 13.4868 17.829 13.5349 17.8909C13.583 17.9528 13.6127 18.027 13.6206 18.105L13.7526 19.416H15.0816L15.2126 18.107C15.2204 18.029 15.2501 17.9548 15.2982 17.8929C15.3463 17.831 15.4109 17.7839 15.4846 17.757C15.8224 17.6322 16.136 17.4498 16.4116 17.218C16.4716 17.1678 16.5445 17.1356 16.6219 17.125C16.6994 17.1144 16.7783 17.1258 16.8496 17.158L18.0496 17.701L18.7136 16.55L17.6486 15.785C17.5851 15.739 17.5357 15.6761 17.5062 15.6034C17.4767 15.5308 17.4682 15.4513 17.4816 15.374C17.556 15.0178 17.556 14.6501 17.4816 14.294C17.468 14.2167 17.4765 14.1372 17.5061 14.0645C17.5356 13.9918 17.585 13.9289 17.6486 13.883L18.7136 13.118L18.0496 11.967L16.8496 12.51C16.7782 12.5423 16.6991 12.5537 16.6214 12.5431C16.5438 12.5325 16.4707 12.5002 16.4106 12.45C16.1356 12.2174 15.8218 12.0349 15.4836 11.911C15.4099 11.8841 15.3453 11.837 15.2972 11.7751C15.2491 11.7132 15.2194 11.639 15.2116 11.561L15.0806 10.249H13.7516L13.6206 11.558C13.6127 11.636 13.583 11.7102 13.5349 11.7721C13.4868 11.834 13.4222 11.8811 13.3486 11.908C13.0108 12.0328 12.6972 12.2152 12.4216 12.447C12.3617 12.4974 12.2888 12.5297 12.2113 12.5404C12.1337 12.551 12.0548 12.5394 11.9836 12.507L10.7836 11.964L10.1156 13.116L11.1806 13.881C11.2441 13.927 11.2934 13.9899 11.3229 14.0626C11.3525 14.1352 11.361 14.2147 11.3476 14.292C11.2731 14.6481 11.2731 15.0158 11.3476 15.372C11.3611 15.4493 11.3526 15.5288 11.3231 15.6015C11.2936 15.6742 11.2442 15.7371 11.1806 15.783L10.1156 16.548L10.7796 17.699L11.9796 17.157C12.0336 17.1339 12.0918 17.122 12.1506 17.122L12.1546 17.116Z" fill="#C11426" stroke="#C11426" stroke-width="0.5"/>
</svg>
