<svg width="22" height="22" viewBox="0 0 22 22" fill="none" xmlns="http://www.w3.org/2000/svg">
<path d="M1.36472 21H15.8837C15.9762 20.9941 16.0625 20.9519 16.1239 20.8826C16.1854 20.8133 16.2169 20.7225 16.2117 20.63V13.124L20.8607 8.475C20.9259 8.40974 20.9626 8.32126 20.9626 8.229C20.9626 8.13674 20.9259 8.04826 20.8607 7.983L19.0107 6.131C18.9437 6.066 18.8541 6.02964 18.7607 6.02964C18.6674 6.02964 18.5777 6.066 18.5107 6.131L16.2107 8.42V4.889C16.2125 4.84394 16.2053 4.79897 16.1895 4.75673C16.1737 4.71449 16.1497 4.67582 16.1187 4.643L12.6047 1.112C12.574 1.07833 12.5368 1.05109 12.4954 1.03186C12.4541 1.01264 12.4093 1.00181 12.3637 1H1.36372C1.27174 1.00617 1.18591 1.04839 1.12487 1.11748C1.06383 1.18657 1.03251 1.27696 1.03772 1.369V20.63C1.03225 20.7224 1.06357 20.8132 1.12485 20.8825C1.18613 20.9518 1.27238 20.9941 1.36472 21ZM12.4647 13.461L13.5377 14.533L11.9277 15.071L12.4647 13.461ZM14.1797 14.192L12.8057 12.818L17.2197 8.418L18.5877 9.778L14.1797 14.192ZM18.7677 6.869L20.1327 8.23L19.0787 9.286L17.7157 7.923L18.7677 6.869ZM12.7377 2.209L15.0487 4.522H12.7377V2.209ZM1.73772 1.7H12.0377V4.889C12.0358 4.93243 12.0428 4.97579 12.0585 5.01635C12.0741 5.0569 12.098 5.09376 12.1287 5.12459C12.1593 5.15543 12.196 5.17956 12.2365 5.19547C12.277 5.21137 12.3203 5.21871 12.3637 5.217H15.5157V9.117L12.0617 12.574C12.0253 12.6096 11.9982 12.6535 11.9827 12.702L11.4927 14.176H3.98172C3.8889 14.176 3.79987 14.2129 3.73424 14.2785C3.6686 14.3442 3.63172 14.4332 3.63172 14.526C3.63172 14.6188 3.6686 14.7078 3.73424 14.7735C3.79987 14.8391 3.8889 14.876 3.98172 14.876H11.2597L11.0497 15.511C11.0293 15.5716 11.0263 15.6368 11.0412 15.6991C11.056 15.7613 11.0881 15.8181 11.1337 15.863C11.1577 15.887 11.1857 15.92 11.2157 15.92H3.98072C3.8879 15.92 3.79887 15.9569 3.73324 16.0225C3.6676 16.0882 3.63072 16.1772 3.63072 16.27C3.63072 16.3628 3.6676 16.4518 3.73324 16.5175C3.79887 16.5831 3.8879 16.62 3.98072 16.62H13.2377C13.3305 16.62 13.4196 16.5831 13.4852 16.5175C13.5508 16.4518 13.5877 16.3628 13.5877 16.27C13.5877 16.1772 13.5508 16.0882 13.4852 16.0225C13.4196 15.9569 13.3305 15.92 13.2377 15.92H11.5597L14.2937 15.014C14.3418 14.9984 14.3851 14.9709 14.4197 14.934L15.5197 13.834V20.3H1.73772V1.7Z" fill="#9B9EA9" stroke="#9B9EA9" stroke-width="0.3"/>
<path d="M3.98086 13.1336H8.89386C8.98669 13.1336 9.07571 13.0967 9.14135 13.0311C9.20699 12.9654 9.24386 12.8764 9.24386 12.7836C9.24386 12.6908 9.20699 12.6017 9.14135 12.5361C9.07571 12.4705 8.98669 12.4336 8.89386 12.4336H3.98086C3.88804 12.4336 3.79901 12.4705 3.73337 12.5361C3.66773 12.6017 3.63086 12.6908 3.63086 12.7836C3.63086 12.8764 3.66773 12.9654 3.73337 13.0311C3.79901 13.0967 3.88804 13.1336 3.98086 13.1336Z" fill="#9B9EA9" stroke="#9B9EA9" stroke-width="0.3"/>
</svg>
