<svg width="60" height="42" viewBox="0 0 60 42" fill="none" xmlns="http://www.w3.org/2000/svg">
<g clip-path="url(#clip0_1144_12774)">
<mask id="mask0_1144_12774" style="mask-type:luminance" maskUnits="userSpaceOnUse" x="0" y="0" width="60" height="42">
<path d="M60 0H0V42H60V0Z" fill="white"/>
</mask>
<g mask="url(#mask0_1144_12774)">
<path d="M34.795 5.5674L32.4948 9.47374L22.6119 26.259C22.1808 26.9913 21.5705 27.5976 20.8406 28.0183C20.1107 28.4392 19.2862 28.6604 18.4473 28.6604L31.5272 6.44556L32.7732 4.3291L34.795 5.5674Z" fill="#C99700"/>
<path d="M40.9604 0.404602L45.0795 5.13308L34.5326 22.9548L34.9929 3.74674H33.784C31.9073 3.74159 30.0602 4.22181 28.416 5.14236C26.7717 6.06288 25.3844 7.39351 24.384 9.00934L13.8471 26.2588C13.7017 26.4968 13.6215 26.7698 13.6147 27.05C13.608 27.3303 13.6749 27.6071 13.8087 27.8519C13.9425 28.0969 14.1381 28.301 14.3755 28.443C14.6128 28.5853 14.8832 28.66 15.1585 28.66L26.3771 10.2949C27.056 9.19877 27.9624 8.26714 29.0326 7.56533C30.1031 6.86355 31.3113 6.40861 32.5726 6.23246L32.4946 9.4731L32.0351 28.6598H33.244C35.1206 28.6648 36.9677 28.1847 38.612 27.2641C40.2562 26.3437 41.6435 25.013 42.644 23.3972L57.2162 0L40.9604 0.404602ZM40.6509 22.1112C39.4764 24.0086 37.6395 25.3831 35.5097 25.958L48.054 4.7614L46.3855 3.06426L52.7546 2.6761L40.6509 22.1112Z" fill="#C99700"/>
<path d="M0 36.847V32.332H0.55648L1.6426 34.887V32.332H2.31153V36.847H1.78189L0.685107 34.1597V36.847H0Z" fill="#C99700"/>
<path d="M3.19434 36.847V32.332H5.05154V32.9121H4.00289V34.2071H4.83209V34.787H4.00289V36.2762H5.06494V36.8454L3.19434 36.847Z" fill="#C99700"/>
<path d="M5.47363 36.8469L6.36439 34.4513L5.4977 32.333H6.25432L6.82937 33.733L7.3243 32.333H8.03348L7.17743 34.5954L8.09779 36.8469H7.34252L6.72345 35.3333L6.17765 36.8469H5.47363Z" fill="#C99700"/>
<path d="M9.13811 36.8467V32.9398H8.39453V32.334H10.6644V32.9412H9.94495V36.8483L9.13811 36.8467Z" fill="#C99700"/>
<path d="M12.7949 36.847V32.332H14.0709C14.8276 32.332 15.2059 32.7595 15.2059 33.6146C15.2203 33.7815 15.2002 33.9499 15.1469 34.1087C15.0936 34.2674 15.0083 34.4128 14.8963 34.5361C14.6525 34.7445 14.3391 34.8493 14.0214 34.8285H13.6039V36.8461L12.7949 36.847ZM13.6028 34.2525H13.8625C13.9448 34.2627 14.0283 34.2559 14.1078 34.2322C14.1874 34.2085 14.2615 34.1687 14.3254 34.115C14.4215 33.9657 14.4639 33.7874 14.4458 33.6099C14.4474 33.5017 14.442 33.3933 14.4296 33.2858C14.4199 33.2111 14.3943 33.1395 14.3547 33.0758C14.3141 33.0122 14.2517 32.9661 14.1796 32.9464C14.0769 32.9198 13.9711 32.9081 13.8652 32.9114H13.6032L13.6028 34.2525Z" fill="#C99700"/>
<path d="M15.8555 36.8474V32.3324H16.8721C17.0742 32.3292 17.2761 32.3488 17.474 32.3908C17.6314 32.4254 17.7802 32.492 17.9115 32.5868C18.0376 32.6815 18.1342 32.8111 18.1897 32.9601C18.2558 33.1444 18.2871 33.3397 18.2819 33.5357C18.2904 33.7737 18.2479 34.0106 18.1574 34.23C18.0748 34.4096 17.9279 34.5498 17.7467 34.622L18.362 36.8465H17.5514L17.0217 34.7853H16.6634V36.8465L15.8555 36.8474ZM16.6634 34.261H16.8587C17.042 34.2795 17.2252 34.2237 17.3684 34.1058C17.4843 33.9555 17.5386 33.7651 17.5198 33.575C17.536 33.3918 17.4897 33.2087 17.3887 33.0563C17.324 32.9967 17.2476 32.952 17.1646 32.9251C17.0815 32.898 16.9938 32.8894 16.9072 32.8998H16.6637L16.6634 34.261Z" fill="#C99700"/>
<path d="M18.8838 36.847L19.7852 32.332H20.6279L21.5269 36.847H20.7751L20.5959 35.7988H19.8282L19.6463 36.847H18.8838ZM19.9139 35.2625H20.5078L20.2107 33.4078L19.9139 35.2625Z" fill="#C99700"/>
<path d="M23.3735 36.9014C23.2021 36.9044 23.0315 36.8795 22.8679 36.828C22.7344 36.7863 22.611 36.7167 22.5052 36.6239C22.407 36.5329 22.3279 36.4227 22.2726 36.2999C22.2118 36.168 22.1694 36.0285 22.1466 35.8846C22.1212 35.7196 22.1092 35.5525 22.1105 35.3854V33.8104C22.1089 33.6356 22.1214 33.4613 22.148 33.2888C22.1713 33.1429 22.2136 33.0011 22.2739 32.8667C22.3275 32.7443 22.4064 32.635 22.5052 32.5468C22.6115 32.4573 22.7344 32.3907 22.8664 32.3508C23.0308 32.3011 23.2019 32.2776 23.3735 32.2808C23.5661 32.276 23.7584 32.3065 23.9406 32.3706C24.0859 32.4223 24.2146 32.5138 24.3124 32.635C24.4052 32.7552 24.4728 32.8938 24.5104 33.0419C24.5541 33.2197 24.5748 33.4021 24.5719 33.5852V33.9702H23.7932V33.5852C23.8001 33.4326 23.7886 33.2799 23.759 33.1302C23.7372 33.0566 23.6921 32.9925 23.6306 32.9482C23.569 32.9038 23.4946 32.8816 23.419 32.8852H23.3766C23.3164 32.8841 23.2564 32.8925 23.1986 32.9096C23.1512 32.9239 23.1081 32.9507 23.0741 32.9873C23.043 33.0212 23.017 33.0591 22.9964 33.1004C22.9741 33.1501 22.9592 33.2027 22.9524 33.2569C22.9432 33.3159 22.937 33.3755 22.9339 33.4351C22.931 33.4897 22.9297 33.5586 22.9297 33.6419V35.5534C22.9159 35.7473 22.9495 35.942 23.0275 36.1195C23.0648 36.1777 23.117 36.2242 23.1786 36.2538C23.2401 36.2836 23.3086 36.2956 23.3766 36.2881C23.4277 36.2893 23.4786 36.2823 23.5279 36.268C23.5668 36.2565 23.6039 36.2391 23.6375 36.2161C23.6692 36.1926 23.695 36.1619 23.7126 36.1262C23.7555 36.0501 23.7797 35.9648 23.7835 35.8769C23.7886 35.8173 23.7917 35.7665 23.7926 35.7245C23.7935 35.6825 23.7935 35.6252 23.7926 35.5529V35.1501H24.5712V35.5204C24.5728 35.6728 24.5612 35.825 24.5368 35.9754C24.5148 36.1066 24.4746 36.2337 24.4179 36.3536C24.3659 36.4661 24.2917 36.5661 24.1999 36.6476C24.0988 36.7323 23.9817 36.7948 23.8559 36.8314C23.6995 36.8795 23.5368 36.903 23.3735 36.9014Z" fill="#C99700"/>
<path d="M25.7838 36.8467V32.9398H25.04V32.334H27.3098V32.9412H26.5905V36.8483L25.7838 36.8467Z" fill="#C99700"/>
<path d="M27.9072 36.847V32.332H28.7039V36.847H27.9072Z" fill="#C99700"/>
<path d="M30.7965 36.9014C30.6252 36.9043 30.4547 36.8795 30.2909 36.828C30.1576 36.7862 30.034 36.7167 29.9285 36.6239C29.8303 36.5329 29.7512 36.4227 29.6956 36.2998C29.6349 36.168 29.5927 36.0284 29.5698 35.8846C29.5449 35.7195 29.5334 35.5524 29.5354 35.3853V33.8103C29.5338 33.6356 29.5463 33.4612 29.5729 33.2887C29.596 33.1428 29.6385 33.001 29.6987 32.8667C29.7523 32.7443 29.8312 32.635 29.9303 32.5467C30.0365 32.4573 30.1592 32.3907 30.2914 32.3507C30.4558 32.301 30.6267 32.2776 30.7983 32.2807C30.9912 32.2762 31.1832 32.3065 31.3654 32.3706C31.5107 32.4223 31.6394 32.5137 31.7372 32.635C31.8303 32.7551 31.8976 32.8938 31.9354 33.0419C31.9789 33.2196 31.9996 33.4021 31.9969 33.5852V33.9702H31.2183V33.5852C31.2249 33.4326 31.2134 33.2799 31.1838 33.1302C31.1623 33.0566 31.1169 32.9925 31.0554 32.9482C30.9938 32.9037 30.9194 32.8816 30.844 32.8852H30.7989C30.7387 32.8841 30.6789 32.8924 30.6212 32.9096C30.5736 32.9238 30.5307 32.9507 30.4967 32.9873C30.4656 33.0211 30.4394 33.0591 30.4189 33.1004C30.3965 33.1501 30.3816 33.2027 30.3749 33.2569C30.3656 33.3158 30.3592 33.3754 30.356 33.435C30.3532 33.4897 30.3518 33.5586 30.3518 33.6419V35.5533C30.338 35.7473 30.3716 35.9419 30.4496 36.1194C30.4869 36.1777 30.5392 36.224 30.6007 36.2538C30.6623 36.2836 30.7309 36.2956 30.7987 36.2881C30.8498 36.2892 30.9007 36.2822 30.95 36.268C30.9889 36.2565 31.026 36.2391 31.0596 36.2161C31.0914 36.1926 31.1172 36.1619 31.1347 36.1262C31.1776 36.0501 31.2018 35.9647 31.2054 35.8769C31.2107 35.8173 31.2138 35.7663 31.2147 35.7243C31.2156 35.6823 31.2156 35.6251 31.2147 35.5529V35.15H31.9934V35.5204C31.9949 35.6728 31.9834 35.825 31.9589 35.9754C31.9369 36.1066 31.8967 36.2337 31.84 36.3536C31.788 36.466 31.7138 36.5661 31.622 36.6476C31.5209 36.7323 31.4038 36.7948 31.278 36.8314C31.122 36.8793 30.9596 36.903 30.7965 36.9014Z" fill="#C99700"/>
<path d="M32.7734 36.847V32.332H34.6306V32.9121H33.5819V34.2071H34.4112V34.787H33.5819V36.2762H34.6439V36.8454L32.7734 36.847Z" fill="#C99700"/>
<path d="M36.8838 36.847V32.332H38.1596C38.9162 32.332 39.2947 32.7595 39.2947 33.6146C39.3091 33.7815 39.2891 33.9499 39.2358 34.1087C39.1825 34.2674 39.0971 34.4128 38.9851 34.5361C38.7413 34.7445 38.428 34.8493 38.1102 34.8285H37.6929V36.8461L36.8838 36.847ZM37.6916 34.2525H37.9513C38.0336 34.2627 38.1171 34.2559 38.1967 34.2322C38.2762 34.2085 38.3502 34.1687 38.4142 34.115C38.5102 33.9657 38.5527 33.7874 38.5345 33.6099C38.5362 33.5017 38.5309 33.3933 38.5185 33.2858C38.5087 33.2111 38.4831 33.1395 38.4433 33.0758C38.4027 33.0122 38.3402 32.9659 38.268 32.9464C38.1653 32.9198 38.0596 32.9081 37.9536 32.9114H37.6916V34.2525Z" fill="#C99700"/>
<path d="M39.499 36.847L40.4004 32.332H41.243L42.1419 36.847H41.3901L41.211 35.7988H40.443L40.261 36.847H39.499ZM40.529 35.2625H41.123L40.8261 33.4078L40.529 35.2625Z" fill="#C99700"/>
<path d="M42.7969 36.8474V32.3324H43.8135C44.0158 32.3292 44.2175 32.3488 44.4155 32.3908C44.5729 32.4254 44.7218 32.492 44.8529 32.5868C44.9791 32.6815 45.0755 32.8111 45.1311 32.9601C45.1973 33.1444 45.2284 33.3397 45.2233 33.5357C45.232 33.7737 45.1893 34.0106 45.0989 34.2303C45.0162 34.4096 44.8693 34.5498 44.6882 34.622L45.3035 36.8465H44.4929L43.9631 34.7853H43.6049V36.8465L42.7969 36.8474ZM43.6049 34.261H43.8002C43.9835 34.2795 44.1667 34.2237 44.31 34.1058C44.4255 33.9555 44.4798 33.7651 44.4609 33.575C44.4771 33.3918 44.4309 33.2087 44.3298 33.0563C44.2651 32.9967 44.1887 32.952 44.1058 32.9251C44.0227 32.898 43.9349 32.8894 43.8484 32.8998H43.6049V34.261Z" fill="#C99700"/>
<path d="M46.4891 36.8467V32.9398H45.7451V32.334H48.0151V32.9412H47.2953V36.8483L46.4891 36.8467Z" fill="#C99700"/>
<path d="M48.5889 36.847V32.332H49.1453L50.2315 34.887V32.332H50.9004V36.847H50.3709L49.274 34.1597V36.847H48.5889Z" fill="#C99700"/>
<path d="M51.7832 36.847V32.332H53.6405V32.9121H52.5919V34.2071H53.4212V34.787H52.5919V36.2762H53.6539V36.8454L51.7832 36.847Z" fill="#C99700"/>
<path d="M54.3379 36.8474V32.3324H55.3546C55.5566 32.3292 55.7583 32.3488 55.9563 32.3908C56.1137 32.4254 56.2626 32.492 56.3939 32.5868C56.5199 32.6815 56.6166 32.8111 56.6721 32.9601C56.7381 33.1444 56.7694 33.3397 56.7641 33.5357C56.7728 33.7737 56.7303 34.0106 56.6397 34.2303C56.5572 34.4096 56.4101 34.5498 56.229 34.622L56.8443 36.8465H56.0337L55.5041 34.7853H55.1457V36.8465L54.3379 36.8474ZM55.1457 34.261H55.341C55.5243 34.2795 55.7074 34.2237 55.8508 34.1058C55.9666 33.9555 56.0206 33.7651 56.0017 33.575C56.0179 33.3918 55.9717 33.2087 55.8708 33.0563C55.8061 32.9967 55.7297 32.952 55.6466 32.9251C55.5634 32.898 55.4759 32.8894 55.3892 32.8998H55.1457V34.261Z" fill="#C99700"/>
<path d="M58.7138 36.9004C57.9327 36.9004 57.5225 36.4411 57.4834 35.5227L58.187 35.373C58.205 35.97 58.3725 36.2686 58.6898 36.2686C58.7414 36.2729 58.793 36.2645 58.8407 36.2446C58.8885 36.2248 58.9312 36.1938 58.965 36.1541C59.0287 36.0651 59.0605 35.9565 59.0547 35.8465C59.0561 35.7282 59.0332 35.611 58.9876 35.5022C58.9498 35.4089 58.8974 35.3224 58.8325 35.2463C58.753 35.1601 58.6692 35.0783 58.5812 35.0013L57.9965 34.4867C57.841 34.354 57.7114 34.1927 57.6141 34.0114C57.5241 33.819 57.481 33.6077 57.4881 33.3947C57.4794 33.2446 57.5018 33.0942 57.5543 32.9535C57.6065 32.8128 57.6876 32.6848 57.7918 32.5782C58.0216 32.3736 58.3203 32.2675 58.6252 32.2815C58.7712 32.2772 58.917 32.298 59.0561 32.3427C59.1694 32.3786 59.2745 32.4369 59.3656 32.5141C59.4496 32.5895 59.5185 32.6805 59.569 32.7823C59.6227 32.888 59.6636 33 59.6907 33.1159C59.719 33.2425 59.7378 33.3712 59.7467 33.5009L59.0565 33.6409C59.0527 33.5501 59.047 33.471 59.039 33.4038C59.0305 33.3349 59.0165 33.2665 58.9974 33.1999C58.9818 33.1398 58.9558 33.0829 58.921 33.0321C58.8878 32.988 58.8447 32.9528 58.7952 32.93C58.7376 32.9036 58.6745 32.8932 58.6118 32.8998C58.5603 32.9 58.5092 32.9106 58.4618 32.9314C58.4145 32.9524 58.3721 32.9826 58.3367 33.021C58.2701 33.1041 58.2363 33.2093 58.2416 33.3164C58.2367 33.4412 58.2658 33.5652 58.3261 33.6745C58.3987 33.7874 58.4876 33.8888 58.5894 33.9755L59.1672 34.4872C59.2561 34.5682 59.3398 34.6545 59.4185 34.7457C59.4947 34.8351 59.5638 34.9309 59.625 35.0316C59.6912 35.1416 59.7414 35.2608 59.7736 35.3854C59.8081 35.5189 59.8252 35.6562 59.8245 35.7939C59.8303 35.9416 59.8058 36.089 59.7532 36.2268C59.7005 36.3645 59.6203 36.4896 59.5181 36.5944C59.4112 36.698 59.2847 36.7784 59.1467 36.831C59.0085 36.8834 58.8614 36.9071 58.7138 36.9004Z" fill="#C99700"/>
<path d="M20.4848 41.9997C20.4155 41.9969 20.3477 41.9778 20.287 41.9437C20.2262 41.9093 20.1742 41.8612 20.135 41.803L20.1185 41.9678H19.7285L20.0487 38.8623H20.4391L20.3304 39.9263C20.3846 39.8629 20.4512 39.8114 20.526 39.7757C20.6008 39.7398 20.6821 39.7204 20.7648 39.7183C20.8297 39.717 20.894 39.7312 20.9526 39.7597C21.0043 39.7849 21.0478 39.8249 21.0778 39.8748C21.1072 39.924 21.1309 39.9764 21.1486 40.0313C21.1674 40.0914 21.1782 40.1537 21.1809 40.2167C21.1834 40.2682 21.1847 40.3147 21.1847 40.3567V40.398C21.1836 40.4506 21.1799 40.5041 21.1737 40.559L21.1183 41.0872C21.0553 41.6955 20.8441 41.9997 20.4848 41.9997ZM20.4404 41.6867C20.4722 41.6874 20.5038 41.6806 20.5326 41.6673C20.5604 41.6533 20.5841 41.6323 20.6014 41.6063C20.6206 41.5783 20.637 41.5487 20.6502 41.5173C20.6658 41.4776 20.6774 41.436 20.6846 41.3938C20.6945 41.3432 20.7025 41.2965 20.7087 41.2538C20.7149 41.2111 20.7211 41.1567 20.7273 41.0908L20.7827 40.5604C20.7911 40.4606 20.7954 40.3714 20.7954 40.2928C20.7986 40.2262 20.7815 40.16 20.7466 40.1038C20.7293 40.0801 20.7066 40.0616 20.6804 40.0491C20.6542 40.0369 20.6253 40.0318 20.5966 40.0338C20.4893 40.0399 20.3871 40.0821 20.306 40.1537L20.1567 41.5867C20.2366 41.6533 20.3372 41.6887 20.4404 41.6867Z" fill="#C99700"/>
<path d="M22.3695 41.9997C22.2642 42.0036 22.1594 41.9844 22.062 41.9433C21.986 41.9094 21.9232 41.8509 21.8835 41.7769C21.8411 41.6904 21.816 41.596 21.8099 41.4996C21.8061 41.4573 21.8049 41.4147 21.8062 41.3722C21.8066 41.2864 21.8115 41.2008 21.821 41.1157L21.8742 40.6024C21.8861 40.4708 21.9098 40.3403 21.9451 40.2129C21.9726 40.1147 22.0173 40.0221 22.0768 39.9397C22.1316 39.8647 22.2058 39.8067 22.2911 39.7719C22.3908 39.734 22.4966 39.7159 22.6031 39.7184C22.712 39.7137 22.8202 39.7358 22.9188 39.7832C22.9951 39.8232 23.0542 39.89 23.0853 39.9715C23.1186 40.0691 23.1366 40.1716 23.1386 40.275C23.1397 40.2983 23.1402 40.3215 23.1402 40.345C23.1395 40.4577 23.1322 40.5704 23.1182 40.6824L23.098 40.8639H22.2382L22.2068 41.1636C22.2032 41.206 22.2004 41.2367 22.1986 41.2552C22.1967 41.274 22.1946 41.3013 22.192 41.3374C22.1896 41.3724 22.1886 41.4002 22.1893 41.4169C22.19 41.4339 22.1893 41.4569 22.191 41.4869C22.1906 41.5088 22.1933 41.5307 22.1993 41.5517C22.2041 41.5655 22.2099 41.5827 22.2168 41.6032C22.2217 41.6206 22.2308 41.6364 22.2435 41.649C22.2546 41.6588 22.2673 41.6694 22.2815 41.6798C22.2964 41.6908 22.3137 41.6983 22.332 41.7014C22.354 41.7055 22.3762 41.7073 22.3984 41.7071C22.4353 41.71 22.4724 41.703 22.5062 41.687C22.5397 41.671 22.5686 41.6463 22.59 41.6154C22.6377 41.5298 22.6648 41.4339 22.6691 41.3354L22.684 41.1986H23.0648L23.054 41.2884C23.0048 41.7626 22.7766 41.9997 22.3695 41.9997ZM22.2608 40.6474H22.7393L22.7577 40.4469C22.7646 40.3845 22.7684 40.322 22.7688 40.2594C22.7688 40.242 22.7671 40.2244 22.7671 40.2109C22.7686 40.1569 22.7506 40.1043 22.7166 40.0628C22.6968 40.0447 22.6737 40.0307 22.6486 40.0221C22.6235 40.0133 22.5968 40.0101 22.5704 40.0124C22.5295 40.0088 22.4886 40.0167 22.4522 40.0357C22.4155 40.0544 22.3851 40.0835 22.364 40.1192C22.31 40.2475 22.2793 40.3845 22.2728 40.5239L22.2608 40.6474Z" fill="#C99700"/>
<path d="M25.4548 41.9998H25.4492C25.3721 42.0073 25.2946 41.9917 25.2261 41.9547C25.1579 41.9178 25.1015 41.8612 25.0646 41.7918C25.0086 41.6604 24.9828 41.5175 24.9892 41.3743C24.9897 41.2808 24.9952 41.1874 25.0057 41.0943L25.0497 40.6655C25.0608 40.5547 25.0748 40.4553 25.0919 40.3677C25.1092 40.2803 25.1339 40.1945 25.1657 40.1112C25.1928 40.0355 25.2312 39.9648 25.2799 39.9012C25.3252 39.8445 25.3826 39.7989 25.4472 39.767C25.519 39.7325 25.5979 39.7151 25.6775 39.7165C25.7444 39.7183 25.8099 39.735 25.8701 39.7652C25.9301 39.7955 25.983 39.8384 26.025 39.8915L26.1299 38.8613H26.5204L26.2001 41.9668H25.8099L25.8246 41.8244C25.7775 41.877 25.7204 41.9197 25.657 41.9497C25.5935 41.9799 25.5248 41.9969 25.4548 41.9998ZM25.5855 41.6868C25.6797 41.6821 25.7708 41.6512 25.8486 41.597L25.9997 40.136C25.9308 40.0726 25.8421 40.0353 25.7492 40.031C25.705 40.0297 25.6615 40.0418 25.6241 40.066C25.5866 40.0927 25.5568 40.129 25.5377 40.171C25.5148 40.2189 25.4975 40.269 25.4855 40.3209C25.4712 40.3835 25.4613 40.4469 25.4552 40.5108L25.3908 41.1268C25.3821 41.2244 25.3779 41.3113 25.3779 41.3872V41.4152C25.3755 41.4847 25.3937 41.5534 25.4304 41.6121C25.4479 41.6367 25.4715 41.6568 25.4986 41.6699C25.5257 41.683 25.5555 41.6889 25.5855 41.6868Z" fill="#C99700"/>
<path d="M27.0127 41.9677L27.2409 39.7501H27.6318L27.4034 41.9677H27.0127ZM27.2758 39.4242L27.32 38.999H27.7123L27.668 39.4242H27.2758Z" fill="#C99700"/>
<path d="M28.3457 41.9686L28.5444 40.0467H28.2812L28.3108 39.7509H28.5739L28.5888 39.6236C28.5955 39.5488 28.6059 39.4743 28.6201 39.4007C28.6324 39.339 28.6513 39.2792 28.6761 39.2218C28.6961 39.1688 28.7279 39.1214 28.769 39.083C28.8101 39.0446 28.8592 39.0164 28.9128 39.0006C28.9795 38.9789 29.049 38.9685 29.119 38.9698C29.2041 38.9721 29.289 38.9796 29.3733 38.9922L29.3419 39.2882L29.2733 39.2778C29.247 39.2731 29.2206 39.2704 29.1941 39.2693C29.1646 39.2661 29.1348 39.2708 29.1079 39.2833C29.0808 39.2955 29.0575 39.3149 29.0404 39.3393C29.0055 39.407 28.9857 39.4815 28.9821 39.5578L28.9601 39.7507H29.2953L29.2657 40.0463H28.9306L28.7319 41.9681L28.3457 41.9686Z" fill="#C99700"/>
<path d="M29.7392 41.9686L29.9379 40.0467H29.6748L29.7044 39.7509H29.9675L29.9824 39.6236C29.991 39.5362 30.0015 39.4617 30.0137 39.4007C30.0259 39.339 30.0448 39.2792 30.0697 39.2218C30.0897 39.1688 30.1217 39.1214 30.1626 39.083C30.2037 39.0446 30.2528 39.0164 30.3064 39.0006C30.373 38.9789 30.4426 38.9685 30.5126 38.9698C30.5977 38.9721 30.6826 38.9796 30.7668 38.9922L30.7355 39.2882L30.6668 39.2778C30.6406 39.2731 30.6141 39.2704 30.5877 39.2693C30.5581 39.2661 30.5284 39.2708 30.5015 39.2833C30.4744 39.2955 30.451 39.3149 30.4339 39.3393C30.399 39.407 30.3792 39.4815 30.3757 39.5578L30.3537 39.7507H30.6888L30.6592 40.0463H30.3241L30.1255 41.9681L29.7392 41.9686Z" fill="#C99700"/>
<path d="M31.6566 41.9997C31.5513 42.0036 31.4464 41.9844 31.3491 41.9433C31.2731 41.9094 31.2104 41.8509 31.1706 41.7769C31.1282 41.6904 31.1033 41.596 31.0971 41.4996C31.0933 41.4573 31.0919 41.4147 31.0933 41.3722C31.0937 41.2864 31.0986 41.2008 31.1079 41.1157L31.1613 40.6024C31.1733 40.4708 31.1971 40.3403 31.2322 40.2129C31.2597 40.1147 31.3044 40.0221 31.3639 39.9397C31.4188 39.8647 31.4928 39.8067 31.5782 39.7719C31.6777 39.734 31.7837 39.7159 31.8902 39.7184C31.9991 39.7137 32.1073 39.7358 32.2059 39.7832C32.2822 39.8232 32.3413 39.89 32.3724 39.9715C32.4057 40.0691 32.4237 40.1716 32.4255 40.275C32.4268 40.2983 32.4273 40.3215 32.4273 40.345C32.4266 40.4577 32.4193 40.5704 32.4053 40.6824L32.3851 40.8639H31.5253L31.4939 41.1636C31.4902 41.206 31.4875 41.2367 31.4857 41.2552C31.4837 41.274 31.4817 41.3013 31.4791 41.3374C31.4768 41.3724 31.4757 41.4002 31.4764 41.4169C31.4771 41.4339 31.4764 41.4569 31.4782 41.4869C31.4777 41.5088 31.4804 41.5307 31.4864 41.5517C31.4913 41.5653 31.4971 41.5824 31.5039 41.6032C31.5088 41.6206 31.5179 41.6364 31.5306 41.649C31.5417 41.6588 31.5544 41.6694 31.5686 41.6798C31.5835 41.6908 31.6008 41.6983 31.6191 41.7014C31.6411 41.7055 31.6633 41.7073 31.6855 41.7071C31.7224 41.71 31.7595 41.703 31.7931 41.687C31.8264 41.671 31.8553 41.6461 31.8766 41.6154C31.9246 41.5298 31.9517 41.4339 31.9557 41.3354L31.9706 41.1986H32.3517L32.3406 41.2884C32.2919 41.7626 32.0639 41.9997 31.6566 41.9997ZM31.5479 40.6474H32.0266L32.0453 40.4469C32.0522 40.3845 32.0557 40.322 32.0562 40.2594C32.0551 40.242 32.0546 40.2258 32.0546 40.2109C32.0559 40.1569 32.0379 40.1043 32.0039 40.0628C31.9844 40.0447 31.9613 40.0307 31.9359 40.0221C31.9108 40.0133 31.8842 40.0101 31.8577 40.0124C31.8171 40.0088 31.7762 40.0167 31.7395 40.0357C31.7031 40.0546 31.6726 40.0835 31.6515 40.1192C31.5975 40.2475 31.5666 40.3845 31.5604 40.5239L31.5479 40.6474Z" fill="#C99700"/>
<path d="M33.0254 41.9678L33.2534 39.7502H33.6438L33.6125 40.0652C33.6641 39.9692 33.7381 39.8875 33.8281 39.8279C33.9181 39.768 34.0212 39.7319 34.1285 39.7227C34.1345 39.7227 34.1561 39.7238 34.1927 39.7265L34.1467 40.1646C34.0814 40.1366 34.0112 40.1226 33.9403 40.1232C33.8747 40.1226 33.8101 40.1386 33.7525 40.1702C33.6836 40.2129 33.6249 40.2707 33.5805 40.3389L33.4129 41.9685L33.0254 41.9678Z" fill="#C99700"/>
<path d="M35.1859 41.9997C35.0806 42.0036 34.9757 41.9844 34.8784 41.9433C34.8024 41.9094 34.7397 41.8509 34.6999 41.7769C34.6575 41.6904 34.6324 41.596 34.6264 41.4996C34.6224 41.4573 34.6213 41.4147 34.6226 41.3722C34.6228 41.2864 34.6279 41.2008 34.6373 41.1157L34.6906 40.6024C34.7024 40.4708 34.7262 40.3403 34.7615 40.2129C34.7891 40.1147 34.8337 40.0221 34.8933 39.9397C34.9479 39.8647 35.0222 39.8067 35.1075 39.7719C35.207 39.734 35.3131 39.7159 35.4195 39.7184C35.5282 39.7137 35.6366 39.7358 35.7351 39.7832C35.8113 39.8232 35.8706 39.89 35.9015 39.9715C35.9351 40.0691 35.9531 40.1716 35.9548 40.275C35.9548 40.2974 35.9566 40.3204 35.9566 40.345C35.9559 40.4577 35.9486 40.5704 35.9346 40.6824L35.9144 40.8639H35.0544L35.0231 41.1636C35.0195 41.206 35.0168 41.2367 35.0148 41.2552C35.0131 41.274 35.0108 41.3013 35.0084 41.3374C35.0059 41.3724 35.0051 41.4002 35.0057 41.4169C35.0064 41.4339 35.0057 41.4569 35.0073 41.4869C35.0068 41.5088 35.0097 41.5307 35.0155 41.5517C35.0204 41.5653 35.0264 41.5824 35.0331 41.6032C35.0382 41.6206 35.0473 41.6364 35.0599 41.649C35.0711 41.6588 35.0837 41.6694 35.0977 41.6798C35.1128 41.6908 35.1302 41.6983 35.1484 41.7014C35.1702 41.7055 35.1924 41.7073 35.2148 41.7071C35.2517 41.71 35.2888 41.703 35.3224 41.687C35.3559 41.671 35.3848 41.6463 35.4064 41.6154C35.4542 41.5298 35.4813 41.4339 35.4855 41.3354L35.5002 41.1986H35.8813L35.8702 41.2884C35.8213 41.7626 35.5931 41.9997 35.1859 41.9997ZM35.0773 40.6474H35.5555L35.5742 40.4469C35.5811 40.3845 35.5846 40.322 35.5851 40.2594C35.5851 40.242 35.5835 40.2244 35.5835 40.2109C35.5848 40.1569 35.5668 40.1043 35.5328 40.0628C35.5133 40.0447 35.4902 40.0307 35.4651 40.0221C35.4397 40.0133 35.4131 40.0101 35.3866 40.0124C35.3459 40.0088 35.3051 40.0167 35.2686 40.0357C35.2319 40.0546 35.2015 40.0835 35.1804 40.1192C35.1264 40.2475 35.0955 40.3845 35.0893 40.5239L35.0773 40.6474Z" fill="#C99700"/>
<path d="M36.5439 41.9684L36.7722 39.7507H37.1606L37.1386 39.9698C37.2897 39.821 37.4882 39.732 37.6982 39.7189C37.7524 39.7171 37.8062 39.7311 37.8528 39.7591C37.8926 39.7837 37.9235 39.8205 37.9413 39.8641C37.9595 39.9111 37.9719 39.9601 37.9782 40.0102C37.9806 40.0339 37.9822 40.0581 37.9837 40.0834C37.9837 40.1147 37.9813 40.1461 37.9764 40.1771L37.7924 41.9695H37.4019L37.5739 40.2911C37.5766 40.2647 37.5777 40.2405 37.5777 40.2179C37.5808 40.1757 37.5737 40.1335 37.5575 40.0944C37.5377 40.0531 37.4937 40.0325 37.4251 40.0325C37.3099 40.0456 37.2022 40.0962 37.1175 40.1768L36.9319 41.9691L36.5439 41.9684Z" fill="#C99700"/>
<path d="M39.1329 41.9986C39.0702 42.0063 39.0067 41.9984 38.9478 41.9756C38.8887 41.9527 38.836 41.9155 38.7942 41.8674C38.7404 41.78 38.714 41.6782 38.7189 41.5752C38.7189 41.5413 38.7209 41.5077 38.7244 41.474L38.8753 40.0167H38.6436L38.6711 39.7507H38.9011L38.97 39.1006H39.3602L39.2916 39.7507H39.6431L39.6171 40.0167H39.2658L39.1164 41.4456C39.114 41.4706 39.1127 41.4939 39.1127 41.5156C39.1096 41.5585 39.1187 41.6014 39.1384 41.6391C39.1613 41.6755 39.2118 41.6935 39.2896 41.6935C39.3407 41.6942 39.3916 41.6904 39.4422 41.6822L39.4109 41.978C39.3187 41.9907 39.226 41.9977 39.1329 41.9986Z" fill="#C99700"/>
<path d="M59.9994 40.6592H42.5352V40.8333H59.9994V40.6592Z" fill="#C99700"/>
<path d="M16.9068 40.6592H0V40.8333H16.9068V40.6592Z" fill="#C99700"/>
</g>
</g>
<defs>
<clipPath id="clip0_1144_12774">
<rect width="60" height="42" fill="white"/>
</clipPath>
</defs>
</svg>
