<svg width="19" height="18" viewBox="0 0 19 18" fill="none" xmlns="http://www.w3.org/2000/svg">
<path d="M14.4953 1.33331V1.48331H14.6453H15.6356C16.9365 1.48331 17.9822 2.49246 17.9822 3.71998V15.6133C17.9822 16.8408 16.9365 17.85 15.6356 17.85H2.49668C1.19573 17.85 0.15 16.8408 0.15 15.6133V3.71998C0.15 2.49246 1.19573 1.48331 2.49668 1.48331H3.48696H3.63696V1.33331V0.666654C3.63696 0.389124 3.87717 0.15 4.18434 0.15C4.49153 0.15 4.73178 0.38914 4.73178 0.666654V1.33331V1.48331H4.88178H13.2505H13.4005V1.33331V0.666654C13.4005 0.389124 13.6407 0.15 13.9478 0.15C14.255 0.15 14.4953 0.38914 14.4953 0.666654V1.33331ZM3.63696 2.66667V2.51667H3.48696H2.49668C1.81356 2.51667 1.24482 3.05086 1.24482 3.71998V5.66667V5.81667H1.39482H16.7374H16.8874V5.66667V3.71998C16.8874 3.05086 16.3186 2.51667 15.6355 2.51667H14.6452H14.4952V2.66667V3.33333C14.4952 3.61086 14.255 3.84998 13.9478 3.84998C13.6407 3.84998 13.4005 3.61086 13.4005 3.33333V2.66667V2.51667H13.2505H4.88172H4.73172V2.66667V3.33333C4.73172 3.61086 4.49151 3.84998 4.18434 3.84998C3.87717 3.84998 3.63696 3.61086 3.63696 3.33333V2.66667ZM1.39482 6.84998H1.24482V6.99998V15.6133C1.24482 16.2824 1.81356 16.8166 2.49668 16.8166H15.6356C16.3187 16.8166 16.8875 16.2824 16.8875 15.6133V6.99998V6.84998H16.7375H1.39482Z" fill="#01825C" stroke="white" stroke-width="0.3"/>
</svg>
