<svg width="18" height="19" viewBox="0 0 18 19" fill="none" xmlns="http://www.w3.org/2000/svg">
<g clip-path="url(#clip0_2437_302)">
<path d="M3.85714 2.43571H4.00714V2.28571C4.00714 1.9845 4.1268 1.69563 4.33979 1.48264C4.55277 1.26966 4.84165 1.15 5.14286 1.15H11.5714C11.8726 1.15 12.1615 1.26966 12.3745 1.48264C12.5875 1.69563 12.7071 1.9845 12.7071 2.28571V2.43571H12.8571H14.7857C15.2574 2.43571 15.7098 2.6231 16.0434 2.95665C16.3769 3.29019 16.5643 3.74258 16.5643 4.21429V17.0714C16.5643 17.5431 16.3769 17.9955 16.0434 18.3291C15.7098 18.6626 15.2574 18.85 14.7857 18.85H1.92857C1.45687 18.85 1.00448 18.6626 0.670932 18.3291C0.337385 17.9955 0.15 17.5431 0.15 17.0714V4.21429C0.15 3.74258 0.337385 3.29019 0.670932 2.95665C1.00448 2.6231 1.45687 2.43571 1.92857 2.43571H3.85714ZM4.99286 3.57143V3.72143H5.14286H11.5714H11.7214V3.57143V2.92857V2.28571V2.13571H11.5714H5.14286H4.99286V2.28571V3.57143ZM12.8571 3.42143H12.7071V3.57143C12.7071 3.87264 12.5875 4.16151 12.3745 4.3745C12.1615 4.58749 11.8726 4.70714 11.5714 4.70714H5.14286C4.84165 4.70714 4.55277 4.58749 4.33979 4.3745C4.1268 4.16151 4.00714 3.87264 4.00714 3.57143V3.42143H3.85714H1.92857C1.71829 3.42143 1.51663 3.50496 1.36794 3.65365C1.21925 3.80234 1.13571 4.00401 1.13571 4.21429V17.0714C1.13571 17.2817 1.21925 17.4834 1.36794 17.6321C1.51663 17.7808 1.71829 17.8643 1.92857 17.8643H14.7857C14.996 17.8643 15.1977 17.7808 15.3464 17.6321C15.495 17.4834 15.5786 17.2817 15.5786 17.0714V4.21429C15.5786 4.00401 15.495 3.80234 15.3464 3.65365C15.1977 3.50496 14.996 3.42143 14.7857 3.42143H12.8571ZM2.72143 7.42857C2.72143 7.29786 2.77335 7.1725 2.86578 7.08007C2.95821 6.98764 3.08357 6.93571 3.21429 6.93571H8.35714C8.48786 6.93571 8.61322 6.98764 8.70565 7.08007C8.79807 7.1725 8.85 7.29786 8.85 7.42857C8.85 7.55929 8.79807 7.68465 8.70565 7.77707C8.61322 7.8695 8.48786 7.92143 8.35714 7.92143H3.21429C3.08357 7.92143 2.95821 7.8695 2.86578 7.77707C2.77335 7.68465 2.72143 7.55929 2.72143 7.42857ZM3.21429 10.15H12.2143C12.345 10.15 12.4704 10.2019 12.5628 10.2944C12.6552 10.3868 12.7071 10.5121 12.7071 10.6429C12.7071 10.7736 12.6552 10.8989 12.5628 10.9914C12.4704 11.0838 12.345 11.1357 12.2143 11.1357H3.21429C3.08357 11.1357 2.95821 11.0838 2.86578 10.9914C2.77335 10.8989 2.72143 10.7736 2.72143 10.6429C2.72143 10.5121 2.77335 10.3868 2.86578 10.2944C2.95821 10.2019 3.08357 10.15 3.21429 10.15ZM3.21429 13.3643H12.2143C12.345 13.3643 12.4704 13.4162 12.5628 13.5086C12.6552 13.6011 12.7071 13.7264 12.7071 13.8571C12.7071 13.9879 12.6552 14.1132 12.5628 14.2056C12.4704 14.2981 12.345 14.35 12.2143 14.35H3.21429C3.08357 14.35 2.95821 14.2981 2.86578 14.2056C2.77335 14.1132 2.72143 13.9879 2.72143 13.8571C2.72143 13.7264 2.77335 13.6011 2.86578 13.5086C2.95821 13.4162 3.08357 13.3643 3.21429 13.3643Z" fill="#01825C" stroke="white" stroke-width="0.3"/>
</g>
<defs>
<clipPath id="clip0_2437_302">
<rect width="18" height="18" fill="white" transform="translate(0 0.988281)"/>
</clipPath>
</defs>
</svg>
