<svg width="18" height="19" viewBox="0 0 18 19" fill="none" xmlns="http://www.w3.org/2000/svg">
<path d="M4.12501 5.90725H12.375C12.5823 5.90725 12.75 5.73952 12.75 5.53224C12.75 5.32496 12.5823 5.15723 12.375 5.15723H4.12501C3.91773 5.15723 3.75 5.32496 3.75 5.53224C3.75004 5.73955 3.91777 5.90725 4.12501 5.90725Z" fill="#01825C"/>
<path d="M8.62501 9.65723H4.12501C3.91773 9.65723 3.75 9.82496 3.75 10.0322C3.75 10.2395 3.91773 10.4073 4.12501 10.4073H8.62501C8.83229 10.4073 9.00002 10.2395 9.00002 10.0322C9.00002 9.82496 8.83229 9.65723 8.62501 9.65723Z" fill="#01825C"/>
<path d="M16.5645 2.90724C16.5427 2.90724 16.5217 2.91269 16.5 2.91371V2.90724C16.5 2.07998 15.8269 1.40723 15 1.40723H1.50001C0.673102 1.40723 0 2.07998 0 2.90724V17.5322C0 17.6839 0.0915469 17.8208 0.231434 17.8787C0.277594 17.8981 0.326637 17.9072 0.374977 17.9072C0.472395 17.9072 0.568336 17.8692 0.640125 17.7974L4.28027 14.1572H15C15.8269 14.1572 16.5 13.4845 16.5 12.6572V6.43731L17.5796 5.35791C17.5796 5.35791 17.5796 5.35791 17.5796 5.35756C17.8469 5.09023 18 4.72035 18 4.34277C18 3.55105 17.3562 2.90724 16.5645 2.90724ZM15.75 12.6572C15.75 13.0707 15.4138 13.4072 15 13.4072H4.12499C4.02539 13.4072 3.93015 13.4468 3.85984 13.5171L0.749988 16.627V2.90724C0.749988 2.4938 1.08619 2.15725 1.49998 2.15725H15C15.4138 2.15725 15.75 2.4938 15.75 2.90724V3.16339C15.6788 3.21232 15.6107 3.26615 15.5493 3.32764L11.4691 7.40724H4.12499C3.91771 7.40724 3.74998 7.57497 3.74998 7.78225C3.74998 7.98953 3.91771 8.15726 4.12499 8.15726H10.8674L10.5073 9.95867C10.4824 10.0817 10.5212 10.2088 10.6099 10.2974C10.6809 10.3684 10.7769 10.4073 10.875 10.4073C10.8992 10.4073 10.9241 10.4047 10.9483 10.3999L12.8225 10.0249C12.8958 10.0103 12.9624 9.97477 13.0144 9.92239L15.75 7.18723V12.6572ZM12.5647 9.3119L11.3533 9.55434L11.5957 8.34144L14.9998 4.93734L15.9697 5.90719L12.5647 9.3119ZM17.0493 4.82765L16.5 5.37696L15.5301 4.40704L16.0796 3.85755C16.207 3.73046 16.3835 3.65723 16.5644 3.65723C16.9424 3.65723 17.25 3.96484 17.25 4.34277C17.25 4.52295 17.1767 4.69986 17.0493 4.82765Z" fill="#01825C"/>
</svg>
