<svg width="19" height="16" viewBox="0 0 19 16" fill="none" xmlns="http://www.w3.org/2000/svg">
<mask id="path-1-inside-1_2437_298" fill="white">
<path fill-rule="evenodd" clip-rule="evenodd" d="M2.37866 0.851318H16.1366C17.449 0.853201 18.5128 1.91701 18.5146 3.22935V13.4727C18.5134 14.7856 17.4496 15.8494 16.1366 15.8513H2.37866C1.06569 15.8501 0.00125523 14.7856 0 13.4727V3.22935C0.00188285 1.91638 1.06569 0.852574 2.37866 0.851318ZM16.1366 14.9099C16.9299 14.9086 17.5726 14.266 17.5732 13.4727V13.0333L13.8308 9.28333C13.5904 9.03605 13.158 9.04107 12.9289 9.3009L11.25 11.1128L12.5335 12.5137C12.949 12.9699 12.2548 13.6013 11.8393 13.1501L6.17197 6.9668C5.94163 6.70069 5.51234 6.70759 5.26632 6.94797L0.941423 11.2697V13.4727C0.94205 14.266 1.58536 14.9093 2.37866 14.9099H16.1366ZM14.4979 8.62119L17.5732 11.7022V3.22935C17.572 2.43667 16.9293 1.794 16.1366 1.79274H2.37866C1.58536 1.79337 0.942678 2.43605 0.941423 3.22935V9.93856L4.60105 6.28333C5.1954 5.64692 6.29749 5.68019 6.86548 6.33479L10.6123 10.4218L12.2385 8.6645C12.2517 8.65006 12.2649 8.63626 12.2787 8.62245C12.8912 8.00927 13.8847 8.00864 14.4979 8.62119ZM10.4303 3.40069C8.0341 3.46157 8.03598 6.96806 10.4291 7.03333C12.8247 6.9737 12.8253 3.4622 10.4303 3.40069ZM10.4291 4.34149C9.28117 4.36534 9.27929 6.07245 10.4303 6.0919C11.5801 6.07182 11.5795 4.36094 10.4291 4.34211V4.34149Z"/>
</mask>
<path fill-rule="evenodd" clip-rule="evenodd" d="M2.37866 0.851318H16.1366C17.449 0.853201 18.5128 1.91701 18.5146 3.22935V13.4727C18.5134 14.7856 17.4496 15.8494 16.1366 15.8513H2.37866C1.06569 15.8501 0.00125523 14.7856 0 13.4727V3.22935C0.00188285 1.91638 1.06569 0.852574 2.37866 0.851318ZM16.1366 14.9099C16.9299 14.9086 17.5726 14.266 17.5732 13.4727V13.0333L13.8308 9.28333C13.5904 9.03605 13.158 9.04107 12.9289 9.3009L11.25 11.1128L12.5335 12.5137C12.949 12.9699 12.2548 13.6013 11.8393 13.1501L6.17197 6.9668C5.94163 6.70069 5.51234 6.70759 5.26632 6.94797L0.941423 11.2697V13.4727C0.94205 14.266 1.58536 14.9093 2.37866 14.9099H16.1366ZM14.4979 8.62119L17.5732 11.7022V3.22935C17.572 2.43667 16.9293 1.794 16.1366 1.79274H2.37866C1.58536 1.79337 0.942678 2.43605 0.941423 3.22935V9.93856L4.60105 6.28333C5.1954 5.64692 6.29749 5.68019 6.86548 6.33479L10.6123 10.4218L12.2385 8.6645C12.2517 8.65006 12.2649 8.63626 12.2787 8.62245C12.8912 8.00927 13.8847 8.00864 14.4979 8.62119ZM10.4303 3.40069C8.0341 3.46157 8.03598 6.96806 10.4291 7.03333C12.8247 6.9737 12.8253 3.4622 10.4303 3.40069ZM10.4291 4.34149C9.28117 4.36534 9.27929 6.07245 10.4303 6.0919C11.5801 6.07182 11.5795 4.36094 10.4291 4.34211V4.34149Z" fill="#01825C"/>
<path d="M16.1366 0.851318L16.1368 0.751318H16.1366V0.851318ZM2.37866 0.851318L2.37866 0.751318L2.37857 0.751318L2.37866 0.851318ZM18.5146 3.22935L18.6146 3.22935L18.6146 3.22921L18.5146 3.22935ZM18.5146 13.4727L18.6146 13.4728V13.4727H18.5146ZM16.1366 15.8513L16.1366 15.9513L16.1368 15.9513L16.1366 15.8513ZM2.37866 15.8513L2.37857 15.9513H2.37866V15.8513ZM0 13.4727H-0.1L-0.1 13.4728L0 13.4727ZM0 3.22935L-0.1 3.22921V3.22935H0ZM17.5732 13.4727L17.6732 13.4727V13.4727H17.5732ZM16.1366 14.9099L16.1366 15.0099L16.1368 15.0099L16.1366 14.9099ZM17.5732 13.0333H17.6732V12.992L17.644 12.9627L17.5732 13.0333ZM13.8308 9.28333L13.759 9.35303L13.76 9.35397L13.8308 9.28333ZM12.9289 9.3009L13.0022 9.36889L13.0039 9.36703L12.9289 9.3009ZM11.25 11.1128L11.1766 11.0449L11.114 11.1124L11.1763 11.1804L11.25 11.1128ZM12.5335 12.5137L12.6074 12.4463L12.6072 12.4461L12.5335 12.5137ZM11.8393 13.1501L11.7656 13.2176L11.7658 13.2178L11.8393 13.1501ZM6.17197 6.9668L6.09633 7.03227L6.09825 7.03437L6.17197 6.9668ZM5.26632 6.94797L5.19643 6.87644L5.19563 6.87723L5.26632 6.94797ZM0.941423 11.2697L0.870738 11.199L0.841423 11.2283V11.2697H0.941423ZM0.941423 13.4727L0.841423 13.4727L0.841423 13.4727L0.941423 13.4727ZM2.37866 14.9099L2.37858 15.0099H2.37866V14.9099ZM17.5732 11.7022L17.5024 11.7728L17.6732 11.9439V11.7022H17.5732ZM14.4979 8.62119L14.5687 8.55055L14.5686 8.55045L14.4979 8.62119ZM17.5732 3.22935L17.6732 3.22935L17.6732 3.22919L17.5732 3.22935ZM16.1366 1.79274L16.1368 1.69274H16.1366V1.79274ZM2.37866 1.79274L2.37866 1.69274L2.37858 1.69274L2.37866 1.79274ZM0.941423 3.22935L0.841423 3.22919V3.22935H0.941423ZM0.941423 9.93856H0.841423V10.1798L1.01209 10.0093L0.941423 9.93856ZM4.60105 6.28333L4.67176 6.35412L4.67413 6.35158L4.60105 6.28333ZM6.86548 6.33479L6.78992 6.40035L6.79177 6.40237L6.86548 6.33479ZM10.6123 10.4218L10.5386 10.4894L10.612 10.5694L10.6857 10.4897L10.6123 10.4218ZM12.2385 8.6645L12.3119 8.73242L12.3123 8.73193L12.2385 8.6645ZM12.2787 8.62245L12.3494 8.69316L12.3494 8.69312L12.2787 8.62245ZM10.4303 3.40069L10.4329 3.30059L10.4278 3.30072L10.4303 3.40069ZM10.4291 7.03333L10.4264 7.13343L10.4316 7.1333L10.4291 7.03333ZM10.4303 6.0919L10.4286 6.19195L10.4321 6.19189L10.4303 6.0919ZM10.4291 4.34149H10.5291V4.23939L10.427 4.24151L10.4291 4.34149ZM10.4291 4.34211H10.3291V4.44049L10.4274 4.4421L10.4291 4.34211ZM16.1366 0.751318H2.37866V0.951318H16.1366V0.751318ZM18.6146 3.22921C18.6127 1.86175 17.5042 0.75328 16.1368 0.751318L16.1365 0.951318C17.3937 0.953122 18.4128 1.97227 18.4146 3.2295L18.6146 3.22921ZM18.6146 13.4727V3.22935H18.4146V13.4727H18.6146ZM16.1368 15.9513C17.5048 15.9494 18.6133 14.8409 18.6146 13.4728L18.4146 13.4726C18.4134 14.7304 17.3943 15.7495 16.1365 15.7513L16.1368 15.9513ZM2.37866 15.9513H16.1366V15.7513H2.37866V15.9513ZM-0.1 13.4728C-0.098692 14.8409 1.01044 15.95 2.37857 15.9513L2.37876 15.7513C1.12094 15.7501 0.101202 14.7304 0.1 13.4726L-0.1 13.4728ZM-0.1 3.22935V13.4727H0.1V3.22935H-0.1ZM2.37857 0.751318C1.01043 0.752626 -0.098038 1.86113 -0.0999999 3.22921L0.0999999 3.2295C0.101804 1.97163 1.12095 0.952521 2.37876 0.951318L2.37857 0.751318ZM17.4732 13.4726C17.4726 14.2107 16.8747 14.8087 16.1365 14.8099L16.1368 15.0099C16.9852 15.0086 17.6726 14.3212 17.6732 13.4727L17.4732 13.4726ZM17.4732 13.0333V13.4727H17.6732V13.0333H17.4732ZM13.76 9.35397L17.5024 13.104L17.644 12.9627L13.9015 9.21269L13.76 9.35397ZM13.0039 9.36703C13.1935 9.15199 13.5583 9.14648 13.759 9.35303L13.9025 9.21362C13.6225 8.92561 13.1224 8.93015 12.8539 9.23477L13.0039 9.36703ZM11.3234 11.1808L13.0022 9.36887L12.8555 9.23293L11.1766 11.0449L11.3234 11.1808ZM12.6072 12.4461L11.3237 11.0453L11.1763 11.1804L12.4597 12.5812L12.6072 12.4461ZM11.7658 13.2178C11.8885 13.3511 12.0372 13.4087 12.1839 13.4051C12.3282 13.4016 12.4633 13.3393 12.5654 13.246C12.6676 13.1527 12.7419 13.0238 12.7581 12.8803C12.7746 12.7342 12.7299 12.5808 12.6074 12.4463L12.4595 12.581C12.5448 12.6746 12.5691 12.7713 12.5594 12.8578C12.5493 12.9469 12.502 13.0332 12.4306 13.0983C12.3592 13.1635 12.2689 13.203 12.1791 13.2052C12.0918 13.2073 11.9979 13.1747 11.9129 13.0823L11.7658 13.2178ZM6.09825 7.03437L11.7656 13.2176L11.9131 13.0825L6.24569 6.89923L6.09825 7.03437ZM5.3362 7.0195C5.54567 6.81484 5.90783 6.81444 6.09636 7.03224L6.24758 6.90135C5.97543 6.58694 5.47902 6.60035 5.19643 6.87644L5.3362 7.0195ZM1.01211 11.3405L5.337 7.01871L5.19563 6.87723L0.870738 11.199L1.01211 11.3405ZM1.04142 13.4727V11.2697H0.841423V13.4727H1.04142ZM2.37874 14.8099C1.6406 14.8093 1.04201 14.2107 1.04142 13.4726L0.841423 13.4727C0.842094 14.3212 1.53011 15.0092 2.37858 15.0099L2.37874 14.8099ZM16.1366 14.8099H2.37866V15.0099H16.1366V14.8099ZM17.644 11.6315L14.5687 8.55055L14.4271 8.69184L17.5024 11.7728L17.644 11.6315ZM17.4732 3.22935V11.7022H17.6732V3.22935H17.4732ZM16.1365 1.89274C16.874 1.89391 17.4721 2.49194 17.4732 3.22951L17.6732 3.22919C17.6719 2.38141 16.9846 1.69408 16.1368 1.69274L16.1365 1.89274ZM2.37866 1.89274H16.1366V1.69274H2.37866V1.89274ZM1.04142 3.22951C1.04259 2.49129 1.64062 1.89333 2.37874 1.89274L2.37858 1.69274C1.53009 1.69341 0.842765 2.3808 0.841423 3.22919L1.04142 3.22951ZM1.04142 9.93856V3.22935H0.841423V9.93856H1.04142ZM4.53038 6.21257L0.870754 9.8678L1.01209 10.0093L4.67171 6.35408L4.53038 6.21257ZM6.94101 6.26925C6.33501 5.57085 5.16377 5.53428 4.52796 6.21507L4.67413 6.35158C5.22703 5.75957 6.25997 5.78953 6.78995 6.40033L6.94101 6.26925ZM10.6861 10.3542L6.93919 6.26721L6.79177 6.40237L10.5386 10.4894L10.6861 10.3542ZM12.1651 8.59658L10.5389 10.3539L10.6857 10.4897L12.3119 8.73242L12.1651 8.59658ZM12.2079 8.55174C12.193 8.56664 12.1788 8.58155 12.1646 8.59707L12.3123 8.73193C12.3245 8.71858 12.3367 8.70587 12.3494 8.69316L12.2079 8.55174ZM14.5686 8.55045C13.9163 7.89885 12.8595 7.89953 12.2079 8.55177L12.3494 8.69312C12.9229 8.119 13.8531 8.11843 14.4272 8.69194L14.5686 8.55045ZM10.4278 3.30072C9.80249 3.31661 9.32658 3.55833 9.00781 3.91852C8.69045 4.27713 8.53367 4.74757 8.53371 5.21537C8.53375 5.68317 8.69062 6.15384 9.00776 6.51295C9.32631 6.87365 9.8018 7.11626 10.4264 7.13329L10.4318 6.93336C9.85981 6.91776 9.43765 6.69758 9.15767 6.38056C8.87629 6.06194 8.73375 5.63994 8.73371 5.21535C8.73367 4.79076 8.87614 4.36909 9.15758 4.05107C9.43762 3.73464 9.86006 3.51521 10.4329 3.50066L10.4278 3.30072ZM10.4316 7.1333C12.9578 7.07042 12.9571 3.36555 10.4329 3.30072L10.4278 3.50066C12.6935 3.55884 12.6915 6.87699 10.4266 6.93336L10.4316 7.1333ZM10.432 5.99192C10.171 5.98751 9.9824 5.88846 9.85815 5.74744C9.73238 5.6047 9.66756 5.41313 9.6676 5.21836C9.66764 5.02359 9.73253 4.83163 9.85831 4.68826C9.9826 4.5466 10.171 4.44687 10.4312 4.44146L10.427 4.24151C10.1132 4.24803 9.87091 4.37063 9.70797 4.55637C9.54652 4.74039 9.46764 4.9809 9.4676 5.21832C9.46756 5.45575 9.54635 5.69609 9.70809 5.87966C9.87134 6.06494 10.1142 6.18657 10.4286 6.19189L10.432 5.99192ZM10.4274 4.4421C11.4467 4.45878 11.4474 5.97412 10.4286 5.99192L10.4321 6.19189C11.7129 6.16952 11.7123 4.2631 10.4307 4.24213L10.4274 4.4421ZM10.3291 4.34149V4.34211H10.5291V4.34149H10.3291Z" fill="white" mask="url(#path-1-inside-1_2437_298)"/>
</svg>
