<svg width="18" height="18" viewBox="0 0 18 18" fill="none" xmlns="http://www.w3.org/2000/svg">
<path fill-rule="evenodd" clip-rule="evenodd" d="M16.1883 9.30971C14.7358 11.9181 11.9812 13.5384 9.00102 13.5384C6.01885 13.5384 3.26432 11.9181 1.81181 9.30971C1.69994 9.10717 1.69994 8.89307 1.81181 8.69071C3.26432 6.0824 6.01885 4.46226 9.00102 4.46226C11.9812 4.46226 14.7358 6.0824 16.1883 8.69071C16.3021 8.89307 16.3021 9.10717 16.1883 9.30971ZM17.1161 8.17356C15.4765 5.22863 12.3671 3.39941 9.00102 3.39941C5.63305 3.39941 2.52358 5.22863 0.883965 8.17356C0.590762 8.69901 0.590762 9.30141 0.883965 9.82647C2.52358 12.7714 5.63305 14.601 9.00102 14.601C12.3671 14.601 15.4765 12.7714 17.1161 9.82647C17.4093 9.30145 17.4093 8.69901 17.1161 8.17356ZM9.00102 11.1804C10.2028 11.1804 11.1807 10.2024 11.1807 9.00012C11.1807 7.79781 10.2028 6.81984 9.00102 6.81984C7.79734 6.81984 6.81936 7.79781 6.81936 9.00012C6.81936 10.2024 7.79737 11.1804 9.00102 11.1804ZM9.00102 5.75699C7.21093 5.75699 5.75652 7.212 5.75652 9.00016C5.75652 10.7887 7.21097 12.2431 9.00102 12.2431C10.7892 12.2431 12.2436 10.7887 12.2436 9.00016C12.2436 7.212 10.7892 5.75699 9.00102 5.75699Z" fill="#407BFF"/>
</svg>
