<svg width="25" height="24" viewBox="0 0 25 24" fill="none" xmlns="http://www.w3.org/2000/svg">
    <g clip-path="url(#clip0_901_300)">
        <path
            d="M12.5008 15.1998C14.2681 15.1998 15.7008 13.7671 15.7008 11.9998C15.7008 10.2325 14.2681 8.7998 12.5008 8.7998C10.7335 8.7998 9.30078 10.2325 9.30078 11.9998C9.30078 13.7671 10.7335 15.1998 12.5008 15.1998Z"
            fill="#01825C" />
        <path
            d="M9.5 2L7.67 4H4.5C3.4 4 2.5 4.9 2.5 6V18C2.5 19.1 3.4 20 4.5 20H20.5C21.6 20 22.5 19.1 22.5 18V6C22.5 4.9 21.6 4 20.5 4H17.33L15.5 2H9.5ZM12.5 17C9.74 17 7.5 14.76 7.5 12C7.5 9.24 9.74 7 12.5 7C15.26 7 17.5 9.24 17.5 12C17.5 14.76 15.26 17 12.5 17Z"
            fill="#01825C" />
    </g>
    <defs>
        <clipPath id="clip0_901_300">
            <rect width="24" height="24" fill="white" transform="translate(0.5)" />
        </clipPath>
    </defs>
</svg>
