<svg width="24" height="24" viewBox="0 0 24 24" fill="none" xmlns="http://www.w3.org/2000/svg">
<path d="M24 20.4C24 21.06 23.46 21.6 22.8 21.6H21.6V22.8C21.6 23.46 21.06 24 20.4 24C19.74 24 19.2 23.46 19.2 22.8V21.6H18C17.34 21.6 16.8 21.06 16.8 20.4C16.8 19.74 17.34 19.2 18 19.2H19.2V18C19.2 17.34 19.74 16.8 20.4 16.8C21.06 16.8 21.6 17.34 21.6 18V19.2H22.8C23.46 19.2 24 19.74 24 20.4ZM16.764 13.416L11.412 16.632C11.232 16.74 11.016 16.8 10.8 16.8C10.572 16.8 10.332 16.728 10.14 16.596L6.984 14.496L0 16.404V18C0 19.98 1.62 21.6 3.6 21.6H13.2C13.86 21.6 14.4 21.06 14.4 20.4C14.4 17.7 16.176 15.42 18.624 14.664L16.764 13.416ZM6.888 12.048L0 13.92V3.6C0 1.62 1.62 0 3.6 0H18C19.98 0 21.6 1.62 21.6 3.6V13.2C21.6 13.368 21.564 13.536 21.492 13.68L17.46 11.004C17.076 10.74 16.584 10.728 16.188 10.968L10.836 14.184L7.86 12.204C7.572 12.012 7.224 11.952 6.888 12.048ZM6.6 8.4C7.596 8.4 8.4 7.596 8.4 6.6C8.4 5.604 7.596 4.8 6.6 4.8C5.604 4.8 4.8 5.604 4.8 6.6C4.8 7.596 5.604 8.4 6.6 8.4Z" fill="#01825C"/>
</svg>
