<svg width="15" height="15" viewBox="0 0 15 15" fill="none" xmlns="http://www.w3.org/2000/svg">
<g clip-path="url(#clip0_292_4150)">
<path d="M3 1.5H1.5V3H3V1.5Z" fill="black"/>
<path d="M10.5 0V0.75H9.75V1.5H10.5V4.5H11.25V5.25H10.5V6H11.25H12V4.5H14.25V5.25H15V4.5V0H10.5ZM14.25 3.75H11.25V0.75H14.25V3.75Z" fill="black"/>
<path d="M13.5 1.5H12V3H13.5V1.5Z" fill="black"/>
<path d="M3 12H1.5V13.5H3V12Z" fill="black"/>
<path d="M11.25 10.5H10.5V11.25H11.25V10.5Z" fill="black"/>
<path d="M7.5 14.25H6.75V15H7.5V14.25Z" fill="black"/>
<path d="M8.25 11.25H7.5V12H8.25V11.25Z" fill="black"/>
<path d="M8.25 12.75H7.5V13.5H8.25V12.75Z" fill="black"/>
<path d="M15 9H14.25V9.75H15V9Z" fill="black"/>
<path d="M0.75 9H0V9.75H0.75V9Z" fill="black"/>
<path d="M0.75 5.25H0V6H0.75V5.25Z" fill="black"/>
<path d="M8.25 0.75V1.5H6.75V2.25H9V1.5V0.75H8.25Z" fill="black"/>
<path d="M14.25 6V6.75H12.75V7.5H10.5V6.75H9.75V7.5H8.25V8.25H10.5V9H9H8.25V8.25H7.5V9H6.75V8.25H6V9H5.25V9.75H6.75V10.5H7.5V9.75H9V10.5H8.25V11.25H9V12.75H9.75V13.5H10.5V12.75H12.75V11.25H13.5V10.5H12.75V9H11.25V8.25H12.75V9H13.5V8.25H14.25V7.5H15V6.75V6H14.25ZM12 9.75V12H9.75V9.75H12Z" fill="black"/>
<path d="M9.75 4.5H9V5.25H8.25V6V6.75H9V6H9.75V5.25H10.5V4.5H9.75Z" fill="black"/>
<path d="M9.75 14.25H8.25V15H9.75V14.25Z" fill="black"/>
<path d="M6.75 0.75H6V1.5H6.75V0.75Z" fill="black"/>
<path d="M12.75 6H12V6.75H12.75V6Z" fill="black"/>
<path d="M13.5 5.25H12.75V6H13.5V5.25Z" fill="black"/>
<path d="M3.75 9H3V9.75H3.75V9Z" fill="black"/>
<path d="M4.5 14.25V11.25H5.25V10.5V9.75H4.5V10.5H2.25V9.75H1.5H0.75V10.5H0V15H4.5H6V14.25H4.5ZM3.75 14.25H0.75V11.25H3.75V14.25Z" fill="black"/>
<path d="M5.25 4.5H4.5V5.25H5.25V4.5Z" fill="black"/>
<path d="M5.25 0H4.5H0V4.5H0.75V5.25H1.5V4.5H2.25V5.25H3V4.5H4.5V3H5.25V2.25H4.5V0.75H5.25H6V0H5.25ZM3.75 3.75H0.75V0.75H3.75V3.75Z" fill="black"/>
<path d="M9.75 2.25H9V3H9.75V2.25Z" fill="black"/>
<path d="M8.25 0H7.5V0.75H8.25V0Z" fill="black"/>
<path d="M9 4.5V3.75H8.25V3H7.5V3.75H6V3H5.25V3.75V4.5H6V6H3.75V5.25H3V6H0.75V6.75H2.25V7.5H0V8.25H2.25V9H3V8.25H3.75V9H4.5V8.25H6V7.5H5.25V6.75H6H6.75V7.5H7.5H8.25V6.75H7.5V6H6.75V4.5H9ZM4.5 7.5H3V6.75H4.5V7.5Z" fill="black"/>
<path d="M6.75 12V11.25V10.5H6V11.25H5.25V12H6V12.75H5.25V13.5H6.75V12.75H7.5V12H6.75Z" fill="black"/>
<path d="M13.5 13.5V12.75H12.75V13.5H10.5V14.25H12V15H12.75V14.25H14.25V15H15V14.25V13.5H13.5Z" fill="black"/>
<path d="M14.25 10.5V11.25H13.5V12H15V11.25V10.5H14.25Z" fill="black"/>
</g>
<defs>
<clipPath id="clip0_292_4150">
<rect width="15" height="15" fill="white"/>
</clipPath>
</defs>
</svg>
