<svg width="29" height="37" viewBox="0 0 29 37" fill="none" xmlns="http://www.w3.org/2000/svg">
<path d="M0.408203 1.08398V29.4121C0.408203 30.0113 0.893033 30.4961 1.49219 30.4961H21.0039C21.6031 30.4961 22.0879 30.0113 22.0879 29.4121V1.08398C22.0879 0.48483 21.6031 0 21.0039 0H1.49219C0.893033 0 0.408203 0.48483 0.408203 1.08398ZM17.752 25.0039H13.416C12.8169 25.0039 12.332 24.5191 12.332 23.9199C12.332 23.3208 12.8169 22.8359 13.416 22.8359H17.752C18.3511 22.8359 18.8359 23.3208 18.8359 23.9199C18.8359 24.5191 18.3511 25.0039 17.752 25.0039ZM4.74414 5.49219H11.248C11.8472 5.49219 12.332 5.97702 12.332 6.57617C12.332 7.17533 11.8472 7.66016 11.248 7.66016H4.74414C4.14499 7.66016 3.66016 7.17533 3.66016 6.57617C3.66016 5.97702 4.14499 5.49219 4.74414 5.49219ZM4.74414 9.82812H17.752C18.3511 9.82812 18.8359 10.313 18.8359 10.9121C18.8359 11.5113 18.3511 11.9961 17.752 11.9961H4.74414C4.14499 11.9961 3.66016 11.5113 3.66016 10.9121C3.66016 10.313 4.14499 9.82812 4.74414 9.82812ZM4.74414 14.1641H17.752C18.3511 14.1641 18.8359 14.6489 18.8359 15.248C18.8359 15.8472 18.3511 16.332 17.752 16.332H4.74414C4.14499 16.332 3.66016 15.8472 3.66016 15.248C3.66016 14.6489 4.14499 14.1641 4.74414 14.1641ZM4.74414 18.5H17.752C18.3511 18.5 18.8359 18.9848 18.8359 19.584C18.8359 20.1831 18.3511 20.668 17.752 20.668H4.74414C4.14499 20.668 3.66016 20.1831 3.66016 19.584C3.66016 18.9848 4.14499 18.5 4.74414 18.5Z" fill="white"/>
<path d="M7.99609 37H27.5078C28.107 37 28.5918 36.5152 28.5918 35.916V7.66016C28.5918 7.061 28.107 6.57617 27.5078 6.57617H24.2559V29.4121C24.2559 31.2053 22.7971 32.6641 21.0039 32.6641H6.91211V35.916C6.91211 36.5152 7.39694 37 7.99609 37Z" fill="white"/>
</svg>
