<svg width="36" height="33" viewBox="0 0 36 33" fill="none" xmlns="http://www.w3.org/2000/svg">
<path fill-rule="evenodd" clip-rule="evenodd" d="M15.2862 5.948L21.1719 23.2855L7.62586 23.4451L10.324 31.3937L5.77495 33L0 15.989L4.54904 14.3827L4.07649 12.9892L15.2862 5.948ZM16.3581 4.15108L16.0957 3.37782L20.6448 1.77155L23.5323 10.2775L26.565 9.20635L28.1399 13.8459L25.1072 14.9162L27.9946 23.4222L23.4456 25.0284L23.1833 24.2552L23.1969 24.2502L16.3725 4.14617L16.3581 4.15108ZM36 16.0258L28.8483 14.1266L28.4439 15.71L35.5956 17.6092L36 16.0258ZM29.1307 11.7643L33.6797 10.158L33.155 8.61147L28.606 10.2177L29.1307 11.7643ZM26.427 6.99212L30.8958 0.989288L29.6185 0L25.1489 6.00283L26.427 6.99212Z" fill="white"/>
</svg>
