<svg width="65" height="65" viewBox="0 0 65 65" fill="none" xmlns="http://www.w3.org/2000/svg">
<circle cx="32.5" cy="32.5" r="32.5" fill="#58B658"/>
<path fill-rule="evenodd" clip-rule="evenodd" d="M28.2862 19.948L34.1719 37.2855L20.6259 37.4451L23.324 45.3937L18.775 47L13 29.989L17.549 28.3827L17.0765 26.9892L28.2862 19.948ZM29.3581 18.1511L29.0957 17.3778L33.6448 15.7716L36.5323 24.2775L39.565 23.2064L41.1399 27.8459L38.1072 28.9162L40.9946 37.4222L36.4456 39.0284L36.1833 38.2552L36.1969 38.2502L29.3725 18.1462L29.3581 18.1511ZM49 30.0258L41.8483 28.1266L41.4439 29.71L48.5956 31.6092L49 30.0258ZM42.1307 25.7643L46.6797 24.158L46.155 22.6115L41.606 24.2177L42.1307 25.7643ZM39.427 20.9921L43.8958 14.9893L42.6185 14L38.1489 20.0028L39.427 20.9921Z" fill="white"/>
</svg>
