<svg width="37" height="31" viewBox="0 0 37 31" fill="none" xmlns="http://www.w3.org/2000/svg">
<path fill-rule="evenodd" clip-rule="evenodd" d="M25.022 24.4089V22.4852C25.022 19.6806 23.7949 17.1491 21.851 15.4017C22.781 14.5396 24.0247 14.0106 25.3927 14.0106C26.8308 14.0106 28.1337 14.5945 29.0739 15.5347C30.0163 16.477 30.6002 17.78 30.6002 19.2159C30.6002 20.654 30.0163 21.9569 29.0739 22.8971C28.1337 23.8395 26.8308 24.4234 25.3927 24.4234C25.2684 24.4234 25.1455 24.419 25.022 24.4089ZM36.6394 17.6694L35.0705 17.1592C34.8942 17.1021 34.7713 16.9706 34.7265 16.7943C34.4989 15.9199 34.1527 15.0917 33.7061 14.3344C33.6122 14.1746 33.6057 13.994 33.6895 13.8307L34.4396 12.3601C34.5444 12.1555 34.5076 11.9156 34.3435 11.7537L32.8585 10.2665C32.6966 10.1046 32.4567 10.0678 32.2521 10.1726L30.7815 10.922C30.6175 11.0036 30.4376 11 30.2779 10.9054C29.5198 10.4587 28.6923 10.1126 27.8179 9.88496C27.6416 9.84016 27.5108 9.7173 27.453 9.54098L26.9428 7.97209C26.8712 7.75312 26.6769 7.61148 26.4449 7.61148H24.3448C24.1136 7.61148 23.9185 7.75312 23.8469 7.97209L23.3367 9.54098C23.2796 9.7173 23.1481 9.84016 22.9704 9.88496C22.0974 10.1126 21.2699 10.4587 20.5119 10.9054C20.3522 10.9993 20.1715 11.0036 20.0082 10.922L18.5376 10.1726C18.3331 10.0678 18.0931 10.1046 17.9313 10.2665L16.444 11.7537C16.2822 11.9156 16.2453 12.1555 16.3501 12.3601L16.6919 13.0321C18.2427 13.2287 19.6787 13.8025 20.9079 14.6545C22.0634 13.5199 23.6468 12.8168 25.3941 12.8168C27.1618 12.8168 28.7617 13.5337 29.9194 14.6913C31.0786 15.8505 31.794 17.4504 31.794 19.2166C31.794 20.9842 31.0793 22.5842 29.9194 23.7419C28.7617 24.901 27.1625 25.6165 25.3941 25.6165C25.2691 25.6165 25.1463 25.6143 25.0234 25.6063V29.5557C25.0234 30.0189 24.8941 30.4532 24.6693 30.8239H26.4456C26.6769 30.8239 26.872 30.6823 26.9435 30.4633L27.4537 28.8923C27.5108 28.7181 27.6423 28.5953 27.8187 28.5483C28.6931 28.3228 29.5212 27.9767 30.2786 27.5301C30.4383 27.4361 30.6189 27.4296 30.7823 27.5134L32.2529 28.2636C32.4574 28.3683 32.6973 28.3315 32.8592 28.1674L34.3442 26.6824C34.5083 26.5205 34.5451 26.2806 34.4404 26.0761L33.6902 24.6033C33.6064 24.4393 33.6122 24.2615 33.7069 24.1018C34.1535 23.3437 34.4996 22.5163 34.7251 21.6419C34.772 21.4655 34.8949 21.3326 35.0691 21.2769L36.6401 20.7667C36.8591 20.6952 37.0007 20.5008 37.0007 20.2688V18.1688C37 17.9354 36.8584 17.741 36.6394 17.6694ZM10.5927 21.9324L11.9137 24.2759L13.2347 21.9324L12.5793 14.1501H11.2496L10.5927 21.9324ZM15.4909 14.1501H13.776L14.4394 22.0119H14.4372C14.4452 22.1268 14.4228 22.2453 14.3613 22.3522L12.434 25.7711C12.3827 25.8636 12.3047 25.9453 12.2049 26.0002C11.9202 26.1621 11.5574 26.0595 11.3956 25.7747L9.49281 22.4006C9.41693 22.2901 9.37574 22.1549 9.38803 22.0111L10.0514 14.1494H8.33656C3.75131 14.1501 0 17.9007 0 22.4852V29.5542C0 30.2509 0.571621 30.8225 1.27043 30.8225H5.2277V25.8304C5.2277 25.5008 5.49436 25.2342 5.82389 25.2342C6.15342 25.2342 6.42008 25.5008 6.42008 25.8304V30.8225H17.4081V25.8304C17.4081 25.5008 17.674 25.2342 18.0043 25.2342C18.3338 25.2342 18.6026 25.5008 18.6026 25.8304V30.8225H22.5606C23.2572 30.8225 23.8289 30.2509 23.8289 29.5542V22.4852C23.8281 17.9007 20.0776 14.1501 15.4909 14.1501ZM11.9144 11.9481C15.1548 11.9481 17.7997 9.30322 17.7997 6.06283C17.7997 2.82027 15.1548 0.177519 11.9144 0.177519C8.67404 0.177519 6.02912 2.82027 6.02912 6.06283C6.02912 9.30322 8.67332 11.9481 11.9144 11.9481Z" fill="white"/>
</svg>
