<svg width="65" height="65" viewBox="0 0 65 65" fill="none" xmlns="http://www.w3.org/2000/svg">
<circle cx="32.5" cy="32.5" r="32.5" fill="#58B658"/>
<g clip-path="url(#clip0_1_288)">
<path d="M32.5 12C25.9986 12 20.5762 17.2371 20.5762 23.9238C20.5762 26.4677 21.3406 28.7361 22.8077 30.8618L31.5875 44.5619C32.0134 45.2279 32.9874 45.2266 33.4125 44.5619L42.2304 30.8151C43.6659 28.7859 44.4238 26.403 44.4238 23.9238C44.4238 17.349 39.0748 12 32.5 12ZM32.5 29.3438C29.5116 29.3438 27.0801 26.9122 27.0801 23.9238C27.0801 20.9354 29.5116 18.5039 32.5 18.5039C35.4884 18.5039 37.9199 20.9354 37.9199 23.9238C37.9199 26.9122 35.4884 29.3438 32.5 29.3438Z" fill="white"/>
<path d="M40.9742 36.9096L35.5159 45.4432C34.103 47.646 30.8891 47.6388 29.4831 45.4453L24.0159 36.9118C19.2056 38.024 16.2402 40.0614 16.2402 42.4961C16.2402 46.7209 24.6178 49 32.5 49C40.3822 49 48.7598 46.7209 48.7598 42.4961C48.7598 40.0597 45.7903 38.0212 40.9742 36.9096Z" fill="white"/>
</g>
<defs>
<clipPath id="clip0_1_288">
<rect width="37" height="37" fill="white" transform="translate(14 12)"/>
</clipPath>
</defs>
</svg>
