<svg width="33" height="37" viewBox="0 0 33 37" fill="none" xmlns="http://www.w3.org/2000/svg">
<path d="M16.5 0C9.99862 0 4.57617 5.23709 4.57617 11.9238C4.57617 14.4677 5.3406 16.7361 6.80766 18.8618L15.5875 32.5619C16.0134 33.2279 16.9874 33.2266 17.4125 32.5619L26.2304 18.8151C27.6659 16.7859 28.4238 14.403 28.4238 11.9238C28.4238 5.34903 23.0748 0 16.5 0ZM16.5 17.3438C13.5116 17.3438 11.0801 14.9122 11.0801 11.9238C11.0801 8.93543 13.5116 6.50391 16.5 6.50391C19.4884 6.50391 21.9199 8.93543 21.9199 11.9238C21.9199 14.9122 19.4884 17.3438 16.5 17.3438Z" fill="white"/>
<path d="M24.9742 24.9096L19.5159 33.4432C18.103 35.646 14.8891 35.6388 13.4831 33.4453L8.01587 24.9118C3.20558 26.024 0.240234 28.0614 0.240234 30.4961C0.240234 34.7209 8.61784 37 16.5 37C24.3822 37 32.7598 34.7209 32.7598 30.4961C32.7598 28.0597 29.7903 26.0212 24.9742 24.9096Z" fill="white"/>
</svg>
