<svg width="37" height="29" viewBox="0 0 37 29" fill="none" xmlns="http://www.w3.org/2000/svg">
<path d="M34.8822 18.5745C34.4814 17.8224 33.8344 17.8245 33.4376 18.5791L32.9464 19.512C32.5489 20.266 31.5367 20.8774 30.685 20.8774H29.5283C28.6758 20.8774 27.4814 21.3502 26.8601 21.9331L24.6265 24.0281L24.5414 16.7515C24.5981 15.4779 23.8098 15.0506 23.8098 15.0506L19.9057 13.2574L22.2305 8.58678L24.8906 10.1688C24.8906 10.1688 25.9589 10.8395 26.736 9.52497L29.2925 5.16867C29.4047 4.92569 29.4371 4.6464 29.3651 4.36711C29.2007 3.72802 28.5497 3.34109 27.9086 3.50549C27.6267 3.57744 27.3936 3.74646 27.2351 3.96899L25.1104 7.55675L20.776 4.99501C20.4492 4.80749 20.0497 4.74017 19.6535 4.84249L14.2441 6.23169C13.8968 6.32083 13.6254 6.56049 13.4834 6.86291L10.853 12.1218C10.6741 12.3879 10.6027 12.7246 10.6893 13.0613C10.847 13.6786 11.4802 14.053 12.1002 13.8939C12.4482 13.8048 12.7182 13.5664 12.8595 13.2614L15.2978 8.36894L17.2957 7.86518L12.0342 18.2166L7.47849 19.372C7.35704 19.3991 7.23821 19.4426 7.12201 19.4988C6.3904 19.8725 6.10848 20.754 6.48216 21.4875C6.80895 22.1273 7.53525 22.429 8.20147 22.2455L13.5917 20.8517C14.8759 20.5691 15.2013 19.854 15.2013 19.854L17.3128 15.7948L21.613 18.2582L21.6539 24.2111C21.6546 24.2857 21.6718 24.3603 21.683 24.4349L20.8821 24.1457C20.0806 23.8565 18.7713 23.8275 17.9572 24.0797L16.1527 24.6409C15.3387 24.8938 14.0267 24.8714 13.2219 24.5914L11.8948 24.1292C11.0899 23.8493 9.90414 24.0613 9.24524 24.6013L7.58814 25.9627C6.92916 26.5028 5.74668 26.7029 4.94713 26.4103L2.81983 25.63C2.02028 25.3361 1.05171 25.7099 0.656211 26.4652L0.158391 27.4173C-0.237104 28.172 0.133949 28.784 0.985698 28.784H34.5416C35.3933 28.784 36.22 28.1072 36.387 27.2714L36.9397 24.5109C37.106 23.6756 36.9172 22.3889 36.5157 21.6375L34.8822 18.5745Z" fill="white"/>
<path d="M22.5362 4.74293C23.7656 4.42794 24.5084 3.17414 24.1921 1.94478C23.8758 0.712724 22.622 -0.0267565 21.392 0.288852C20.1632 0.605151 19.4218 1.85695 19.7374 3.08762C20.0536 4.31837 21.3075 5.05916 22.5362 4.74293Z" fill="white"/>
</svg>
