<svg width="37" height="33" viewBox="0 0 37 33" fill="none" xmlns="http://www.w3.org/2000/svg">
<path d="M6.50391 0.875378L0.635143 6.74414H6.50391V0.875378Z" fill="white"/>
<path d="M13.0078 16.5C13.0078 11.1203 17.384 6.74414 22.7637 6.74414C23.1348 6.74414 23.4871 6.81308 23.8477 6.8537V0.240234H8.67188V8.91211H0V32.7598H23.8477V26.1463C23.4871 26.1869 23.1348 26.2559 22.7637 26.2559C17.384 26.2559 13.0078 21.8797 13.0078 16.5ZM5.41992 31.0406L2.48558 28.1063L4.0184 26.5735L5.41992 27.975L8.98948 24.4054L10.5223 25.9383L5.41992 31.0406ZM5.41992 24.5367L2.48558 21.6024L4.0184 20.0696L5.41992 21.4711L8.98948 17.9015L10.5223 19.4343L5.41992 24.5367ZM5.41992 18.0328L2.48558 15.0985L4.0184 13.5657L5.41992 14.9672L8.98948 11.3976L10.5223 12.9304L5.41992 18.0328Z" fill="white"/>
<path d="M37 29.2188L28.8221 21.0256C29.77 19.7591 30.3516 18.2035 30.3516 16.5C30.3516 12.3093 26.9544 8.91211 22.7637 8.91211C18.573 8.91211 15.1758 12.3093 15.1758 16.5C15.1758 20.6907 18.573 24.0879 22.7637 24.0879C24.4672 24.0879 26.0228 23.5064 27.2892 22.5584L35.4672 30.7516L37 29.2188Z" fill="white"/>
</svg>
