<svg width="64" height="65" viewBox="0 0 64 65" fill="none" xmlns="http://www.w3.org/2000/svg">
<ellipse cx="32" cy="32.5" rx="32" ry="32.5" fill="#58B658"/>
<path d="M37.5041 20.6071V14.1718C38.1486 14.3508 38.7367 14.6915 39.2128 15.1614L44.2713 20.22C44.7415 20.6958 45.0822 21.284 45.2611 21.9286H38.8256C38.4752 21.9282 38.1393 21.7889 37.8916 21.5411C37.6438 21.2934 37.5045 20.9575 37.5041 20.6071ZM45.4327 24.5714V47.0357C45.4316 48.0868 45.0135 49.0944 44.2703 49.8376C43.5271 50.5808 42.5195 50.9989 41.4684 51H22.9684C21.9174 50.9989 20.9097 50.5808 20.1665 49.8376C19.4233 49.0944 19.0053 48.0868 19.0042 47.0357V17.9643C19.0053 16.9132 19.4233 15.9056 20.1665 15.1624C20.9097 14.4192 21.9174 14.0011 22.9684 14H34.8613V20.6071C34.8624 21.6582 35.2805 22.6658 36.0237 23.409C36.7669 24.1522 37.7745 24.5703 38.8256 24.5714H45.4327ZM25.6113 39.1071C25.6113 38.8458 25.5338 38.5903 25.3886 38.373C25.2434 38.1557 25.037 37.9863 24.7956 37.8863C24.5541 37.7863 24.2884 37.7601 24.0321 37.8111C23.7757 37.8621 23.5403 37.9879 23.3555 38.1728C23.1707 38.3576 23.0448 38.593 22.9938 38.8493C22.9428 39.1057 22.969 39.3714 23.069 39.6128C23.169 39.8543 23.3384 40.0607 23.5557 40.2059C23.773 40.3511 24.0285 40.4286 24.2899 40.4286C24.6403 40.4286 24.9764 40.2894 25.2243 40.0415C25.4721 39.7937 25.6113 39.4576 25.6113 39.1071ZM25.6113 33.8214C25.6113 33.5601 25.5338 33.3046 25.3886 33.0873C25.2434 32.87 25.037 32.7006 24.7956 32.6006C24.5541 32.5006 24.2884 32.4744 24.0321 32.5254C23.7757 32.5764 23.5403 32.7022 23.3555 32.887C23.1707 33.0718 23.0448 33.3073 22.9938 33.5636C22.9428 33.82 22.969 34.0857 23.069 34.3271C23.169 34.5686 23.3384 34.775 23.5557 34.9202C23.773 35.0654 24.0285 35.1429 24.2899 35.1429C24.6403 35.1429 24.9764 35.0036 25.2243 34.7558C25.4721 34.508 25.6113 34.1719 25.6113 33.8214ZM25.6113 28.5357C25.6113 28.2744 25.5338 28.0189 25.3886 27.8016C25.2434 27.5843 25.037 27.4149 24.7956 27.3149C24.5541 27.2149 24.2884 27.1887 24.0321 27.2397C23.7757 27.2907 23.5403 27.4165 23.3555 27.6013C23.1707 27.7861 23.0448 28.0216 22.9938 28.2779C22.9428 28.5342 22.969 28.7999 23.069 29.0414C23.169 29.2829 23.3384 29.4892 23.5557 29.6344C23.773 29.7796 24.0285 29.8571 24.2899 29.8571C24.6403 29.8571 24.9764 29.7179 25.2243 29.4701C25.4721 29.2223 25.6113 28.8862 25.6113 28.5357ZM41.4684 39.1071C41.4685 38.9336 41.4343 38.7617 41.3679 38.6014C41.3015 38.4411 41.2042 38.2954 41.0815 38.1726C40.9588 38.0499 40.8131 37.9526 40.6528 37.8862C40.4924 37.8198 40.3206 37.7857 40.147 37.7857H28.2542C27.9037 37.7857 27.5676 37.9249 27.3198 38.1728C27.0719 38.4206 26.9327 38.7567 26.9327 39.1071C26.9327 39.4576 27.0719 39.7937 27.3198 40.0415C27.5676 40.2894 27.9037 40.4286 28.2542 40.4286H40.147C40.3206 40.4286 40.4924 40.3945 40.6528 40.3281C40.8131 40.2617 40.9588 40.1644 41.0815 40.0416C41.2042 39.9189 41.3015 39.7732 41.3679 39.6129C41.4343 39.4525 41.4685 39.2807 41.4684 39.1071ZM41.4684 33.8214C41.4685 33.6479 41.4343 33.476 41.3679 33.3157C41.3015 33.1553 41.2042 33.0097 41.0815 32.8869C40.9588 32.7642 40.8131 32.6669 40.6528 32.6005C40.4924 32.5341 40.3206 32.5 40.147 32.5H28.2542C27.9037 32.5 27.5676 32.6392 27.3198 32.887C27.0719 33.1349 26.9327 33.471 26.9327 33.8214C26.9327 34.1719 27.0719 34.508 27.3198 34.7558C27.5676 35.0036 27.9037 35.1429 28.2542 35.1429H40.147C40.3206 35.1429 40.4924 35.1088 40.6528 35.0424C40.8131 34.976 40.9588 34.8786 41.0815 34.7559C41.2042 34.6332 41.3015 34.4875 41.3679 34.3272C41.4343 34.1668 41.4685 33.995 41.4684 33.8214ZM41.4684 28.5357C41.4685 28.3622 41.4343 28.1903 41.3679 28.03C41.3015 27.8696 41.2042 27.7239 41.0815 27.6012C40.9588 27.4785 40.8131 27.3812 40.6528 27.3148C40.4924 27.2484 40.3206 27.2142 40.147 27.2143H28.2542C27.9037 27.2143 27.5676 27.3535 27.3198 27.6013C27.0719 27.8491 26.9327 28.1852 26.9327 28.5357C26.9327 28.8862 27.0719 29.2223 27.3198 29.4701C27.5676 29.7179 27.9037 29.8571 28.2542 29.8571H40.147C40.3206 29.8572 40.4924 29.823 40.6528 29.7566C40.8131 29.6903 40.9588 29.5929 41.0815 29.4702C41.2042 29.3475 41.3015 29.2018 41.3679 29.0415C41.4343 28.8811 41.4685 28.7093 41.4684 28.5357Z" fill="white"/>
</svg>
