<svg width="27" height="37" viewBox="0 0 27 37" fill="none" xmlns="http://www.w3.org/2000/svg">
<path d="M18.5042 6.60714V0.171786C19.1486 0.350839 19.7367 0.691472 20.2128 1.16142L25.2713 6.21996C25.7415 6.69583 26.0822 7.28399 26.2611 7.92857H19.8256C19.4752 7.92822 19.1393 7.78889 18.8916 7.54115C18.6438 7.29341 18.5045 6.9575 18.5042 6.60714ZM26.4327 10.5714V33.0357C26.4316 34.0868 26.0135 35.0944 25.2703 35.8376C24.5271 36.5808 23.5195 36.9989 22.4684 37H3.96844C2.91739 36.9989 1.90973 36.5808 1.16653 35.8376C0.423331 35.0944 0.00529765 34.0868 0.00415039 33.0357V3.96429C0.00529765 2.91324 0.423331 1.90558 1.16653 1.16238C1.90973 0.41918 2.91739 0.00114726 3.96844 0H15.8613V6.60714C15.8624 7.65818 16.2805 8.66585 17.0237 9.40905C17.7669 10.1522 18.7745 10.5703 19.8256 10.5714H26.4327ZM6.61129 25.1071C6.61129 24.8458 6.53379 24.5903 6.38859 24.373C6.24339 24.1557 6.03701 23.9863 5.79555 23.8863C5.55409 23.7863 5.2884 23.7601 5.03207 23.8111C4.77573 23.8621 4.54028 23.9879 4.35547 24.1728C4.17067 24.3576 4.04481 24.593 3.99383 24.8493C3.94284 25.1057 3.96901 25.3714 4.06902 25.6128C4.16904 25.8543 4.33841 26.0607 4.55572 26.2059C4.77303 26.3511 5.02851 26.4286 5.28986 26.4286C5.64033 26.4286 5.97644 26.2894 6.22426 26.0415C6.47207 25.7937 6.61129 25.4576 6.61129 25.1071ZM6.61129 19.8214C6.61129 19.5601 6.53379 19.3046 6.38859 19.0873C6.24339 18.87 6.03701 18.7006 5.79555 18.6006C5.55409 18.5006 5.2884 18.4744 5.03207 18.5254C4.77573 18.5764 4.54028 18.7022 4.35547 18.887C4.17067 19.0718 4.04481 19.3073 3.99383 19.5636C3.94284 19.82 3.96901 20.0857 4.06902 20.3271C4.16904 20.5686 4.33841 20.775 4.55572 20.9202C4.77303 21.0654 5.02851 21.1429 5.28986 21.1429C5.64033 21.1429 5.97644 21.0036 6.22426 20.7558C6.47207 20.508 6.61129 20.1719 6.61129 19.8214ZM6.61129 14.5357C6.61129 14.2744 6.53379 14.0189 6.38859 13.8016C6.24339 13.5843 6.03701 13.4149 5.79555 13.3149C5.55409 13.2149 5.2884 13.1887 5.03207 13.2397C4.77573 13.2907 4.54028 13.4165 4.35547 13.6013C4.17067 13.7861 4.04481 14.0216 3.99383 14.2779C3.94284 14.5342 3.96901 14.7999 4.06902 15.0414C4.16904 15.2829 4.33841 15.4892 4.55572 15.6344C4.77303 15.7796 5.02851 15.8571 5.28986 15.8571C5.64033 15.8571 5.97644 15.7179 6.22426 15.4701C6.47207 15.2223 6.61129 14.8862 6.61129 14.5357ZM22.4684 25.1071C22.4685 24.9336 22.4343 24.7617 22.3679 24.6014C22.3015 24.4411 22.2042 24.2954 22.0815 24.1726C21.9588 24.0499 21.8131 23.9526 21.6528 23.8862C21.4924 23.8198 21.3206 23.7857 21.147 23.7857H9.25415C8.90369 23.7857 8.56758 23.9249 8.31976 24.1728C8.07194 24.4206 7.93272 24.7567 7.93272 25.1071C7.93272 25.4576 8.07194 25.7937 8.31976 26.0415C8.56758 26.2894 8.90369 26.4286 9.25415 26.4286H21.147C21.3206 26.4286 21.4924 26.3945 21.6528 26.3281C21.8131 26.2617 21.9588 26.1644 22.0815 26.0416C22.2042 25.9189 22.3015 25.7732 22.3679 25.6129C22.4343 25.4525 22.4685 25.2807 22.4684 25.1071ZM22.4684 19.8214C22.4685 19.6479 22.4343 19.476 22.3679 19.3157C22.3015 19.1553 22.2042 19.0096 22.0815 18.8869C21.9588 18.7642 21.8131 18.6669 21.6528 18.6005C21.4924 18.5341 21.3206 18.5 21.147 18.5H9.25415C8.90369 18.5 8.56758 18.6392 8.31976 18.887C8.07194 19.1349 7.93272 19.471 7.93272 19.8214C7.93272 20.1719 8.07194 20.508 8.31976 20.7558C8.56758 21.0036 8.90369 21.1429 9.25415 21.1429H21.147C21.3206 21.1429 21.4924 21.1088 21.6528 21.0424C21.8131 20.976 21.9588 20.8786 22.0815 20.7559C22.2042 20.6332 22.3015 20.4875 22.3679 20.3272C22.4343 20.1668 22.4685 19.995 22.4684 19.8214ZM22.4684 14.5357C22.4685 14.3622 22.4343 14.1903 22.3679 14.03C22.3015 13.8696 22.2042 13.7239 22.0815 13.6012C21.9588 13.4785 21.8131 13.3812 21.6528 13.3148C21.4924 13.2484 21.3206 13.2142 21.147 13.2143H9.25415C8.90369 13.2143 8.56758 13.3535 8.31976 13.6013C8.07194 13.8491 7.93272 14.1852 7.93272 14.5357C7.93272 14.8862 8.07194 15.2223 8.31976 15.4701C8.56758 15.7179 8.90369 15.8571 9.25415 15.8571H21.147C21.3206 15.8572 21.4924 15.823 21.6528 15.7566C21.8131 15.6903 21.9588 15.5929 22.0815 15.4702C22.2042 15.3475 22.3015 15.2018 22.3679 15.0415C22.4343 14.8811 22.4685 14.7093 22.4684 14.5357Z" fill="white"/>
</svg>
