<svg width="64" height="65" viewBox="0 0 64 65" fill="none" xmlns="http://www.w3.org/2000/svg">
<ellipse cx="32" cy="32.5" rx="32" ry="32.5" fill="#58B658"/>
<path d="M45.6589 31.7517H42.7975C43.0891 32.5502 43.2485 33.412 43.2485 34.3102V45.1247C43.2485 45.4992 43.1833 45.8587 43.0647 46.193H47.7953C49.5624 46.193 51 44.7553 51 42.9883V37.0928C51.0001 34.1477 48.604 31.7517 45.6589 31.7517Z" fill="white"/>
<path d="M21.7516 34.3103C21.7516 33.412 21.9109 32.5503 22.2026 31.7518H19.3412C16.396 31.7518 14 34.1478 14 37.0929V42.9884C14 44.7555 15.4376 46.1931 17.2047 46.1931H21.9354C21.8168 45.8587 21.7516 45.4993 21.7516 45.1248V34.3103Z" fill="white"/>
<path d="M35.7709 28.9691H29.2292C26.2841 28.9691 23.888 31.3651 23.888 34.3102V45.1248C23.888 45.7147 24.3663 46.1931 24.9563 46.1931H40.0438C40.6338 46.1931 41.112 45.7148 41.112 45.1248V34.3102C41.112 31.3651 38.716 28.9691 35.7709 28.9691Z" fill="white"/>
<path d="M32.5 14.8068C28.9581 14.8068 26.0766 17.6883 26.0766 21.2303C26.0766 23.6328 27.4026 25.731 29.3609 26.8326C30.2897 27.3551 31.3605 27.6537 32.5 27.6537C33.6395 27.6537 34.7103 27.3551 35.6392 26.8326C37.5975 25.731 38.9234 23.6327 38.9234 21.2303C38.9234 17.6884 36.0419 14.8068 32.5 14.8068Z" fill="white"/>
<path d="M21.2206 20.7939C18.5717 20.7939 16.4168 22.9489 16.4168 25.5978C16.4168 28.2467 18.5717 30.4017 21.2206 30.4017C21.8926 30.4017 22.5324 30.2625 23.1136 30.0123C24.1186 29.5797 24.9472 28.8138 25.4599 27.8545C25.8198 27.1812 26.0245 26.413 26.0245 25.5978C26.0245 22.949 23.8695 20.7939 21.2206 20.7939Z" fill="white"/>
<path d="M43.7794 20.7939C41.1305 20.7939 38.9756 22.9489 38.9756 25.5978C38.9756 26.4131 39.1803 27.1812 39.5402 27.8545C40.0529 28.8139 40.8815 29.5797 41.8864 30.0123C42.4677 30.2625 43.1075 30.4017 43.7794 30.4017C46.4283 30.4017 48.5833 28.2467 48.5833 25.5978C48.5833 22.9489 46.4283 20.7939 43.7794 20.7939Z" fill="white"/>
</svg>
