<svg width="37" height="33" viewBox="0 0 37 33" fill="none" xmlns="http://www.w3.org/2000/svg">
<path d="M31.6589 17.7517H28.7975C29.0891 18.5502 29.2485 19.412 29.2485 20.3102V31.1247C29.2485 31.4992 29.1833 31.8587 29.0647 32.193H33.7953C35.5624 32.193 37 30.7553 37 28.9883V23.0928C37.0001 20.1477 34.604 17.7517 31.6589 17.7517Z" fill="white"/>
<path d="M7.75159 20.3103C7.75159 19.412 7.91093 18.5503 8.2026 17.7518H5.34116C2.39604 17.7518 0 20.1478 0 23.0929V28.9884C0 30.7555 1.43758 32.1931 3.2047 32.1931H7.93536C7.81677 31.8587 7.75159 31.4993 7.75159 31.1248V20.3103Z" fill="white"/>
<path d="M21.7709 14.9691H15.2292C12.2841 14.9691 9.88806 17.3651 9.88806 20.3102V31.1248C9.88806 31.7147 10.3663 32.1931 10.9563 32.1931H26.0438C26.6338 32.1931 27.112 31.7148 27.112 31.1248V20.3102C27.112 17.3651 24.716 14.9691 21.7709 14.9691Z" fill="white"/>
<path d="M18.5 0.806808C14.9581 0.806808 12.0766 3.68833 12.0766 7.2303C12.0766 9.63277 13.4026 11.731 15.3609 12.8326C16.2897 13.3551 17.3605 13.6537 18.5 13.6537C19.6395 13.6537 20.7103 13.3551 21.6392 12.8326C23.5975 11.731 24.9234 9.6327 24.9234 7.2303C24.9234 3.68841 22.0419 0.806808 18.5 0.806808Z" fill="white"/>
<path d="M7.22061 6.79395C4.57171 6.79395 2.41675 8.94891 2.41675 11.5978C2.41675 14.2467 4.57171 16.4017 7.22061 16.4017C7.89254 16.4017 8.53238 16.2625 9.11362 16.0123C10.1185 15.5797 10.9471 14.8138 11.4599 13.8545C11.8198 13.1812 12.0245 12.413 12.0245 11.5978C12.0245 8.94898 9.86952 6.79395 7.22061 6.79395Z" fill="white"/>
<path d="M29.7795 6.79395C27.1306 6.79395 24.9756 8.94891 24.9756 11.5978C24.9756 12.4131 25.1803 13.1812 25.5402 13.8545C26.0529 14.8139 26.8815 15.5797 27.8865 16.0123C28.4677 16.2625 29.1075 16.4017 29.7795 16.4017C32.4284 16.4017 34.5833 14.2467 34.5833 11.5978C34.5833 8.94891 32.4284 6.79395 29.7795 6.79395Z" fill="white"/>
</svg>
