<svg width="38" height="37" viewBox="0 0 38 37" fill="none" xmlns="http://www.w3.org/2000/svg">
<path d="M27.4036 8.09833H33.566L27.0801 1.72802V7.77526C27.0801 7.95331 27.2251 8.09833 27.4036 8.09833Z" fill="white"/>
<path d="M27.4036 10.1308C26.1047 10.1308 25.0478 9.07413 25.0478 7.77526V1.13818H8.14869C6.05779 1.13818 4.35686 2.83911 4.35686 4.93001V32.0339C4.35686 34.1248 6.05779 35.8257 8.14869 35.8257H30.3746C32.4657 35.8257 34.1664 34.1248 34.1664 32.0339V10.1308H27.4036ZM25.0807 27.4248H11.9913C11.4301 27.4248 10.9751 26.9698 10.9751 26.4086C10.9751 25.8473 11.4301 25.3923 11.9913 25.3923H25.0807C25.6421 25.3923 26.0969 25.8473 26.0969 26.4086C26.0969 26.9698 25.6421 27.4248 25.0807 27.4248ZM10.9751 22.3436C10.9751 21.7824 11.4301 21.3274 11.9913 21.3274H23.6717C24.2332 21.3274 24.6879 21.7824 24.6879 22.3436C24.6879 22.9049 24.2327 23.3599 23.6717 23.3599H11.9913C11.4301 23.3599 10.9751 22.9049 10.9751 22.3436ZM26.3164 19.2949H11.9913C11.4301 19.2949 10.9751 18.8399 10.9751 18.2787C10.9751 17.7174 11.4301 17.2625 11.9913 17.2625H26.3164C26.8777 17.2625 27.3327 17.7174 27.3327 18.2787C27.3327 18.8399 26.8777 19.2949 26.3164 19.2949Z" fill="white"/>
<rect x="9.65521" y="20.9667" width="16.0333" height="3.7" fill="white"/>
</svg>
