<svg width="65" height="65" viewBox="0 0 65 65" fill="none" xmlns="http://www.w3.org/2000/svg">
<circle cx="32.5" cy="32.5" r="32.5" fill="#58B658"/>
<path d="M41.4036 21.0979H47.566L41.0801 14.7275V20.7748C41.0801 20.9528 41.2251 21.0979 41.4036 21.0979Z" fill="white"/>
<path d="M41.4032 23.1303C40.1043 23.1303 39.0474 22.0736 39.0474 20.7748V14.1377H22.1483C20.0574 14.1377 18.3564 15.8386 18.3564 17.9295V45.0334C18.3564 47.1243 20.0574 48.8252 22.1483 48.8252H44.3742C46.4653 48.8252 48.166 47.1243 48.166 45.0334V23.1303H41.4032ZM39.0802 40.4243H25.9909C25.4297 40.4243 24.9747 39.9693 24.9747 39.4081C24.9747 38.8468 25.4297 38.3918 25.9909 38.3918H39.0802C39.6417 38.3918 40.0965 38.8468 40.0965 39.4081C40.0965 39.9693 39.6417 40.4243 39.0802 40.4243ZM24.9747 35.3431C24.9747 34.7819 25.4297 34.3269 25.9909 34.3269H37.6713C38.2327 34.3269 38.6875 34.7819 38.6875 35.3431C38.6875 35.9044 38.2323 36.3594 37.6713 36.3594H25.9909C25.4297 36.3594 24.9747 35.9044 24.9747 35.3431ZM40.316 32.2944H25.9909C25.4297 32.2944 24.9747 31.8395 24.9747 31.2782C24.9747 30.7169 25.4297 30.262 25.9909 30.262H40.316C40.8773 30.262 41.3323 30.7169 41.3323 31.2782C41.3323 31.8395 40.8773 32.2944 40.316 32.2944Z" fill="white"/>
<rect x="23.6553" y="33.9668" width="16.0333" height="3.7" fill="white"/>
</svg>
