<svg width="65" height="65" viewBox="0 0 65 65" fill="none" xmlns="http://www.w3.org/2000/svg">
<circle cx="32.5" cy="32.5" r="32.5" fill="#58B658"/>
<path d="M38.4775 13V22.25H47.7275L38.4775 13Z" fill="white"/>
<path d="M38.4775 24.5625C37.2034 24.5625 36.165 23.5242 36.165 22.25V13H22.29C21.0159 13 19.9775 14.0383 19.9775 15.3125V47.6875C19.9775 48.964 21.0159 50 22.29 50H45.415C46.6915 50 47.7275 48.964 47.7275 47.6875V24.5625H38.4775ZM29.2275 45.375H24.6025V38.4375H29.2275V45.375ZM36.165 45.375H31.54V33.8125H36.165V45.375ZM43.1025 45.375H38.4775V29.1875H43.1025V45.375Z" fill="white"/>
</svg>
