<svg width="24" height="27" viewBox="0 0 24 27" fill="none" xmlns="http://www.w3.org/2000/svg">
<path d="M16.2926 4.65674L12.8931 1.32073C12.6649 1.1143 12.3681 1 12.0604 1C11.7526 1 11.4559 1.1143 11.2277 1.32073L7.82812 4.65674" stroke="#01825C" stroke-width="0.8" stroke-miterlimit="10" stroke-linecap="round" stroke-linejoin="round"/>
<path d="M22.7489 10.9902L21.1504 12.5836" stroke="#01825C" stroke-width="0.8" stroke-miterlimit="10" stroke-linecap="round" stroke-linejoin="round"/>
<path d="M13.9844 19.7363L23.1219 24.7584" stroke="#01825C" stroke-width="0.8" stroke-miterlimit="10" stroke-linecap="round" stroke-linejoin="round"/>
<path d="M2.97394 12.5767L1.37891 10.9834" stroke="#01825C" stroke-width="0.8" stroke-miterlimit="10" stroke-linecap="round" stroke-linejoin="round"/>
<path d="M10.1375 19.7363L1 24.7584" stroke="#01825C" stroke-width="0.8" stroke-miterlimit="10" stroke-linecap="round" stroke-linejoin="round"/>
<path d="M17.8145 26.0002H21.8853C22.2145 26.0002 22.5303 25.8694 22.7631 25.6366C22.9959 25.4038 23.1267 25.0881 23.1267 24.7588V11.8818C23.1268 11.7147 23.0937 11.5491 23.0291 11.395C22.9646 11.2408 22.8699 11.101 22.7506 10.9838L21.1556 9.41797" stroke="#01825C" stroke-width="0.8" stroke-miterlimit="10" stroke-linecap="round" stroke-linejoin="round"/>
<path d="M1 17.8379V24.7589C1 25.0881 1.13078 25.4038 1.36358 25.6366C1.59638 25.8694 1.91212 26.0002 2.24135 26.0002H16.1691" stroke="#01825C" stroke-width="0.8" stroke-miterlimit="10" stroke-linecap="round" stroke-linejoin="round"/>
<path d="M2.973 9.4248L1.37797 10.9907C1.2588 11.1079 1.16418 11.2476 1.09962 11.4018C1.03506 11.556 1.00186 11.7215 1.00195 11.8886V16.193" stroke="#01825C" stroke-width="0.8" stroke-miterlimit="10" stroke-linecap="round" stroke-linejoin="round"/>
<path d="M21.1518 6.8066V5.91208C21.1518 5.57875 21.0194 5.25908 20.7837 5.02338C20.548 4.78768 20.2284 4.65527 19.895 4.65527H4.2314C3.89807 4.65527 3.57844 4.78768 3.34275 5.02338C3.10705 5.25908 2.97461 5.57875 2.97461 5.91208V12.5807L10.1411 19.7334L11.4666 19.0054C11.6505 18.9035 11.8573 18.85 12.0675 18.85C12.2778 18.85 12.4845 18.9035 12.6684 19.0054L13.9939 19.7334L21.1604 12.5807V8.41193" stroke="#01825C" stroke-width="0.8" stroke-miterlimit="10" stroke-linecap="round" stroke-linejoin="round"/>
<path d="M13.2484 10.944C13.2987 11.3576 13.1843 11.7744 12.9298 12.1043C12.6754 12.4342 12.3014 12.6508 11.8886 12.7073C11.4729 12.6556 11.0941 12.4432 10.8331 12.1155C10.5722 11.7878 10.45 11.371 10.4927 10.9543C10.4754 10.7496 10.4988 10.5435 10.5616 10.3478C10.6244 10.1522 10.7254 9.97102 10.8588 9.8147C10.9921 9.65837 11.1551 9.53005 11.3384 9.43714C11.5216 9.34424 11.7215 9.28859 11.9264 9.27344C12.6732 9.27515 13.2484 9.93617 13.2484 10.944Z" stroke="#01825C" stroke-width="0.8" stroke-miterlimit="10" stroke-linecap="round" stroke-linejoin="round"/>
<path d="M11.9856 14.4177C11.2454 14.3956 10.5321 14.1346 9.95224 13.6739C9.37238 13.2132 8.957 12.5773 8.76811 11.8612C8.54809 11.0126 8.66098 10.112 9.08364 9.34389C9.5063 8.57583 10.2067 7.99851 11.0413 7.73026C11.474 7.59225 11.9298 7.54171 12.3823 7.58158C12.8347 7.62145 13.2746 7.75094 13.6765 7.9625C14.0784 8.17407 14.4341 8.46348 14.7231 8.81387C15.012 9.16427 15.2283 9.56864 15.3594 10.0035C15.5325 10.676 15.472 11.3873 15.1877 12.0209C15.0989 12.2678 14.9374 12.482 14.7243 12.6353C14.5113 12.7886 14.2568 12.8736 13.9945 12.8793C13.7841 12.8631 13.5882 12.7657 13.4482 12.6078C13.3082 12.4498 13.2351 12.2437 13.2442 12.0329L13.2596 9.02825" stroke="#01825C" stroke-width="0.8" stroke-miterlimit="10" stroke-linecap="round" stroke-linejoin="round"/>
<path d="M15.3592 10.0029C15.5323 10.6754 15.4718 11.3868 15.1875 12.0203" stroke="#01825C" stroke-width="0.8" stroke-miterlimit="10" stroke-linecap="round" stroke-linejoin="round"/>
</svg>
