<svg width="19" height="18" viewBox="0 0 19 18" fill="none" xmlns="http://www.w3.org/2000/svg">
<g clip-path="url(#clip0_1_104)">
<path d="M10.7622 0.691529C10.6339 0.585779 10.464 0.541904 10.2998 0.572279L1.29979 2.25978C1.03316 2.30928 0.84079 2.54103 0.84079 2.81215V15.1872C0.84079 15.4572 1.03316 15.69 1.29979 15.7395L10.2998 17.427C10.3335 17.4338 10.3695 17.4372 10.4033 17.4372C10.5327 17.4372 10.6609 17.3922 10.7622 17.3078C10.8915 17.2009 10.9658 17.0412 10.9658 16.8747V1.12465C10.9658 0.957029 10.8915 0.798404 10.7622 0.691529ZM9.84079 16.1963L1.96579 14.7203V3.27903L9.84079 1.80303V16.1963Z" fill="#01825C"/>
<path d="M18.2783 2.81215H10.4033C10.0928 2.81215 9.84079 3.06415 9.84079 3.37465C9.84079 3.68515 10.0928 3.93715 10.4033 3.93715H17.7158V14.0621H10.4033C10.0928 14.0621 9.84079 14.3141 9.84079 14.6246C9.84079 14.9351 10.0928 15.1871 10.4033 15.1871H18.2783C18.5888 15.1871 18.8408 14.9351 18.8408 14.6246V3.37465C18.8408 3.06415 18.5888 2.81215 18.2783 2.81215Z" fill="#01825C"/>
<path d="M12.6533 5.06215H10.4033C10.0928 5.06215 9.84079 5.31415 9.84079 5.62465C9.84079 5.93515 10.0928 6.18715 10.4033 6.18715H12.6533C12.9638 6.18715 13.2158 5.93515 13.2158 5.62465C13.2158 5.31415 12.9638 5.06215 12.6533 5.06215Z" fill="#01825C"/>
<path d="M12.6533 7.31215H10.4033C10.0928 7.31215 9.84079 7.56415 9.84079 7.87465C9.84079 8.18515 10.0928 8.43715 10.4033 8.43715H12.6533C12.9638 8.43715 13.2158 8.18515 13.2158 7.87465C13.2158 7.56415 12.9638 7.31215 12.6533 7.31215Z" fill="#01825C"/>
<path d="M12.6533 9.56215H10.4033C10.0928 9.56215 9.84079 9.81415 9.84079 10.1246C9.84079 10.4351 10.0928 10.6871 10.4033 10.6871H12.6533C12.9638 10.6871 13.2158 10.4351 13.2158 10.1246C13.2158 9.81415 12.9638 9.56215 12.6533 9.56215Z" fill="#01825C"/>
<path d="M12.6533 11.8121H10.4033C10.0928 11.8121 9.84079 12.0641 9.84079 12.3746C9.84079 12.6851 10.0928 12.9371 10.4033 12.9371H12.6533C12.9638 12.9371 13.2158 12.6851 13.2158 12.3746C13.2158 12.0641 12.9638 11.8121 12.6533 11.8121Z" fill="#01825C"/>
<path d="M16.0283 5.06215H14.9033C14.5928 5.06215 14.3408 5.31415 14.3408 5.62465C14.3408 5.93515 14.5928 6.18715 14.9033 6.18715H16.0283C16.3388 6.18715 16.5908 5.93515 16.5908 5.62465C16.5908 5.31415 16.3388 5.06215 16.0283 5.06215Z" fill="#01825C"/>
<path d="M16.0283 7.31215H14.9033C14.5928 7.31215 14.3408 7.56415 14.3408 7.87465C14.3408 8.18515 14.5928 8.43715 14.9033 8.43715H16.0283C16.3388 8.43715 16.5908 8.18515 16.5908 7.87465C16.5908 7.56415 16.3388 7.31215 16.0283 7.31215Z" fill="#01825C"/>
<path d="M16.0283 9.56215H14.9033C14.5928 9.56215 14.3408 9.81415 14.3408 10.1246C14.3408 10.4351 14.5928 10.6871 14.9033 10.6871H16.0283C16.3388 10.6871 16.5908 10.4351 16.5908 10.1246C16.5908 9.81415 16.3388 9.56215 16.0283 9.56215Z" fill="#01825C"/>
<path d="M16.0283 11.8121H14.9033C14.5928 11.8121 14.3408 12.0641 14.3408 12.3746C14.3408 12.6851 14.5928 12.9371 14.9033 12.9371H16.0283C16.3388 12.9371 16.5908 12.6851 16.5908 12.3746C16.5908 12.0641 16.3388 11.8121 16.0283 11.8121Z" fill="#01825C"/>
<path d="M8.57741 10.8795L4.63991 6.37952C4.43291 6.1444 4.07854 6.1219 3.84566 6.32665C3.61166 6.5314 3.58804 6.8869 3.79279 7.11977L7.73029 11.6198C7.84166 11.7469 7.99691 11.8121 8.15329 11.8121C8.28491 11.8121 8.41654 11.766 8.52454 11.6726C8.75854 11.4679 8.78216 11.1135 8.57741 10.8795Z" fill="#01825C"/>
<path d="M8.49867 5.74389C8.25342 5.55152 7.90017 5.59764 7.70892 5.84177L3.77142 10.9043C3.58129 11.1495 3.62517 11.5039 3.87042 11.694C3.97392 11.7739 4.09542 11.8121 4.21579 11.8121C4.38229 11.8121 4.54879 11.7379 4.65904 11.5961L8.59654 6.53364C8.78779 6.28727 8.74392 5.93402 8.49867 5.74389Z" fill="#01825C"/>
</g>
<defs>
<clipPath id="clip0_1_104">
<rect width="18" height="18" fill="white" transform="translate(0.84079)"/>
</clipPath>
</defs>
</svg>
