<svg width="22" height="25" viewBox="0 0 22 25" fill="none" xmlns="http://www.w3.org/2000/svg">
<mask id="path-1-inside-1_2345_233" fill="white">
<path fill-rule="evenodd" clip-rule="evenodd" d="M17.5556 12.7596C17.5371 12.7919 17.5075 12.844 15.1644 16.5052C17.7023 16.894 21.9924 18.0486 21.9924 20.5966C21.9924 23.5067 16.274 24.9968 10.9928 24.9968C8.44889 25.0393 5.91532 24.6622 3.49408 23.8805C0.605708 22.8493 0 21.526 0 20.5983C0 18.0503 4.29502 16.894 6.8213 16.5052L4.45187 12.7975C3.7051 11.7665 3.213 10.5733 3.01579 9.31557C2.81858 8.05786 2.92188 6.77133 3.31723 5.5612C3.71258 4.35106 4.38875 3.25169 5.29046 2.35299C6.19216 1.45429 7.29378 0.781791 8.50523 0.390483C9.71668 -0.000824521 11.0035 -0.0998245 12.2606 0.10158C13.5176 0.302984 14.7092 0.799073 15.7377 1.54927C16.7663 2.29948 17.6026 3.28248 18.1784 4.41791C18.7542 5.55333 19.0531 6.80892 19.0506 8.082C19.0536 9.75026 18.5356 11.3778 17.5689 12.7374C17.5605 12.7509 17.5581 12.755 17.5556 12.7596ZM5.65327 11.9532L5.67663 11.9899L10.9945 20.333C16.3112 11.9918 16.3413 11.9391 16.3791 11.8925C16.3818 11.8892 16.3845 11.886 16.3891 11.8798C17.0879 10.8884 17.4999 9.72367 17.5799 8.51346C17.66 7.30325 17.405 6.09439 16.8429 5.01963C16.2809 3.94487 15.4335 3.04578 14.3939 2.42111C13.3543 1.79644 12.1627 1.47035 10.9498 1.47864C9.737 1.48694 8.54992 1.8293 7.51895 2.46813C6.48797 3.10696 5.65299 4.01755 5.10569 5.0999C4.55839 6.18224 4.31995 7.39448 4.41655 8.60348C4.51315 9.81248 4.94105 10.9715 5.65327 11.9532ZM1.46004 20.5966C1.46004 21.8347 5.22444 23.53 10.9928 23.53C16.7946 23.53 20.5256 21.8264 20.524 20.5966C20.524 19.764 18.59 18.3957 14.3034 17.8634L11.6102 22.09C11.5438 22.1937 11.4524 22.279 11.3443 22.3381C11.2363 22.3972 11.1151 22.4282 10.992 22.4282C10.8689 22.4282 10.7477 22.3972 10.6397 22.3381C10.5316 22.279 10.4402 22.1937 10.3738 22.09L7.68064 17.8634C3.39396 18.3974 1.46004 19.7623 1.46004 20.5966ZM8.95375 5.03468C9.55744 4.63131 10.2672 4.41602 10.9932 4.41602C11.9668 4.41602 12.9005 4.80278 13.589 5.49121C14.2774 6.17965 14.6642 7.11337 14.6642 8.08697C14.6642 8.81302 14.4489 9.52276 14.0455 10.1264C13.6421 10.7301 13.0688 11.2006 12.398 11.4785C11.7273 11.7563 10.9892 11.829 10.2771 11.6874C9.56496 11.5457 8.91086 11.1961 8.39746 10.6827C7.88407 10.1693 7.53445 9.51523 7.3928 8.80314C7.25116 8.09104 7.32386 7.35294 7.6017 6.68216C7.87955 6.01138 8.35006 5.43805 8.95375 5.03468ZM9.77157 9.91235C10.1332 10.1539 10.5583 10.2829 10.9932 10.2829C11.5765 10.282 12.1356 10.0498 12.5479 9.63716C12.9602 9.22456 13.192 8.66526 13.1925 8.08197C13.1921 7.64707 13.0629 7.22203 12.821 6.86059C12.5792 6.49915 12.2356 6.21753 11.8337 6.05133C11.4318 5.88513 10.9897 5.84181 10.5632 5.92686C10.1367 6.01191 9.74494 6.22149 9.43754 6.52913C9.13014 6.83676 8.92085 7.22863 8.83612 7.6552C8.7514 8.08176 8.79505 8.52387 8.96155 8.92563C9.12806 9.32739 9.40994 9.67077 9.77157 9.91235Z"/>
</mask>
<path fill-rule="evenodd" clip-rule="evenodd" d="M17.5556 12.7596C17.5371 12.7919 17.5075 12.844 15.1644 16.5052C17.7023 16.894 21.9924 18.0486 21.9924 20.5966C21.9924 23.5067 16.274 24.9968 10.9928 24.9968C8.44889 25.0393 5.91532 24.6622 3.49408 23.8805C0.605708 22.8493 0 21.526 0 20.5983C0 18.0503 4.29502 16.894 6.8213 16.5052L4.45187 12.7975C3.7051 11.7665 3.213 10.5733 3.01579 9.31557C2.81858 8.05786 2.92188 6.77133 3.31723 5.5612C3.71258 4.35106 4.38875 3.25169 5.29046 2.35299C6.19216 1.45429 7.29378 0.781791 8.50523 0.390483C9.71668 -0.000824521 11.0035 -0.0998245 12.2606 0.10158C13.5176 0.302984 14.7092 0.799073 15.7377 1.54927C16.7663 2.29948 17.6026 3.28248 18.1784 4.41791C18.7542 5.55333 19.0531 6.80892 19.0506 8.082C19.0536 9.75026 18.5356 11.3778 17.5689 12.7374C17.5605 12.7509 17.5581 12.755 17.5556 12.7596ZM5.65327 11.9532L5.67663 11.9899L10.9945 20.333C16.3112 11.9918 16.3413 11.9391 16.3791 11.8925C16.3818 11.8892 16.3845 11.886 16.3891 11.8798C17.0879 10.8884 17.4999 9.72367 17.5799 8.51346C17.66 7.30325 17.405 6.09439 16.8429 5.01963C16.2809 3.94487 15.4335 3.04578 14.3939 2.42111C13.3543 1.79644 12.1627 1.47035 10.9498 1.47864C9.737 1.48694 8.54992 1.8293 7.51895 2.46813C6.48797 3.10696 5.65299 4.01755 5.10569 5.0999C4.55839 6.18224 4.31995 7.39448 4.41655 8.60348C4.51315 9.81248 4.94105 10.9715 5.65327 11.9532ZM1.46004 20.5966C1.46004 21.8347 5.22444 23.53 10.9928 23.53C16.7946 23.53 20.5256 21.8264 20.524 20.5966C20.524 19.764 18.59 18.3957 14.3034 17.8634L11.6102 22.09C11.5438 22.1937 11.4524 22.279 11.3443 22.3381C11.2363 22.3972 11.1151 22.4282 10.992 22.4282C10.8689 22.4282 10.7477 22.3972 10.6397 22.3381C10.5316 22.279 10.4402 22.1937 10.3738 22.09L7.68064 17.8634C3.39396 18.3974 1.46004 19.7623 1.46004 20.5966ZM8.95375 5.03468C9.55744 4.63131 10.2672 4.41602 10.9932 4.41602C11.9668 4.41602 12.9005 4.80278 13.589 5.49121C14.2774 6.17965 14.6642 7.11337 14.6642 8.08697C14.6642 8.81302 14.4489 9.52276 14.0455 10.1264C13.6421 10.7301 13.0688 11.2006 12.398 11.4785C11.7273 11.7563 10.9892 11.829 10.2771 11.6874C9.56496 11.5457 8.91086 11.1961 8.39746 10.6827C7.88407 10.1693 7.53445 9.51523 7.3928 8.80314C7.25116 8.09104 7.32386 7.35294 7.6017 6.68216C7.87955 6.01138 8.35006 5.43805 8.95375 5.03468ZM9.77157 9.91235C10.1332 10.1539 10.5583 10.2829 10.9932 10.2829C11.5765 10.282 12.1356 10.0498 12.5479 9.63716C12.9602 9.22456 13.192 8.66526 13.1925 8.08197C13.1921 7.64707 13.0629 7.22203 12.821 6.86059C12.5792 6.49915 12.2356 6.21753 11.8337 6.05133C11.4318 5.88513 10.9897 5.84181 10.5632 5.92686C10.1367 6.01191 9.74494 6.22149 9.43754 6.52913C9.13014 6.83676 8.92085 7.22863 8.83612 7.6552C8.7514 8.08176 8.79505 8.52387 8.96155 8.92563C9.12806 9.32739 9.40994 9.67077 9.77157 9.91235Z" fill="#01825C"/>
<path d="M15.1644 16.5052L14.9959 16.3974L14.8302 16.6563L15.1341 16.7029L15.1644 16.5052ZM17.5556 12.7596L17.3817 12.6606L17.3817 12.6607L17.5556 12.7596ZM10.9928 24.9968V24.7967L10.9895 24.7968L10.9928 24.9968ZM3.49408 23.8805L3.4268 24.0689L3.43263 24.0708L3.49408 23.8805ZM6.8213 16.5052L6.85172 16.7028L7.15514 16.6562L6.98983 16.3975L6.8213 16.5052ZM4.45187 12.7975L4.62068 12.6896L4.61385 12.6802L4.45187 12.7975ZM3.01579 9.31557L2.8182 9.34655L2.8182 9.34655L3.01579 9.31557ZM3.31723 5.5612L3.50734 5.6233L3.50734 5.6233L3.31723 5.5612ZM5.29046 2.35299L5.14927 2.21133L5.14927 2.21133L5.29046 2.35299ZM8.50523 0.390483L8.5667 0.580801L8.5667 0.580801L8.50523 0.390483ZM12.2606 0.10158L12.2922 -0.0959015L12.2606 0.10158ZM15.7377 1.54927L15.8556 1.38769L15.8556 1.38769L15.7377 1.54927ZM18.1784 4.41791L18.0001 4.50837L18.0001 4.50837L18.1784 4.41791ZM19.0506 8.082L18.8506 8.08161L18.8506 8.08236L19.0506 8.082ZM17.5689 12.7374L17.4055 12.6213L17.399 12.6319L17.5689 12.7374ZM5.67663 11.9899L5.5079 12.0973L5.50798 12.0974L5.67663 11.9899ZM5.65327 11.9532L5.82232 11.8456L5.81516 11.8357L5.65327 11.9532ZM10.9945 20.333L10.8259 20.4405L10.9945 20.7051L11.1632 20.4405L10.9945 20.333ZM16.3791 11.8925L16.2238 11.7665L16.2238 11.7665L16.3791 11.8925ZM16.3891 11.8798L16.5492 11.9998L16.5526 11.995L16.3891 11.8798ZM17.5799 8.51346L17.3804 8.50026L17.3804 8.50026L17.5799 8.51346ZM16.8429 5.01963L16.6657 5.11231L16.6657 5.11231L16.8429 5.01963ZM14.3939 2.42111L14.2909 2.59255L14.2909 2.59255L14.3939 2.42111ZM10.9498 1.47864L10.9485 1.27865L10.9498 1.47864ZM7.51895 2.46813L7.4136 2.29812L7.4136 2.29812L7.51895 2.46813ZM4.41655 8.60348L4.61591 8.58755L4.61591 8.58755L4.41655 8.60348ZM20.524 20.5966L20.324 20.5966L20.324 20.5969L20.524 20.5966ZM14.3034 17.8634L14.328 17.665L14.2026 17.6494L14.1347 17.756L14.3034 17.8634ZM11.6102 22.09L11.7786 22.1979L11.7789 22.1975L11.6102 22.09ZM10.6397 22.3381L10.5437 22.5136L10.5437 22.5136L10.6397 22.3381ZM10.3738 22.09L10.2051 22.1975L10.2054 22.1979L10.3738 22.09ZM7.68064 17.8634L7.84931 17.756L7.78137 17.6493L7.65592 17.665L7.68064 17.8634ZM8.95375 5.03468L9.06486 5.20098L9.06486 5.20098L8.95375 5.03468ZM14.0455 10.1264L14.2118 10.2376L14.2118 10.2376L14.0455 10.1264ZM12.398 11.4785L12.4746 11.6633L12.4746 11.6633L12.398 11.4785ZM10.2771 11.6874L10.3161 11.4912L10.3161 11.4912L10.2771 11.6874ZM8.39746 10.6827L8.25604 10.8241L8.25604 10.8241L8.39746 10.6827ZM7.3928 8.80314L7.58896 8.76412L7.58896 8.76412L7.3928 8.80314ZM10.9932 10.2829L10.9932 10.4829L10.9935 10.4829L10.9932 10.2829ZM9.77157 9.91235L9.88266 9.74604L9.88266 9.74604L9.77157 9.91235ZM13.1925 8.08197L13.3925 8.08212L13.3925 8.08181L13.1925 8.08197ZM12.821 6.86059L12.6548 6.97181L12.6548 6.97181L12.821 6.86059ZM11.8337 6.05133L11.9101 5.86651L11.9101 5.86651L11.8337 6.05133ZM10.5632 5.92686L10.524 5.73072L10.524 5.73072L10.5632 5.92686ZM8.83612 7.6552L9.03229 7.69416L9.03229 7.69416L8.83612 7.6552ZM8.96155 8.92563L9.14632 8.84906L9.14631 8.84906L8.96155 8.92563ZM15.3328 16.613C17.6728 12.9569 17.7076 12.8969 17.7294 12.8584L17.3817 12.6607C17.3667 12.687 17.3423 12.7311 14.9959 16.3974L15.3328 16.613ZM22.1924 20.5966C22.1924 19.1953 21.0143 18.2204 19.6155 17.5603C18.2007 16.8927 16.4721 16.5032 15.1947 16.3075L15.1341 16.7029C16.3946 16.896 18.08 17.2781 19.4448 17.9221C20.8254 18.5735 21.7924 19.45 21.7924 20.5966H22.1924ZM10.9928 25.1968C13.6486 25.1968 16.4224 24.8225 18.5395 24.0766C19.5974 23.7039 20.5038 23.234 21.1491 22.6614C21.7968 22.0867 22.1924 21.3973 22.1924 20.5966H21.7924C21.7924 21.2509 21.4731 21.8391 20.8836 22.3622C20.2917 22.8875 19.4384 23.3358 18.4066 23.6993C16.3442 24.426 13.6182 24.7968 10.9928 24.7968V25.1968ZM3.43263 24.0708C5.87479 24.8593 8.43025 25.2397 10.9962 25.1967L10.9895 24.7968C8.46752 24.839 5.95585 24.4651 3.55553 23.6901L3.43263 24.0708ZM-0.2 20.5983C-0.2 21.1102 -0.0312262 21.7205 0.514517 22.3336C1.05659 22.9425 1.96332 23.5463 3.42684 24.0688L3.56133 23.6921C2.13647 23.1834 1.29616 22.61 0.813284 22.0676C0.33408 21.5293 0.2 21.0141 0.2 20.5983H-0.2ZM6.79088 16.3075C5.51926 16.5032 3.79242 16.8932 2.37789 17.5612C0.979345 18.2216 -0.2 19.1969 -0.2 20.5983H0.2C0.2 19.4517 1.16816 18.5748 2.5487 17.9229C3.91325 17.2785 5.59705 16.8959 6.85172 16.7028L6.79088 16.3075ZM4.28334 12.9052L6.65278 16.6129L6.98983 16.3975L4.62039 12.6898L4.28334 12.9052ZM2.8182 9.34655C3.0203 10.6354 3.52461 11.8582 4.28989 12.9148L4.61385 12.6802C3.8856 11.6747 3.40569 10.5111 3.21337 9.28459L2.8182 9.34655ZM3.12711 5.49909C2.72196 6.73923 2.61611 8.05766 2.8182 9.34655L3.21337 9.28459C3.02106 8.05806 3.12179 6.80343 3.50734 5.6233L3.12711 5.49909ZM5.14927 2.21133C4.22521 3.13232 3.53227 4.25895 3.12711 5.49909L3.50734 5.6233C3.89289 4.44318 4.55229 3.37106 5.43164 2.49465L5.14927 2.21133ZM8.44375 0.200165C7.20227 0.601176 6.07333 1.29035 5.14927 2.21133L5.43164 2.49465C6.31099 1.61823 7.38529 0.962406 8.5667 0.580801L8.44375 0.200165ZM12.2922 -0.0959015C11.004 -0.3023 9.68524 -0.200845 8.44375 0.200165L8.5667 0.580801C9.74811 0.199196 11.0031 0.102651 12.2289 0.299061L12.2922 -0.0959015ZM15.8556 1.38769C14.8015 0.618886 13.5804 0.110497 12.2922 -0.0959015L12.2289 0.299061C13.4548 0.495472 14.6168 0.97926 15.6199 1.71086L15.8556 1.38769ZM18.3568 4.32745C17.7667 3.16387 16.9096 2.15649 15.8556 1.38769L15.6199 1.71086C16.6229 2.44246 17.4385 3.4011 18.0001 4.50837L18.3568 4.32745ZM19.2506 8.08239C19.2532 6.77775 18.9469 5.49103 18.3568 4.32745L18.0001 4.50837C18.5616 5.61564 18.853 6.8401 18.8506 8.08161L19.2506 8.08239ZM17.7319 12.8533C18.7227 11.4598 19.2536 9.79156 19.2506 8.08164L18.8506 8.08236C18.8535 9.70896 18.3484 11.2959 17.4059 12.6215L17.7319 12.8533ZM17.7294 12.8585C17.7305 12.8565 17.731 12.8557 17.7319 12.8542C17.7329 12.8524 17.7349 12.8491 17.7387 12.843L17.399 12.6319C17.3893 12.6474 17.3857 12.6537 17.3817 12.6606L17.7294 12.8585ZM5.84536 11.8825L5.822 11.8458L5.48454 12.0606L5.5079 12.0973L5.84536 11.8825ZM11.1632 20.2255L5.84528 11.8824L5.50798 12.0974L10.8259 20.4405L11.1632 20.2255ZM16.2238 11.7665C16.2056 11.789 16.1892 11.8132 16.1013 11.9498C16.0098 12.0921 15.8361 12.3641 15.4977 12.8948C14.8209 13.9564 13.4841 16.055 10.8259 20.2255L11.1632 20.4405C13.8215 16.2698 15.1582 14.1715 15.835 13.1098C16.1735 12.5788 16.3467 12.3076 16.4377 12.1662C16.5322 12.0192 16.5338 12.0193 16.5344 12.0186L16.2238 11.7665ZM16.2291 11.7598C16.228 11.7613 16.2273 11.7622 16.2269 11.7627C16.2261 11.7637 16.226 11.7638 16.2238 11.7665L16.5344 12.0186C16.5367 12.0157 16.5418 12.0095 16.5491 11.9998L16.2291 11.7598ZM17.3804 8.50026C17.3027 9.67379 16.9032 10.8032 16.2257 11.7645L16.5526 11.995C17.2725 10.9736 17.697 9.77355 17.7795 8.52666L17.3804 8.50026ZM16.6657 5.11231C17.2107 6.1545 17.458 7.32673 17.3804 8.50026L17.7795 8.52666C17.862 7.27978 17.5993 6.03428 17.0202 4.92695L16.6657 5.11231ZM14.2909 2.59255C15.299 3.19829 16.1207 4.07012 16.6657 5.11231L17.0202 4.92695C16.4411 3.81962 15.568 2.89328 14.4969 2.24968L14.2909 2.59255ZM10.9512 1.67864C12.1273 1.67059 13.2828 1.98681 14.2909 2.59255L14.4969 2.24968C13.4258 1.60608 12.198 1.2701 10.9485 1.27865L10.9512 1.67864ZM7.62429 2.63814C8.62402 2.01867 9.77513 1.68668 10.9512 1.67864L10.9485 1.27865C9.69888 1.28719 8.47582 1.63993 7.4136 2.29812L7.62429 2.63814ZM5.28417 5.19015C5.81488 4.1406 6.62456 3.25761 7.62429 2.63814L7.4136 2.29812C6.35139 2.95631 5.49109 3.8945 4.92721 5.00965L5.28417 5.19015ZM4.61591 8.58755C4.52224 7.41519 4.75346 6.23969 5.28417 5.19015L4.92721 5.00965C4.36332 6.1248 4.11765 7.37377 4.21718 8.61941L4.61591 8.58755ZM5.81516 11.8357C5.12452 10.8838 4.70958 9.75991 4.61591 8.58755L4.21718 8.61941C4.31671 9.86505 4.75758 11.0592 5.49139 12.0706L5.81516 11.8357ZM10.9928 23.33C8.12663 23.33 5.76627 22.9087 4.12904 22.3387C3.30938 22.0534 2.67935 21.7338 2.25853 21.4174C1.827 21.093 1.66004 20.8069 1.66004 20.5966H1.26004C1.26004 21.0054 1.56363 21.3955 2.01818 21.7372C2.48345 22.0869 3.15504 22.4232 3.99754 22.7165C5.68461 23.3038 8.09064 23.73 10.9928 23.73V23.33ZM20.324 20.5969C20.3243 20.8054 20.1593 21.0903 19.7307 21.4142C19.3128 21.7301 18.6861 22.0499 17.8687 22.3357C16.236 22.9066 13.8757 23.33 10.9928 23.33V23.73C13.9117 23.73 16.3179 23.3017 18.0007 22.7133C18.8411 22.4194 19.5095 22.0828 19.9719 21.7333C20.4237 21.3919 20.7245 21.0028 20.724 20.5963L20.324 20.5969ZM14.2787 18.0619C16.4068 18.3262 17.9382 18.7966 18.9313 19.2961C19.4283 19.5461 19.7837 19.7999 20.0119 20.033C20.2439 20.2701 20.324 20.464 20.324 20.5966H20.724C20.724 20.3129 20.5623 20.0235 20.2978 19.7532C20.0293 19.479 19.6333 19.2014 19.111 18.9387C18.0655 18.4128 16.4866 17.933 14.328 17.665L14.2787 18.0619ZM11.7789 22.1975L14.472 17.9709L14.1347 17.756L11.4416 21.9826L11.7789 22.1975ZM11.4403 22.5136C11.5778 22.4384 11.6941 22.3298 11.7786 22.1979L11.4418 21.9821C11.3935 22.0576 11.327 22.1197 11.2484 22.1627L11.4403 22.5136ZM10.992 22.6282C11.1487 22.6282 11.3029 22.5888 11.4403 22.5136L11.2484 22.1627C11.1698 22.2057 11.0816 22.2282 10.992 22.2282V22.6282ZM10.5437 22.5136C10.6812 22.5888 10.8353 22.6282 10.992 22.6282V22.2282C10.9024 22.2282 10.8143 22.2057 10.7357 22.1627L10.5437 22.5136ZM10.2054 22.1979C10.2899 22.3298 10.4062 22.4384 10.5437 22.5136L10.7357 22.1627C10.657 22.1197 10.5905 22.0576 10.5422 21.9821L10.2054 22.1979ZM7.51197 17.9709L10.2051 22.1975L10.5425 21.9826L7.84931 17.756L7.51197 17.9709ZM1.66004 20.5966C1.66004 20.4635 1.74014 20.2695 1.97211 20.0326C2.20024 19.7995 2.55561 19.5459 3.05264 19.2961C4.04576 18.797 5.57721 18.327 7.70536 18.0619L7.65592 17.665C5.49739 17.9338 3.91854 18.4133 2.87303 18.9387C2.35075 19.2012 1.95472 19.4785 1.68627 19.7528C1.42168 20.0231 1.26004 20.3126 1.26004 20.5966H1.66004ZM10.9932 4.21602C10.2276 4.21602 9.47921 4.44304 8.84264 4.86839L9.06486 5.20098C9.63566 4.81958 10.3067 4.61602 10.9932 4.61602V4.21602ZM13.7304 5.34979C13.0045 4.62385 12.0199 4.21602 10.9932 4.21602V4.61602C11.9138 4.61602 12.7966 4.98171 13.4476 5.63264L13.7304 5.34979ZM14.8642 8.08697C14.8642 7.06033 14.4563 6.07574 13.7304 5.34979L13.4476 5.63264C14.0985 6.28357 14.4642 7.16642 14.4642 8.08697H14.8642ZM14.2118 10.2376C14.6371 9.60098 14.8642 8.85257 14.8642 8.08697H14.4642C14.4642 8.77346 14.2606 9.44453 13.8792 10.0153L14.2118 10.2376ZM12.4746 11.6633C13.1819 11.3703 13.7865 10.8741 14.2118 10.2376L13.8792 10.0153C13.4978 10.5861 12.9557 11.031 12.3215 11.2937L12.4746 11.6633ZM10.238 11.8835C10.9889 12.0329 11.7672 11.9562 12.4746 11.6633L12.3215 11.2937C11.6873 11.5564 10.9894 11.6252 10.3161 11.4912L10.238 11.8835ZM8.25604 10.8241C8.79741 11.3655 9.48714 11.7342 10.238 11.8835L10.3161 11.4912C9.64277 11.3573 9.02431 11.0267 8.53889 10.5413L8.25604 10.8241ZM7.19665 8.84216C7.34601 9.59305 7.71468 10.2828 8.25604 10.8241L8.53889 10.5413C8.05346 10.0559 7.72289 9.43742 7.58896 8.76412L7.19665 8.84216ZM7.41693 6.60562C7.12394 7.31294 7.04729 8.09126 7.19665 8.84216L7.58896 8.76412C7.45503 8.09082 7.52377 7.39293 7.78648 6.75869L7.41693 6.60562ZM8.84264 4.86839C8.20606 5.29374 7.70991 5.8983 7.41693 6.60562L7.78648 6.75869C8.04919 6.12446 8.49407 5.58237 9.06486 5.20098L8.84264 4.86839ZM10.9932 10.0829C10.5979 10.0829 10.2114 9.96565 9.88266 9.74604L9.66047 10.0787C10.055 10.3422 10.5188 10.4829 10.9932 10.4829V10.0829ZM12.4065 9.49579C12.0316 9.87093 11.5232 10.0821 10.9929 10.0829L10.9935 10.4829C11.6298 10.4819 12.2397 10.2286 12.6894 9.77853L12.4065 9.49579ZM12.9925 8.08181C12.9921 8.61214 12.7813 9.12065 12.4065 9.49579L12.6894 9.77853C13.1391 9.32846 13.392 8.71837 13.3925 8.08212L12.9925 8.08181ZM12.6548 6.97181C12.8747 7.30039 12.9922 7.68677 12.9925 8.08212L13.3925 8.08181C13.3921 7.60737 13.2511 7.14368 12.9872 6.74937L12.6548 6.97181ZM11.7572 6.23615C12.1226 6.38723 12.4349 6.64324 12.6548 6.97181L12.9872 6.74937C12.7234 6.35505 12.3485 6.04782 11.9101 5.86651L11.7572 6.23615ZM10.6023 6.123C10.99 6.04569 11.3919 6.08506 11.7572 6.23615L11.9101 5.86651C11.4717 5.68519 10.9893 5.63794 10.524 5.73072L10.6023 6.123ZM9.57901 6.6705C9.85846 6.39084 10.2145 6.20031 10.6023 6.123L10.524 5.73072C10.0588 5.8235 9.63142 6.05215 9.29606 6.38776L9.57901 6.6705ZM9.03229 7.69416C9.10931 7.30639 9.29957 6.95015 9.57901 6.6705L9.29606 6.38776C8.96071 6.72337 8.73238 7.15088 8.63996 7.61623L9.03229 7.69416ZM9.14631 8.84906C8.99495 8.48383 8.95527 8.08193 9.03229 7.69416L8.63996 7.61623C8.54753 8.08159 8.59515 8.5639 8.77679 9.0022L9.14631 8.84906ZM9.88266 9.74604C9.55392 9.52643 9.29768 9.21428 9.14632 8.84906L8.77679 9.0022C8.95844 9.4405 9.26595 9.8151 9.66047 10.0787L9.88266 9.74604Z" fill="white" mask="url(#path-1-inside-1_2345_233)"/>
</svg>
