<svg width="15" height="20" viewBox="0 0 15 20" fill="none" xmlns="http://www.w3.org/2000/svg">
<path d="M14.4608 4.78916L10.7108 1.03915C10.6218 0.950123 10.5012 0.9 10.375 0.9H2.49998C1.61748 0.9 0.9 1.61749 0.9 2.50001V17.5C0.9 18.3825 1.61749 19.1 2.50001 19.1H13C13.8825 19.1 14.6 18.3825 14.6 17.5V5.12499C14.6 4.99881 14.5499 4.87819 14.4608 4.78916ZM10.85 4.00002V2.52171L12.9783 4.65001H11.5C11.1418 4.65001 10.85 4.35823 10.85 4.00002ZM13.65 17.5C13.65 17.8582 13.3582 18.15 13 18.15H2.50001C2.1418 18.15 1.85002 17.8582 1.85002 17.5V2.50001C1.85002 2.1418 2.1418 1.85002 2.50001 1.85002H9.9V4.00002C9.9 4.88251 10.6175 5.6 11.5 5.6H13.65V17.5Z" fill="#01825C" stroke="#01825C" stroke-width="0.2"/>
<path d="M8.49575 12.1375C8.33841 12.0003 8.22062 11.8923 8.16421 11.8359L8.49575 12.1375ZM8.49575 12.1375C8.15169 12.2163 7.79524 12.308 7.44637 12.4128C7.44778 12.4085 7.44918 12.4042 7.45059 12.4L7.35562 12.3687M8.49575 12.1375L7.32877 12.4487C7.33784 12.4221 7.34679 12.3955 7.35562 12.3687M7.35562 12.3687C7.38312 12.2861 7.41009 12.2053 7.43651 12.126C7.52956 11.847 7.61591 11.588 7.69567 11.3474C7.7212 11.3753 7.74704 11.4033 7.77319 11.4313M7.35562 12.3687L7.45049 12.4003C7.47795 12.3179 7.50487 12.2372 7.53126 12.158C7.61763 11.899 7.69825 11.6572 7.77319 11.4313M7.77319 11.4313C7.89662 11.5638 8.02696 11.6986 8.1642 11.8359L7.77319 11.4313ZM6.03757 12.9501L6.03757 12.9501C5.74871 13.0946 5.47391 13.2249 5.21734 13.3465L5.19576 13.3568L5.19569 13.3568L5.18937 13.3598C4.5968 13.6403 4.09154 13.8795 3.73571 14.1429C3.37498 14.4099 3.15 14.715 3.15 15.1295C3.15 15.4388 3.31907 15.6841 3.5521 15.8481C3.78402 16.0114 4.08577 16.1 4.375 16.1C4.76298 16.1 5.22462 15.8449 5.67693 15.4104C6.12655 14.9784 6.5816 14.3556 6.96671 13.5788C7.73536 13.2802 8.68105 13.0559 9.44284 12.912C9.7475 13.145 10.0674 13.3726 10.3547 13.5446C10.5039 13.6339 10.6462 13.7093 10.7743 13.7626C10.9004 13.8152 11.0213 13.85 11.125 13.85C11.6094 13.85 11.9223 13.7093 12.1118 13.4903C12.2989 13.274 12.35 12.9992 12.35 12.7616C12.35 12.5195 12.2803 12.33 12.1613 12.1855C12.0437 12.0425 11.8841 11.9508 11.7159 11.8915C11.3856 11.775 10.9967 11.775 10.7557 11.775H10.75H10.75C10.5939 11.775 10.1989 11.8186 9.68919 11.9028C9.35616 11.6393 9.04426 11.3726 8.83585 11.1642C8.56726 10.8956 8.32671 10.6352 8.11601 10.3867C8.27977 9.87931 8.39901 9.48977 8.47798 9.18994C8.55914 8.88177 8.60002 8.66038 8.60002 8.50001C8.60002 7.87031 8.48722 7.46394 8.26519 7.21645C8.03975 6.96516 7.72245 6.9 7.37502 6.9C7.10209 6.9 6.79043 6.97111 6.54811 7.22257C6.30646 7.47335 6.15002 7.88673 6.15002 8.53591C6.15002 9.11861 6.46186 9.80569 7.05265 10.5832C6.93353 10.9462 6.79822 11.3527 6.64883 11.8015C6.6164 11.8989 6.58332 11.9983 6.54959 12.0997C6.46061 12.3662 6.36453 12.6138 6.26319 12.8434C6.18619 12.8781 6.11086 12.9135 6.03757 12.9501ZM4.375 15.15C4.28362 15.15 4.20715 15.1284 4.15225 15.1051C4.13811 15.099 4.12556 15.0929 4.11472 15.0872C4.129 15.0623 4.15569 15.0285 4.20304 14.9855C4.28175 14.9141 4.39789 14.8349 4.54288 14.7499C4.77875 14.6114 5.07838 14.4645 5.38943 14.3162C5.19535 14.5586 5.00906 14.7461 4.84609 14.8818C4.73182 14.9769 4.63036 15.0455 4.54697 15.0898C4.46064 15.1356 4.4035 15.15 4.375 15.15ZM7.10001 8.53591C7.10001 8.14712 7.16161 7.98036 7.21692 7.91013C7.26295 7.85168 7.31205 7.85002 7.37502 7.85002C7.44518 7.85002 7.48825 7.85064 7.52157 7.85884C7.54754 7.86524 7.56317 7.87516 7.57798 7.89806C7.59644 7.92662 7.61592 7.9797 7.62965 8.07999C7.64318 8.1788 7.65004 8.31416 7.65004 8.50001C7.65004 8.56463 7.62716 8.69131 7.57634 8.88841C7.53831 9.03593 7.48621 9.21718 7.42087 9.43166C7.20589 9.06556 7.10001 8.76205 7.10001 8.53591ZM11.3943 12.7921C11.3965 12.7933 11.3983 12.7945 11.3999 12.7955C11.3996 12.8208 11.3987 12.8382 11.3961 12.8523C11.3933 12.8681 11.3901 12.8695 11.3899 12.8697C11.3872 12.8721 11.3746 12.8814 11.3342 12.8892C11.2962 12.8966 11.2419 12.9012 11.1639 12.9021C11.1271 12.8916 11.0584 12.8597 10.9581 12.802C10.9189 12.7794 10.8764 12.7538 10.831 12.7255C11.0595 12.7279 11.2054 12.7409 11.2977 12.7603C11.3488 12.771 11.3781 12.7827 11.3943 12.7921Z" fill="#01825C" stroke="#01825C" stroke-width="0.2"/>
</svg>
