<svg width="18" height="19" viewBox="0 0 18 19" fill="none" xmlns="http://www.w3.org/2000/svg">
<g clip-path="url(#clip0_606_16260)">
<path d="M9 0.326172C6.383 0.326172 4.25391 2.45527 4.25391 5.07227C4.25391 7.68926 6.383 9.81836 9 9.81836C11.617 9.81836 13.7461 7.68926 13.7461 5.07227C13.7461 2.45527 11.617 0.326172 9 0.326172ZM9 8.76367C6.96456 8.76367 5.30859 7.10771 5.30859 5.07227C5.30859 3.03682 6.96456 1.38086 9 1.38086C11.0354 1.38086 12.6914 3.03682 12.6914 5.07227C12.6914 7.10771 11.0354 8.76367 9 8.76367Z" fill="#01825C"/>
<path d="M14.9051 12.919C13.6057 11.5996 11.8831 10.873 10.0547 10.873H7.94531C6.11691 10.873 4.39432 11.5996 3.09495 12.919C1.80193 14.2318 1.08984 15.9648 1.08984 17.7988C1.08984 18.0901 1.32595 18.3262 1.61719 18.3262H16.3828C16.674 18.3262 16.9102 18.0901 16.9102 17.7988C16.9102 15.9648 16.1981 14.2318 14.9051 12.919ZM2.16773 17.2715C2.43193 14.2802 4.92226 11.9277 7.94531 11.9277H10.0547C13.0777 11.9277 15.5681 14.2802 15.8323 17.2715H2.16773Z" fill="#01825C"/>
</g>
<defs>
<clipPath id="clip0_606_16260">
<rect width="18" height="18" fill="white" transform="translate(0 0.326172)"/>
</clipPath>
</defs>
</svg>
